<?xml version="1.0" encoding="UTF-8" standalone="no"?>
<svg width="700mm" height="500mm"
 viewBox="0 0 7000 5000"
 xmlns="http://www.w3.org/2000/svg" xmlns:xlink="http://www.w3.org/1999/xlink"  version="1.2" baseProfile="tiny">
<title>FreeCAD SVG Export</title>
<desc>Drawing page: Page exported from FreeCAD document: gussets</desc>
<defs>
</defs>
<g fill="none" stroke="black" stroke-width="1" fill-rule="evenodd" stroke-linecap="square" stroke-linejoin="bevel" >

<g fill="none" stroke="#000000" stroke-opacity="1" stroke-width="1" stroke-linecap="square" stroke-linejoin="bevel" transform="matrix(1,0,0,1,0,0)"
font-family="MS Shell Dlg 2" font-size="27.5167" font-weight="400" font-style="normal" 
>
</g>

<g fill="none" stroke="#000000" stroke-opacity="1" stroke-width="1" stroke-linecap="square" stroke-linejoin="bevel" transform="matrix(1,0,0,1,0,5000)"
font-family="MS Shell Dlg 2" font-size="27.5167" font-weight="400" font-style="normal" 
>
</g>

<g fill="none" stroke="#000000" stroke-opacity="1" stroke-width="1" stroke-linecap="square" stroke-linejoin="bevel" transform="matrix(1,0,0,1,0,5000)"
font-family="MS Shell Dlg 2" font-size="27.5167" font-weight="400" font-style="normal" 
>
</g>

<g fill="none" stroke="#000000" stroke-opacity="1" stroke-width="1" stroke-linecap="square" stroke-linejoin="bevel" transform="matrix(2.82258,0,0,2.82326,0,0)"
font-family="MS Shell Dlg 2" font-size="27.5167" font-weight="400" font-style="normal" 
>
</g>

<g fill="none" stroke="#000000" stroke-opacity="1" stroke-width="1" stroke-linecap="square" stroke-linejoin="bevel" transform="matrix(2.82258,0,0,2.82326,0,0)"
font-family="MS Shell Dlg 2" font-size="27.5167" font-weight="400" font-style="normal" 
>
</g>

<g fill="none" stroke="#000000" stroke-opacity="1" stroke-width="1" stroke-linecap="square" stroke-linejoin="bevel" transform="matrix(2.82258,0,0,2.82326,0,0)"
font-family="MS Shell Dlg 2" font-size="27.5167" font-weight="400" font-style="normal" 
>
</g>

<g fill="none" stroke="#000000" stroke-opacity="1" stroke-width="1" stroke-linecap="square" stroke-linejoin="bevel" transform="matrix(2.82258,0,0,2.82326,0,0)"
font-family="MS Shell Dlg 2" font-size="27.5167" font-weight="400" font-style="normal" 
>
</g>

<g fill="none" stroke="#000000" stroke-opacity="1" stroke-width="1" stroke-linecap="square" stroke-linejoin="bevel" transform="matrix(1,0,0,1,0,0)"
font-family="MS Shell Dlg 2" font-size="27.5167" font-weight="400" font-style="normal" 
>
</g>

<g fill="none" stroke="#000000" stroke-opacity="1" stroke-width="1" stroke-linecap="square" stroke-linejoin="bevel" transform="matrix(2.82258,0,0,2.82326,0,0)"
font-family="MS Shell Dlg 2" font-size="27.5167" font-weight="400" font-style="normal" 
>
</g>

<g fill="none" stroke="#000000" stroke-opacity="1" stroke-width="1" stroke-linecap="square" stroke-linejoin="bevel" transform="matrix(1,0,0,1,3500,2500)"
font-family="MS Shell Dlg 2" font-size="27.5167" font-weight="400" font-style="normal" 
>
</g>

<g fill="none" stroke="#000000" stroke-opacity="1" stroke-width="1" stroke-linecap="square" stroke-linejoin="bevel" transform="matrix(1,0,0,1,3500,2500)"
font-family="MS Shell Dlg 2" font-size="27.5167" font-weight="400" font-style="normal" 
>
</g>

<g fill="none" stroke="#000000" stroke-opacity="1" stroke-width="1" stroke-linecap="square" stroke-linejoin="bevel" transform="matrix(1,0,0,1,3500,2500)"
font-family="MS Shell Dlg 2" font-size="27.5167" font-weight="400" font-style="normal" 
>
</g>

<g fill="none" stroke="#000000" stroke-opacity="1" stroke-width="1" stroke-linecap="square" stroke-linejoin="bevel" transform="matrix(1,0,0,1,3500,2500)"
font-family="MS Shell Dlg 2" font-size="27.5167" font-weight="400" font-style="normal" 
>
</g>

<g fill="none" stroke="#000000" stroke-opacity="1" stroke-width="1" stroke-linecap="square" stroke-linejoin="bevel" transform="matrix(1,0,0,1,3500,2500)"
font-family="MS Shell Dlg 2" font-size="27.5167" font-weight="400" font-style="normal" 
>
</g>

<g fill="none" stroke="#000000" stroke-opacity="1" stroke-width="1" stroke-linecap="square" stroke-linejoin="bevel" transform="matrix(1,0,0,1,3500,2500)"
font-family="MS Shell Dlg 2" font-size="27.5167" font-weight="400" font-style="normal" 
>
</g>

<g fill="none" stroke="#000000" stroke-opacity="1" stroke-width="1" stroke-linecap="square" stroke-linejoin="bevel" transform="matrix(1,0,0,1,3500,2500)"
font-family="MS Shell Dlg 2" font-size="27.5167" font-weight="400" font-style="normal" 
>
</g>

<g fill="none" stroke="#000000" stroke-opacity="1" stroke-width="1" stroke-linecap="square" stroke-linejoin="bevel" transform="matrix(0.353,0,0,0.353,3492,2544.7)"
font-family="MS Shell Dlg 2" font-size="27.5167" font-weight="400" font-style="normal" 
>
</g>

<g fill="none" stroke="#000000" stroke-opacity="1" stroke-width="1" stroke-linecap="square" stroke-linejoin="bevel" transform="matrix(0.353,0,0,0.353,3492,2544.7)"
font-family="MS Shell Dlg 2" font-size="27.5167" font-weight="400" font-style="normal" 
>
</g>

<g fill="none" stroke="#000000" stroke-opacity="1" stroke-width="1" stroke-linecap="square" stroke-linejoin="bevel" transform="matrix(0.353,0,0,0.353,3492,2544.7)"
font-family="MS Shell Dlg 2" font-size="27.5167" font-weight="400" font-style="normal" 
>
</g>

<g fill="none" stroke="#000000" stroke-opacity="1" stroke-width="1" stroke-linecap="square" stroke-linejoin="bevel" transform="matrix(0.353,0,0,0.353,3492,2544.7)"
font-family="MS Shell Dlg 2" font-size="27.5167" font-weight="400" font-style="normal" 
>
</g>

<g fill="none" stroke="#000000" stroke-opacity="1" stroke-width="1" stroke-linecap="square" stroke-linejoin="bevel" transform="matrix(1,0,0,1,0,0)"
font-family="MS Shell Dlg 2" font-size="27.5167" font-weight="400" font-style="normal" 
>
</g>

<g fill="none" stroke="#000000" stroke-opacity="1" stroke-width="1" stroke-linecap="square" stroke-linejoin="bevel" transform="matrix(0.353,0,0,0.353,3492,2544.7)"
font-family="MS Shell Dlg 2" font-size="27.5167" font-weight="400" font-style="normal" 
>
</g>

<g fill="none" stroke="#000000" stroke-opacity="1" stroke-width="1" stroke-linecap="square" stroke-linejoin="bevel" transform="matrix(0.353,0,0,0.353,3492,2544.7)"
font-family="MS Shell Dlg 2" font-size="27.5167" font-weight="400" font-style="normal" 
>
</g>

<g fill="none" stroke="#000000" stroke-opacity="1" stroke-width="1" stroke-linecap="square" stroke-linejoin="bevel" transform="matrix(1,0,0,1,3500,2500)"
font-family="MS Shell Dlg 2" font-size="27.5167" font-weight="400" font-style="normal" 
>
</g>

<g fill="none" stroke="#000000" stroke-opacity="1" stroke-width="1" stroke-linecap="square" stroke-linejoin="bevel" transform="matrix(1,0,0,1,3500,2500)"
font-family="MS Shell Dlg 2" font-size="27.5167" font-weight="400" font-style="normal" 
>
</g>

<g fill="none" stroke="#000000" stroke-opacity="1" stroke-width="1" stroke-linecap="square" stroke-linejoin="bevel" transform="matrix(1,0,0,1,3500,2500)"
font-family="MS Shell Dlg 2" font-size="27.5167" font-weight="400" font-style="normal" 
>
</g>

<g fill="none" stroke="#000000" stroke-opacity="1" stroke-width="1" stroke-linecap="square" stroke-linejoin="bevel" transform="matrix(1,0,0,1,3500,2500)"
font-family="MS Shell Dlg 2" font-size="27.5167" font-weight="400" font-style="normal" 
>
</g>

<g fill="none" stroke="#000000" stroke-opacity="1" stroke-width="1" stroke-linecap="square" stroke-linejoin="bevel" transform="matrix(1,0,0,1,3500,2500)"
font-family="MS Shell Dlg 2" font-size="27.5167" font-weight="400" font-style="normal" 
>
</g>

<g fill="none" stroke="#000000" stroke-opacity="1" stroke-width="1" stroke-linecap="square" stroke-linejoin="bevel" transform="matrix(1,0,0,1,3509.75,2739.75)"
font-family="MS Shell Dlg 2" font-size="27.5167" font-weight="400" font-style="normal" 
>
</g>

<g fill="none" stroke="#000000" stroke-opacity="1" stroke-width="1" stroke-linecap="square" stroke-linejoin="bevel" transform="matrix(0.353,0,0,0.353,3501.75,2792.61)"
font-family="MS Shell Dlg 2" font-size="27.5167" font-weight="400" font-style="normal" 
>
</g>

<g fill="none" stroke="#000000" stroke-opacity="1" stroke-width="1" stroke-linecap="square" stroke-linejoin="bevel" transform="matrix(0.353,0,0,0.353,3501.75,2792.61)"
font-family="MS Shell Dlg 2" font-size="27.5167" font-weight="400" font-style="normal" 
>
</g>

<g fill="none" stroke="#000000" stroke-opacity="1" stroke-width="1" stroke-linecap="square" stroke-linejoin="bevel" transform="matrix(0.353,0,0,0.353,3501.75,2792.61)"
font-family="MS Shell Dlg 2" font-size="27.5167" font-weight="400" font-style="normal" 
>
</g>

<g fill="none" stroke="#000000" stroke-opacity="1" stroke-width="1" stroke-linecap="square" stroke-linejoin="bevel" transform="matrix(0.353,0,0,0.353,3501.75,2792.61)"
font-family="MS Shell Dlg 2" font-size="27.5167" font-weight="400" font-style="normal" 
>
</g>

<g fill="none" stroke="#000000" stroke-opacity="1" stroke-width="1" stroke-linecap="square" stroke-linejoin="bevel" transform="matrix(1,0,0,1,0,0)"
font-family="MS Shell Dlg 2" font-size="27.5167" font-weight="400" font-style="normal" 
>
</g>

<g fill="none" stroke="#000000" stroke-opacity="1" stroke-width="1" stroke-linecap="square" stroke-linejoin="bevel" transform="matrix(0.353,0,0,0.353,3501.75,2792.61)"
font-family="MS Shell Dlg 2" font-size="27.5167" font-weight="400" font-style="normal" 
>
</g>

<g fill="none" stroke="#000000" stroke-opacity="1" stroke-width="1" stroke-linecap="square" stroke-linejoin="bevel" transform="matrix(0.353,0,0,0.353,3501.75,2792.61)"
font-family="MS Shell Dlg 2" font-size="27.5167" font-weight="400" font-style="normal" 
>
</g>

<g fill="none" stroke="#000000" stroke-opacity="1" stroke-width="1" stroke-linecap="square" stroke-linejoin="bevel" transform="matrix(1,0,0,1,3509.75,2739.75)"
font-family="MS Shell Dlg 2" font-size="27.5167" font-weight="400" font-style="normal" 
>
</g>

<g fill="none" stroke="#000000" stroke-opacity="1" stroke-width="1" stroke-linecap="square" stroke-linejoin="bevel" transform="matrix(1,0,0,1,3500,2500)"
font-family="MS Shell Dlg 2" font-size="27.5167" font-weight="400" font-style="normal" 
>
</g>

<g fill="#ffffff" fill-opacity="1" stroke="none" transform="matrix(1,0,0,1,3500,2500)"
font-family="MS Shell Dlg 2" font-size="27.5167" font-weight="400" font-style="normal" 
>
<path vector-effect="non-scaling-stroke" fill-rule="evenodd" d="M-367.252,222.25 L394.748,222.25 L394.748,-222.25 L-367.252,-222.25 L-367.252,-156.479 L-367.252,-156.479 C-295.77,-130.393 -249.294,-69.7558 -249.294,-2.57925 C-249.294,64.5973 -295.77,125.235 -367.252,151.32 L-367.252,151.32 L-367.252,222.25"/>
</g>

<g fill="none" stroke="#000000" stroke-opacity="1" stroke-width="1" stroke-linecap="square" stroke-linejoin="bevel" transform="matrix(1,0,0,1,3500,2500)"
font-family="MS Shell Dlg 2" font-size="27.5167" font-weight="400" font-style="normal" 
>
</g>

<g fill="none" stroke="#000000" stroke-opacity="1" stroke-width="1" stroke-linecap="square" stroke-linejoin="bevel" transform="matrix(1,0,0,1,3500,2500)"
font-family="MS Shell Dlg 2" font-size="27.5167" font-weight="400" font-style="normal" 
>
</g>

<g fill="none" stroke="#000000" stroke-opacity="1" stroke-width="1" stroke-linecap="square" stroke-linejoin="bevel" transform="matrix(1,0,0,1,3500,2500)"
font-family="MS Shell Dlg 2" font-size="27.5167" font-weight="400" font-style="normal" 
>
</g>

<g fill="none" stroke="#000000" stroke-opacity="1" stroke-width="1" stroke-linecap="square" stroke-linejoin="bevel" transform="matrix(1,0,0,1,0,0)"
font-family="MS Shell Dlg 2" font-size="27.5167" font-weight="400" font-style="normal" 
>
</g>

<g fill="none" stroke="#000000" stroke-opacity="1" stroke-width="1" stroke-linecap="square" stroke-linejoin="bevel" transform="matrix(1,0,0,1,3500,2500)"
font-family="MS Shell Dlg 2" font-size="27.5167" font-weight="400" font-style="normal" 
>
</g>

<g fill="none" stroke="#000000" stroke-opacity="1" stroke-width="1" stroke-linecap="square" stroke-linejoin="bevel" transform="matrix(1,0,0,1,3500,2500)"
font-family="MS Shell Dlg 2" font-size="27.5167" font-weight="400" font-style="normal" 
>
</g>

<g fill="none" stroke="#000000" stroke-opacity="1" stroke-width="7" stroke-linecap="round" stroke-linejoin="bevel" transform="matrix(1,0,0,1,3500,2500)"
font-family="MS Shell Dlg 2" font-size="27.5167" font-weight="400" font-style="normal" 
>
<path vector-effect="none" fill-rule="evenodd" d="M-367.252,222.25 L-367.252,151.32"/>
</g>

<g fill="none" stroke="#000000" stroke-opacity="1" stroke-width="1" stroke-linecap="square" stroke-linejoin="bevel" transform="matrix(1,0,0,1,3500,2500)"
font-family="MS Shell Dlg 2" font-size="27.5167" font-weight="400" font-style="normal" 
>
</g>

<g fill="none" stroke="#000000" stroke-opacity="1" stroke-width="1" stroke-linecap="square" stroke-linejoin="bevel" transform="matrix(1,0,0,1,3500,2500)"
font-family="MS Shell Dlg 2" font-size="27.5167" font-weight="400" font-style="normal" 
>
</g>

<g fill="none" stroke="#000000" stroke-opacity="1" stroke-width="7" stroke-linecap="round" stroke-linejoin="bevel" transform="matrix(1,0,0,1,3500,2500)"
font-family="MS Shell Dlg 2" font-size="27.5167" font-weight="400" font-style="normal" 
>
<path vector-effect="none" fill-rule="evenodd" d="M394.748,222.25 L394.748,-222.25"/>
</g>

<g fill="none" stroke="#000000" stroke-opacity="1" stroke-width="1" stroke-linecap="square" stroke-linejoin="bevel" transform="matrix(1,0,0,1,3500,2500)"
font-family="MS Shell Dlg 2" font-size="27.5167" font-weight="400" font-style="normal" 
>
</g>

<g fill="none" stroke="#000000" stroke-opacity="1" stroke-width="1" stroke-linecap="square" stroke-linejoin="bevel" transform="matrix(1,0,0,1,3500,2500)"
font-family="MS Shell Dlg 2" font-size="27.5167" font-weight="400" font-style="normal" 
>
</g>

<g fill="none" stroke="#000000" stroke-opacity="1" stroke-width="7" stroke-linecap="round" stroke-linejoin="bevel" transform="matrix(1,0,0,1,3500,2500)"
font-family="MS Shell Dlg 2" font-size="27.5167" font-weight="400" font-style="normal" 
>
<path vector-effect="none" fill-rule="evenodd" d="M-367.252,-222.25 L394.748,-222.25"/>
</g>

<g fill="none" stroke="#000000" stroke-opacity="1" stroke-width="1" stroke-linecap="square" stroke-linejoin="bevel" transform="matrix(1,0,0,1,3500,2500)"
font-family="MS Shell Dlg 2" font-size="27.5167" font-weight="400" font-style="normal" 
>
</g>

<g fill="none" stroke="#000000" stroke-opacity="1" stroke-width="1" stroke-linecap="square" stroke-linejoin="bevel" transform="matrix(1,0,0,1,3500,2500)"
font-family="MS Shell Dlg 2" font-size="27.5167" font-weight="400" font-style="normal" 
>
</g>

<g fill="none" stroke="#000000" stroke-opacity="1" stroke-width="7" stroke-linecap="round" stroke-linejoin="bevel" transform="matrix(1,0,0,1,3500,2500)"
font-family="MS Shell Dlg 2" font-size="27.5167" font-weight="400" font-style="normal" 
>
<path vector-effect="none" fill-rule="evenodd" d="M-367.252,-156.479 L-367.252,-222.25"/>
</g>

<g fill="none" stroke="#000000" stroke-opacity="1" stroke-width="1" stroke-linecap="square" stroke-linejoin="bevel" transform="matrix(1,0,0,1,3500,2500)"
font-family="MS Shell Dlg 2" font-size="27.5167" font-weight="400" font-style="normal" 
>
</g>

<g fill="none" stroke="#000000" stroke-opacity="1" stroke-width="1" stroke-linecap="square" stroke-linejoin="bevel" transform="matrix(1,0,0,1,3500,2500)"
font-family="MS Shell Dlg 2" font-size="27.5167" font-weight="400" font-style="normal" 
>
</g>

<g fill="none" stroke="#000000" stroke-opacity="1" stroke-width="7" stroke-linecap="round" stroke-linejoin="bevel" transform="matrix(1,0,0,1,3500,2500)"
font-family="MS Shell Dlg 2" font-size="27.5167" font-weight="400" font-style="normal" 
>
<path vector-effect="none" fill-rule="evenodd" d="M-367.252,-156.479 C-295.77,-130.393 -249.294,-69.7558 -249.294,-2.57925 C-249.294,64.5973 -295.77,125.235 -367.252,151.32 "/>
</g>

<g fill="none" stroke="#000000" stroke-opacity="1" stroke-width="1" stroke-linecap="square" stroke-linejoin="bevel" transform="matrix(1,0,0,1,3500,2500)"
font-family="MS Shell Dlg 2" font-size="27.5167" font-weight="400" font-style="normal" 
>
</g>

<g fill="none" stroke="#000000" stroke-opacity="1" stroke-width="1" stroke-linecap="square" stroke-linejoin="bevel" transform="matrix(1,0,0,1,3500,2500)"
font-family="MS Shell Dlg 2" font-size="27.5167" font-weight="400" font-style="normal" 
>
</g>

<g fill="none" stroke="#000000" stroke-opacity="1" stroke-width="7" stroke-linecap="round" stroke-linejoin="bevel" transform="matrix(1,0,0,1,3500,2500)"
font-family="MS Shell Dlg 2" font-size="27.5167" font-weight="400" font-style="normal" 
>
<path vector-effect="none" fill-rule="evenodd" d="M-367.252,222.25 L394.748,222.25"/>
</g>

<g fill="none" stroke="#000000" stroke-opacity="1" stroke-width="1" stroke-linecap="square" stroke-linejoin="bevel" transform="matrix(1,0,0,1,3500,2500)"
font-family="MS Shell Dlg 2" font-size="27.5167" font-weight="400" font-style="normal" 
>
</g>

<g fill="none" stroke="#000000" stroke-opacity="1" stroke-width="1" stroke-linecap="square" stroke-linejoin="bevel" transform="matrix(1,0,0,1,0,0)"
font-family="MS Shell Dlg 2" font-size="27.5167" font-weight="400" font-style="normal" 
>
</g>
</g>
</svg>
