<?xml version="1.0"?>
<!DOCTYPE svg PUBLIC "-//W3C//DTD SVG 1.1//EN" "http://www.w3.org/Graphics/SVG/1.1/DTD/svg11.dtd">
<svg width="203.200000023mm" height="95.25mm" viewBox="-0.000000 -0.000000 203.200000 95.250000" xmlns="http://www.w3.org/2000/svg" version="1.1">
<g id="Body" transform="scale(1,-1)">
<path id="Body_f0000"  d="M -2.284892966e-08 -8.6995 L -2.284892966e-08 -27.7495 L -2.2848928e-08 -27.7495 L -2.284893e-08 -8.6995 L -2.284892966e-08 -8.6995 Z " stroke="#191919" stroke-width="0.35 px" style="stroke-width:0.35;stroke-miterlimit:4;stroke-dasharray:none;fill:#cccccc;fill-rule: evenodd "/>
<path id="Body_f0001"  d="M 25.4 0.0 L -2.284892966e-08 -8.6995 L -2.284893e-08 -8.6995 L 25.4 -4.81996648255e-15 L 25.4 0.0 Z " stroke="#191919" stroke-width="0.35 px" style="stroke-width:0.35;stroke-miterlimit:4;stroke-dasharray:none;fill:#cccccc;fill-rule: evenodd "/>
<path id="Body_f0002"  d="M 88.9 0.0 L 25.4 0.0 L 25.4 -4.81996648255e-15 L 88.9 -4.81996648255e-15 L 88.9 0.0 Z " stroke="#191919" stroke-width="0.35 px" style="stroke-width:0.35;stroke-miterlimit:4;stroke-dasharray:none;fill:#cccccc;fill-rule: evenodd "/>
<path id="Body_f0003"  d="M 203.2 -69.85 L 88.9 0.0 L 88.9 -4.81996648255e-15 L 203.2 -69.85 L 203.2 -69.85 Z " stroke="#191919" stroke-width="0.35 px" style="stroke-width:0.35;stroke-miterlimit:4;stroke-dasharray:none;fill:#cccccc;fill-rule: evenodd "/>
<path id="Body_f0004"  d="M 152.4 -95.25 L 203.2 -69.85 L 203.2 -69.85 L 152.4 -95.25 L 152.4 -95.25 Z " stroke="#191919" stroke-width="0.35 px" style="stroke-width:0.35;stroke-miterlimit:4;stroke-dasharray:none;fill:#cccccc;fill-rule: evenodd "/>
<path id="Body_f0005"  d="M 152.4 -76.2 L 152.4 -95.25 L 152.4 -95.25 L 152.4 -76.2 L 152.4 -76.2 Z " stroke="#191919" stroke-width="0.35 px" style="stroke-width:0.35;stroke-miterlimit:4;stroke-dasharray:none;fill:#cccccc;fill-rule: evenodd "/>
<path id="Body_f0006"  d="M 114.3 -95.25 L 152.4 -76.2 L 152.4 -76.2 L 114.3 -95.25 L 114.3 -95.25 Z " stroke="#191919" stroke-width="0.35 px" style="stroke-width:0.35;stroke-miterlimit:4;stroke-dasharray:none;fill:#cccccc;fill-rule: evenodd "/>
<path id="Body_f0007"  d="M 114.3 -76.2 L 114.3 -95.25 L 114.3 -95.25 L 114.3 -76.2 L 114.3 -76.2 Z " stroke="#191919" stroke-width="0.35 px" style="stroke-width:0.35;stroke-miterlimit:4;stroke-dasharray:none;fill:#cccccc;fill-rule: evenodd "/>
<path id="Body_f0008"  d="M 76.2 -95.25 L 114.3 -76.2 L 114.3 -76.2 L 76.2 -95.25 L 76.2 -95.25 Z " stroke="#191919" stroke-width="0.35 px" style="stroke-width:0.35;stroke-miterlimit:4;stroke-dasharray:none;fill:#cccccc;fill-rule: evenodd "/>
<path id="Body_f0009"  d="M 76.2 -76.2 L 76.2 -95.25 L 76.2 -95.25 L 76.2 -76.2 L 76.2 -76.2 Z " stroke="#191919" stroke-width="0.35 px" style="stroke-width:0.35;stroke-miterlimit:4;stroke-dasharray:none;fill:#cccccc;fill-rule: evenodd "/>
<path id="Body_f0010"  d="M 38.1 -95.25 L 76.2 -76.2 L 76.2 -76.2 L 38.1 -95.25 L 38.1 -95.25 Z " stroke="#191919" stroke-width="0.35 px" style="stroke-width:0.35;stroke-miterlimit:4;stroke-dasharray:none;fill:#cccccc;fill-rule: evenodd "/>
<path id="Body_f0011"  d="M 0.0 -80.2005 L 0.0 -80.2005 L 38.1 -95.25 L 38.1 -95.25 L 0.0 -80.2005 Z " stroke="#191919" stroke-width="0.35 px" style="stroke-width:0.35;stroke-miterlimit:4;stroke-dasharray:none;fill:#cccccc;fill-rule: evenodd "/>
<path id="Body_f0012"  d="M 0.0 -61.1505 L 0.0 -80.2005 L 0.0 -80.2005 L 3e-15 -61.1505 L 2.56e-15 -61.1505 Z " stroke="#191919" stroke-width="0.35 px" style="stroke-width:0.35;stroke-miterlimit:4;stroke-dasharray:none;fill:#cccccc;fill-rule: evenodd "/>
<path id="Body_f0013"  d="M -2.2848928e-08 -27.7495 L -2.2848928e-08 -27.7495 A 16.7005 16.7005 0 1 0 5.11305e-15 -61.1505L 2.56e-15 -61.1505 A 16.7005 16.7005 0 1 1 -2.28489e-08 -27.7495Z " stroke="#191919" stroke-width="0.35 px" style="stroke-width:0.35;stroke-miterlimit:4;stroke-dasharray:none;fill:#cccccc;fill-rule: evenodd "/>
<path id="Body_f0014"  d="M -2.2848928e-08 -27.7495 A 16.7005 16.7005 0 1 0 5.11305e-15 -61.1505L 0.0 -80.2005 L 38.1 -95.25 L 76.2 -76.2 L 76.2 -95.25 L 114.3 -76.2 L 114.3 -95.25 L 152.4 -76.2 L 152.4 -95.25 L 203.2 -69.85 L 88.9 0.0 L 25.4 0.0 L -2.284892966e-08 -8.6995 L -2.284892966e-08 -27.7495 Z " stroke="#191919" stroke-width="0.35 px" style="stroke-width:0.35;stroke-miterlimit:4;stroke-dasharray:none;fill:#cccccc;fill-rule: evenodd "/>
<path id="Body_f0015"  d="M -2.2848928e-08 -27.7495 L -2.284893e-08 -8.6995 L 25.4 -4.81996648255e-15 L 88.9 -4.81996648255e-15 L 203.2 -69.85 L 152.4 -95.25 L 152.4 -76.2 L 114.3 -95.25 L 114.3 -76.2 L 76.2 -95.25 L 76.2 -76.2 L 38.1 -95.25 L 0.0 -80.2005 L 3e-15 -61.1505 A 16.7005 16.7005 0 1 1 -2.28489e-08 -27.7495Z " stroke="#191919" stroke-width="0.35 px" style="stroke-width:0.35;stroke-miterlimit:4;stroke-dasharray:none;fill:#cccccc;fill-rule: evenodd "/>
<title>Body</title>
</g>
</svg>