<?xml version="1.0" encoding="UTF-8" standalone="no"?>
<svg width="700mm" height="500mm"
 viewBox="0 0 7000 5000"
 xmlns="http://www.w3.org/2000/svg" xmlns:xlink="http://www.w3.org/1999/xlink"  version="1.2" baseProfile="tiny">
<title>FreeCAD SVG Export</title>
<desc>Drawing page: Page exported from FreeCAD document: Lid_jaw</desc>
<defs>
</defs>
<g fill="none" stroke="black" stroke-width="1" fill-rule="evenodd" stroke-linecap="square" stroke-linejoin="bevel" >

<g fill="none" stroke="#000000" stroke-opacity="1" stroke-width="1" stroke-linecap="square" stroke-linejoin="bevel" transform="matrix(1,0,0,1,0,0)"
font-family="MS Shell Dlg 2" font-size="27.5167" font-weight="400" font-style="normal" 
>
</g>

<g fill="none" stroke="#000000" stroke-opacity="1" stroke-width="1" stroke-linecap="square" stroke-linejoin="bevel" transform="matrix(1,0,0,1,0,5000)"
font-family="MS Shell Dlg 2" font-size="27.5167" font-weight="400" font-style="normal" 
>
</g>

<g fill="none" stroke="#000000" stroke-opacity="1" stroke-width="1" stroke-linecap="square" stroke-linejoin="bevel" transform="matrix(1,0,0,1,0,5000)"
font-family="MS Shell Dlg 2" font-size="27.5167" font-weight="400" font-style="normal" 
>
</g>

<g fill="none" stroke="#000000" stroke-opacity="1" stroke-width="1" stroke-linecap="square" stroke-linejoin="bevel" transform="matrix(2.82258,0,0,2.82326,0,0)"
font-family="MS Shell Dlg 2" font-size="27.5167" font-weight="400" font-style="normal" 
>
</g>

<g fill="none" stroke="#000000" stroke-opacity="1" stroke-width="1" stroke-linecap="square" stroke-linejoin="bevel" transform="matrix(2.82258,0,0,2.82326,0,0)"
font-family="MS Shell Dlg 2" font-size="27.5167" font-weight="400" font-style="normal" 
>
</g>

<g fill="none" stroke="#000000" stroke-opacity="1" stroke-width="1" stroke-linecap="square" stroke-linejoin="bevel" transform="matrix(2.82258,0,0,2.82326,0,0)"
font-family="MS Shell Dlg 2" font-size="27.5167" font-weight="400" font-style="normal" 
>
</g>

<g fill="none" stroke="#000000" stroke-opacity="1" stroke-width="1" stroke-linecap="square" stroke-linejoin="bevel" transform="matrix(2.82258,0,0,2.82326,0,0)"
font-family="MS Shell Dlg 2" font-size="27.5167" font-weight="400" font-style="normal" 
>
</g>

<g fill="none" stroke="#000000" stroke-opacity="1" stroke-width="1" stroke-linecap="square" stroke-linejoin="bevel" transform="matrix(1,0,0,1,0,0)"
font-family="MS Shell Dlg 2" font-size="27.5167" font-weight="400" font-style="normal" 
>
</g>

<g fill="none" stroke="#000000" stroke-opacity="1" stroke-width="1" stroke-linecap="square" stroke-linejoin="bevel" transform="matrix(2.82258,0,0,2.82326,0,0)"
font-family="MS Shell Dlg 2" font-size="27.5167" font-weight="400" font-style="normal" 
>
</g>

<g fill="none" stroke="#000000" stroke-opacity="1" stroke-width="1" stroke-linecap="square" stroke-linejoin="bevel" transform="matrix(1,0,0,1,3500,2500)"
font-family="MS Shell Dlg 2" font-size="27.5167" font-weight="400" font-style="normal" 
>
</g>

<g fill="none" stroke="#000000" stroke-opacity="1" stroke-width="1" stroke-linecap="square" stroke-linejoin="bevel" transform="matrix(1,0,0,1,3500,2500)"
font-family="MS Shell Dlg 2" font-size="27.5167" font-weight="400" font-style="normal" 
>
</g>

<g fill="none" stroke="#000000" stroke-opacity="1" stroke-width="1" stroke-linecap="square" stroke-linejoin="bevel" transform="matrix(1,0,0,1,3500,2500)"
font-family="MS Shell Dlg 2" font-size="27.5167" font-weight="400" font-style="normal" 
>
</g>

<g fill="none" stroke="#000000" stroke-opacity="1" stroke-width="1" stroke-linecap="square" stroke-linejoin="bevel" transform="matrix(1,0,0,1,3500,2500)"
font-family="MS Shell Dlg 2" font-size="27.5167" font-weight="400" font-style="normal" 
>
</g>

<g fill="none" stroke="#000000" stroke-opacity="1" stroke-width="1" stroke-linecap="square" stroke-linejoin="bevel" transform="matrix(1,0,0,1,3500,2500)"
font-family="MS Shell Dlg 2" font-size="27.5167" font-weight="400" font-style="normal" 
>
</g>

<g fill="none" stroke="#000000" stroke-opacity="1" stroke-width="1" stroke-linecap="square" stroke-linejoin="bevel" transform="matrix(1,0,0,1,3500,2500)"
font-family="MS Shell Dlg 2" font-size="27.5167" font-weight="400" font-style="normal" 
>
</g>

<g fill="none" stroke="#000000" stroke-opacity="1" stroke-width="1" stroke-linecap="square" stroke-linejoin="bevel" transform="matrix(1,0,0,1,3500,2500)"
font-family="MS Shell Dlg 2" font-size="27.5167" font-weight="400" font-style="normal" 
>
</g>

<g fill="none" stroke="#000000" stroke-opacity="1" stroke-width="1" stroke-linecap="square" stroke-linejoin="bevel" transform="matrix(0.353,0,0,0.353,3492,2544.7)"
font-family="MS Shell Dlg 2" font-size="27.5167" font-weight="400" font-style="normal" 
>
</g>

<g fill="none" stroke="#000000" stroke-opacity="1" stroke-width="1" stroke-linecap="square" stroke-linejoin="bevel" transform="matrix(0.353,0,0,0.353,3492,2544.7)"
font-family="MS Shell Dlg 2" font-size="27.5167" font-weight="400" font-style="normal" 
>
</g>

<g fill="none" stroke="#000000" stroke-opacity="1" stroke-width="1" stroke-linecap="square" stroke-linejoin="bevel" transform="matrix(0.353,0,0,0.353,3492,2544.7)"
font-family="MS Shell Dlg 2" font-size="27.5167" font-weight="400" font-style="normal" 
>
</g>

<g fill="none" stroke="#000000" stroke-opacity="1" stroke-width="1" stroke-linecap="square" stroke-linejoin="bevel" transform="matrix(0.353,0,0,0.353,3492,2544.7)"
font-family="MS Shell Dlg 2" font-size="27.5167" font-weight="400" font-style="normal" 
>
</g>

<g fill="none" stroke="#000000" stroke-opacity="1" stroke-width="1" stroke-linecap="square" stroke-linejoin="bevel" transform="matrix(1,0,0,1,0,0)"
font-family="MS Shell Dlg 2" font-size="27.5167" font-weight="400" font-style="normal" 
>
</g>

<g fill="none" stroke="#000000" stroke-opacity="1" stroke-width="1" stroke-linecap="square" stroke-linejoin="bevel" transform="matrix(0.353,0,0,0.353,3492,2544.7)"
font-family="MS Shell Dlg 2" font-size="27.5167" font-weight="400" font-style="normal" 
>
</g>

<g fill="none" stroke="#000000" stroke-opacity="1" stroke-width="1" stroke-linecap="square" stroke-linejoin="bevel" transform="matrix(0.353,0,0,0.353,3492,2544.7)"
font-family="MS Shell Dlg 2" font-size="27.5167" font-weight="400" font-style="normal" 
>
</g>

<g fill="none" stroke="#000000" stroke-opacity="1" stroke-width="1" stroke-linecap="square" stroke-linejoin="bevel" transform="matrix(1,0,0,1,3500,2500)"
font-family="MS Shell Dlg 2" font-size="27.5167" font-weight="400" font-style="normal" 
>
</g>

<g fill="none" stroke="#000000" stroke-opacity="1" stroke-width="1" stroke-linecap="square" stroke-linejoin="bevel" transform="matrix(1,0,0,1,3500,2500)"
font-family="MS Shell Dlg 2" font-size="27.5167" font-weight="400" font-style="normal" 
>
</g>

<g fill="none" stroke="#000000" stroke-opacity="1" stroke-width="1" stroke-linecap="square" stroke-linejoin="bevel" transform="matrix(1,0,0,1,3500,2500)"
font-family="MS Shell Dlg 2" font-size="27.5167" font-weight="400" font-style="normal" 
>
</g>

<g fill="none" stroke="#000000" stroke-opacity="1" stroke-width="1" stroke-linecap="square" stroke-linejoin="bevel" transform="matrix(1,0,0,1,3500,2500)"
font-family="MS Shell Dlg 2" font-size="27.5167" font-weight="400" font-style="normal" 
>
</g>

<g fill="none" stroke="#000000" stroke-opacity="1" stroke-width="1" stroke-linecap="square" stroke-linejoin="bevel" transform="matrix(1,0,0,1,3500,2500)"
font-family="MS Shell Dlg 2" font-size="27.5167" font-weight="400" font-style="normal" 
>
</g>

<g fill="none" stroke="#000000" stroke-opacity="1" stroke-width="1" stroke-linecap="square" stroke-linejoin="bevel" transform="matrix(1,0,0,1,3496,4834.69)"
font-family="MS Shell Dlg 2" font-size="27.5167" font-weight="400" font-style="normal" 
>
</g>

<g fill="none" stroke="#000000" stroke-opacity="1" stroke-width="1" stroke-linecap="square" stroke-linejoin="bevel" transform="matrix(0.353,0,0,0.353,3488,4887.55)"
font-family="MS Shell Dlg 2" font-size="27.5167" font-weight="400" font-style="normal" 
>
</g>

<g fill="none" stroke="#000000" stroke-opacity="1" stroke-width="1" stroke-linecap="square" stroke-linejoin="bevel" transform="matrix(0.353,0,0,0.353,3488,4887.55)"
font-family="MS Shell Dlg 2" font-size="27.5167" font-weight="400" font-style="normal" 
>
</g>

<g fill="none" stroke="#000000" stroke-opacity="1" stroke-width="1" stroke-linecap="square" stroke-linejoin="bevel" transform="matrix(0.353,0,0,0.353,3488,4887.55)"
font-family="MS Shell Dlg 2" font-size="27.5167" font-weight="400" font-style="normal" 
>
</g>

<g fill="none" stroke="#000000" stroke-opacity="1" stroke-width="1" stroke-linecap="square" stroke-linejoin="bevel" transform="matrix(0.353,0,0,0.353,3488,4887.55)"
font-family="MS Shell Dlg 2" font-size="27.5167" font-weight="400" font-style="normal" 
>
</g>

<g fill="none" stroke="#000000" stroke-opacity="1" stroke-width="1" stroke-linecap="square" stroke-linejoin="bevel" transform="matrix(1,0,0,1,0,0)"
font-family="MS Shell Dlg 2" font-size="27.5167" font-weight="400" font-style="normal" 
>
</g>

<g fill="none" stroke="#000000" stroke-opacity="1" stroke-width="1" stroke-linecap="square" stroke-linejoin="bevel" transform="matrix(0.353,0,0,0.353,3488,4887.55)"
font-family="MS Shell Dlg 2" font-size="27.5167" font-weight="400" font-style="normal" 
>
</g>

<g fill="none" stroke="#000000" stroke-opacity="1" stroke-width="1" stroke-linecap="square" stroke-linejoin="bevel" transform="matrix(0.353,0,0,0.353,3488,4887.55)"
font-family="MS Shell Dlg 2" font-size="27.5167" font-weight="400" font-style="normal" 
>
</g>

<g fill="none" stroke="#000000" stroke-opacity="1" stroke-width="1" stroke-linecap="square" stroke-linejoin="bevel" transform="matrix(1,0,0,1,3496,4834.69)"
font-family="MS Shell Dlg 2" font-size="27.5167" font-weight="400" font-style="normal" 
>
</g>

<g fill="none" stroke="#000000" stroke-opacity="1" stroke-width="1" stroke-linecap="square" stroke-linejoin="bevel" transform="matrix(1,0,0,1,3500,2500)"
font-family="MS Shell Dlg 2" font-size="27.5167" font-weight="400" font-style="normal" 
>
</g>

<g fill="#ffffff" fill-opacity="1" stroke="none" transform="matrix(1,0,0,1,3500,2500)"
font-family="MS Shell Dlg 2" font-size="27.5167" font-weight="400" font-style="normal" 
>
<path vector-effect="non-scaling-stroke" fill-rule="evenodd" d="M-2252.98,762 L-2252.98,-762 L2252.98,-762 L2252.98,762 L1754.39,762 L1718.34,750.125 L1687.04,600.323 L1537.26,568.868 L1489.52,423.468 L1337.19,408.832 L1273.6,269.63 L1120.58,271.996 L1041.93,140.713 L890.119,160.05 L797.384,38.3085 L648.658,74.3778 L542.982,-36.3168 L399.179,16.0393 L281.868,-82.2405 L144.766,-14.245 L17.2706,-98.8952 L-111.437,-16.1005 L-247.541,-86.0748 L-366.262,10.4955 L-509.292,-43.938 L-616.56,65.2144 L-764.749,26.9946 L-859.237,147.38 L-1010.75,125.846 L-1091.29,255.976 L-1244.26,251.395 L-1309.86,389.661 L-1462.39,402.088 L-1512.24,546.782 L-1662.45,576.064 L-1704.14,761.976 L-1704.16,762 C-1704.14,761.984 -1704.13,761.968 -1704.11,761.952 L-1704.14,761.976 L-2252.98,762"/>
</g>

<g fill="none" stroke="#000000" stroke-opacity="1" stroke-width="1" stroke-linecap="square" stroke-linejoin="bevel" transform="matrix(1,0,0,1,3500,2500)"
font-family="MS Shell Dlg 2" font-size="27.5167" font-weight="400" font-style="normal" 
>
</g>

<g fill="none" stroke="#000000" stroke-opacity="1" stroke-width="1" stroke-linecap="square" stroke-linejoin="bevel" transform="matrix(1,0,0,1,3500,2500)"
font-family="MS Shell Dlg 2" font-size="27.5167" font-weight="400" font-style="normal" 
>
</g>

<g fill="none" stroke="#000000" stroke-opacity="1" stroke-width="1" stroke-linecap="square" stroke-linejoin="bevel" transform="matrix(1,0,0,1,3500,2500)"
font-family="MS Shell Dlg 2" font-size="27.5167" font-weight="400" font-style="normal" 
>
</g>

<g fill="none" stroke="#000000" stroke-opacity="1" stroke-width="1" stroke-linecap="square" stroke-linejoin="bevel" transform="matrix(1,0,0,1,0,0)"
font-family="MS Shell Dlg 2" font-size="27.5167" font-weight="400" font-style="normal" 
>
</g>

<g fill="none" stroke="#000000" stroke-opacity="1" stroke-width="1" stroke-linecap="square" stroke-linejoin="bevel" transform="matrix(1,0,0,1,3500,2500)"
font-family="MS Shell Dlg 2" font-size="27.5167" font-weight="400" font-style="normal" 
>
</g>

<g fill="none" stroke="#000000" stroke-opacity="1" stroke-width="1" stroke-linecap="square" stroke-linejoin="bevel" transform="matrix(1,0,0,1,3500,2500)"
font-family="MS Shell Dlg 2" font-size="27.5167" font-weight="400" font-style="normal" 
>
</g>

<g fill="none" stroke="#000000" stroke-opacity="1" stroke-width="7" stroke-linecap="round" stroke-linejoin="bevel" transform="matrix(1,0,0,1,3500,2500)"
font-family="MS Shell Dlg 2" font-size="27.5167" font-weight="400" font-style="normal" 
>
<path vector-effect="none" fill-rule="evenodd" d="M-2252.98,-762 L2252.98,-762"/>
</g>

<g fill="none" stroke="#000000" stroke-opacity="1" stroke-width="1" stroke-linecap="square" stroke-linejoin="bevel" transform="matrix(1,0,0,1,3500,2500)"
font-family="MS Shell Dlg 2" font-size="27.5167" font-weight="400" font-style="normal" 
>
</g>

<g fill="none" stroke="#000000" stroke-opacity="1" stroke-width="1" stroke-linecap="square" stroke-linejoin="bevel" transform="matrix(1,0,0,1,3500,2500)"
font-family="MS Shell Dlg 2" font-size="27.5167" font-weight="400" font-style="normal" 
>
</g>

<g fill="none" stroke="#000000" stroke-opacity="1" stroke-width="7" stroke-linecap="round" stroke-linejoin="bevel" transform="matrix(1,0,0,1,3500,2500)"
font-family="MS Shell Dlg 2" font-size="27.5167" font-weight="400" font-style="normal" 
>
<path vector-effect="none" fill-rule="evenodd" d="M-2252.98,762 L-2252.98,-762"/>
</g>

<g fill="none" stroke="#000000" stroke-opacity="1" stroke-width="1" stroke-linecap="square" stroke-linejoin="bevel" transform="matrix(1,0,0,1,3500,2500)"
font-family="MS Shell Dlg 2" font-size="27.5167" font-weight="400" font-style="normal" 
>
</g>

<g fill="none" stroke="#000000" stroke-opacity="1" stroke-width="1" stroke-linecap="square" stroke-linejoin="bevel" transform="matrix(1,0,0,1,3500,2500)"
font-family="MS Shell Dlg 2" font-size="27.5167" font-weight="400" font-style="normal" 
>
</g>

<g fill="none" stroke="#000000" stroke-opacity="1" stroke-width="7" stroke-linecap="round" stroke-linejoin="bevel" transform="matrix(1,0,0,1,3500,2500)"
font-family="MS Shell Dlg 2" font-size="27.5167" font-weight="400" font-style="normal" 
>
<path vector-effect="none" fill-rule="evenodd" d="M2252.98,-762 L2252.98,762"/>
</g>

<g fill="none" stroke="#000000" stroke-opacity="1" stroke-width="1" stroke-linecap="square" stroke-linejoin="bevel" transform="matrix(1,0,0,1,3500,2500)"
font-family="MS Shell Dlg 2" font-size="27.5167" font-weight="400" font-style="normal" 
>
</g>

<g fill="none" stroke="#000000" stroke-opacity="1" stroke-width="1" stroke-linecap="square" stroke-linejoin="bevel" transform="matrix(1,0,0,1,3500,2500)"
font-family="MS Shell Dlg 2" font-size="27.5167" font-weight="400" font-style="normal" 
>
</g>

<g fill="none" stroke="#000000" stroke-opacity="1" stroke-width="7" stroke-linecap="round" stroke-linejoin="bevel" transform="matrix(1,0,0,1,3500,2500)"
font-family="MS Shell Dlg 2" font-size="27.5167" font-weight="400" font-style="normal" 
>
<path vector-effect="none" fill-rule="evenodd" d="M-2252.98,762 L-1704.16,762"/>
</g>

<g fill="none" stroke="#000000" stroke-opacity="1" stroke-width="1" stroke-linecap="square" stroke-linejoin="bevel" transform="matrix(1,0,0,1,3500,2500)"
font-family="MS Shell Dlg 2" font-size="27.5167" font-weight="400" font-style="normal" 
>
</g>

<g fill="none" stroke="#000000" stroke-opacity="1" stroke-width="1" stroke-linecap="square" stroke-linejoin="bevel" transform="matrix(1,0,0,1,3500,2500)"
font-family="MS Shell Dlg 2" font-size="27.5167" font-weight="400" font-style="normal" 
>
</g>

<g fill="none" stroke="#000000" stroke-opacity="1" stroke-width="7" stroke-linecap="round" stroke-linejoin="bevel" transform="matrix(1,0,0,1,3500,2500)"
font-family="MS Shell Dlg 2" font-size="27.5167" font-weight="400" font-style="normal" 
>
<path vector-effect="none" fill-rule="evenodd" d="M-1704.11,761.952 C-1704.13,761.968 -1704.14,761.984 -1704.16,762 "/>
</g>

<g fill="none" stroke="#000000" stroke-opacity="1" stroke-width="1" stroke-linecap="square" stroke-linejoin="bevel" transform="matrix(1,0,0,1,3500,2500)"
font-family="MS Shell Dlg 2" font-size="27.5167" font-weight="400" font-style="normal" 
>
</g>

<g fill="none" stroke="#000000" stroke-opacity="1" stroke-width="1" stroke-linecap="square" stroke-linejoin="bevel" transform="matrix(1,0,0,1,3500,2500)"
font-family="MS Shell Dlg 2" font-size="27.5167" font-weight="400" font-style="normal" 
>
</g>

<g fill="none" stroke="#000000" stroke-opacity="1" stroke-width="7" stroke-linecap="round" stroke-linejoin="bevel" transform="matrix(1,0,0,1,3500,2500)"
font-family="MS Shell Dlg 2" font-size="27.5167" font-weight="400" font-style="normal" 
>
<path vector-effect="none" fill-rule="evenodd" d="M-1662.45,576.064 L-1704.11,761.952"/>
</g>

<g fill="none" stroke="#000000" stroke-opacity="1" stroke-width="1" stroke-linecap="square" stroke-linejoin="bevel" transform="matrix(1,0,0,1,3500,2500)"
font-family="MS Shell Dlg 2" font-size="27.5167" font-weight="400" font-style="normal" 
>
</g>

<g fill="none" stroke="#000000" stroke-opacity="1" stroke-width="1" stroke-linecap="square" stroke-linejoin="bevel" transform="matrix(1,0,0,1,3500,2500)"
font-family="MS Shell Dlg 2" font-size="27.5167" font-weight="400" font-style="normal" 
>
</g>

<g fill="none" stroke="#000000" stroke-opacity="1" stroke-width="7" stroke-linecap="round" stroke-linejoin="bevel" transform="matrix(1,0,0,1,3500,2500)"
font-family="MS Shell Dlg 2" font-size="27.5167" font-weight="400" font-style="normal" 
>
<path vector-effect="none" fill-rule="evenodd" d="M-1512.24,546.782 L-1662.45,576.064"/>
</g>

<g fill="none" stroke="#000000" stroke-opacity="1" stroke-width="1" stroke-linecap="square" stroke-linejoin="bevel" transform="matrix(1,0,0,1,3500,2500)"
font-family="MS Shell Dlg 2" font-size="27.5167" font-weight="400" font-style="normal" 
>
</g>

<g fill="none" stroke="#000000" stroke-opacity="1" stroke-width="1" stroke-linecap="square" stroke-linejoin="bevel" transform="matrix(1,0,0,1,3500,2500)"
font-family="MS Shell Dlg 2" font-size="27.5167" font-weight="400" font-style="normal" 
>
</g>

<g fill="none" stroke="#000000" stroke-opacity="1" stroke-width="7" stroke-linecap="round" stroke-linejoin="bevel" transform="matrix(1,0,0,1,3500,2500)"
font-family="MS Shell Dlg 2" font-size="27.5167" font-weight="400" font-style="normal" 
>
<path vector-effect="none" fill-rule="evenodd" d="M-1462.39,402.088 L-1512.24,546.782"/>
</g>

<g fill="none" stroke="#000000" stroke-opacity="1" stroke-width="1" stroke-linecap="square" stroke-linejoin="bevel" transform="matrix(1,0,0,1,3500,2500)"
font-family="MS Shell Dlg 2" font-size="27.5167" font-weight="400" font-style="normal" 
>
</g>

<g fill="none" stroke="#000000" stroke-opacity="1" stroke-width="1" stroke-linecap="square" stroke-linejoin="bevel" transform="matrix(1,0,0,1,3500,2500)"
font-family="MS Shell Dlg 2" font-size="27.5167" font-weight="400" font-style="normal" 
>
</g>

<g fill="none" stroke="#000000" stroke-opacity="1" stroke-width="7" stroke-linecap="round" stroke-linejoin="bevel" transform="matrix(1,0,0,1,3500,2500)"
font-family="MS Shell Dlg 2" font-size="27.5167" font-weight="400" font-style="normal" 
>
<path vector-effect="none" fill-rule="evenodd" d="M-1309.86,389.661 L-1462.39,402.088"/>
</g>

<g fill="none" stroke="#000000" stroke-opacity="1" stroke-width="1" stroke-linecap="square" stroke-linejoin="bevel" transform="matrix(1,0,0,1,3500,2500)"
font-family="MS Shell Dlg 2" font-size="27.5167" font-weight="400" font-style="normal" 
>
</g>

<g fill="none" stroke="#000000" stroke-opacity="1" stroke-width="1" stroke-linecap="square" stroke-linejoin="bevel" transform="matrix(1,0,0,1,3500,2500)"
font-family="MS Shell Dlg 2" font-size="27.5167" font-weight="400" font-style="normal" 
>
</g>

<g fill="none" stroke="#000000" stroke-opacity="1" stroke-width="7" stroke-linecap="round" stroke-linejoin="bevel" transform="matrix(1,0,0,1,3500,2500)"
font-family="MS Shell Dlg 2" font-size="27.5167" font-weight="400" font-style="normal" 
>
<path vector-effect="none" fill-rule="evenodd" d="M-1244.26,251.395 L-1309.86,389.661"/>
</g>

<g fill="none" stroke="#000000" stroke-opacity="1" stroke-width="1" stroke-linecap="square" stroke-linejoin="bevel" transform="matrix(1,0,0,1,3500,2500)"
font-family="MS Shell Dlg 2" font-size="27.5167" font-weight="400" font-style="normal" 
>
</g>

<g fill="none" stroke="#000000" stroke-opacity="1" stroke-width="1" stroke-linecap="square" stroke-linejoin="bevel" transform="matrix(1,0,0,1,3500,2500)"
font-family="MS Shell Dlg 2" font-size="27.5167" font-weight="400" font-style="normal" 
>
</g>

<g fill="none" stroke="#000000" stroke-opacity="1" stroke-width="7" stroke-linecap="round" stroke-linejoin="bevel" transform="matrix(1,0,0,1,3500,2500)"
font-family="MS Shell Dlg 2" font-size="27.5167" font-weight="400" font-style="normal" 
>
<path vector-effect="none" fill-rule="evenodd" d="M-1091.29,255.976 L-1244.26,251.395"/>
</g>

<g fill="none" stroke="#000000" stroke-opacity="1" stroke-width="1" stroke-linecap="square" stroke-linejoin="bevel" transform="matrix(1,0,0,1,3500,2500)"
font-family="MS Shell Dlg 2" font-size="27.5167" font-weight="400" font-style="normal" 
>
</g>

<g fill="none" stroke="#000000" stroke-opacity="1" stroke-width="1" stroke-linecap="square" stroke-linejoin="bevel" transform="matrix(1,0,0,1,3500,2500)"
font-family="MS Shell Dlg 2" font-size="27.5167" font-weight="400" font-style="normal" 
>
</g>

<g fill="none" stroke="#000000" stroke-opacity="1" stroke-width="7" stroke-linecap="round" stroke-linejoin="bevel" transform="matrix(1,0,0,1,3500,2500)"
font-family="MS Shell Dlg 2" font-size="27.5167" font-weight="400" font-style="normal" 
>
<path vector-effect="none" fill-rule="evenodd" d="M-1010.75,125.846 L-1091.29,255.976"/>
</g>

<g fill="none" stroke="#000000" stroke-opacity="1" stroke-width="1" stroke-linecap="square" stroke-linejoin="bevel" transform="matrix(1,0,0,1,3500,2500)"
font-family="MS Shell Dlg 2" font-size="27.5167" font-weight="400" font-style="normal" 
>
</g>

<g fill="none" stroke="#000000" stroke-opacity="1" stroke-width="1" stroke-linecap="square" stroke-linejoin="bevel" transform="matrix(1,0,0,1,3500,2500)"
font-family="MS Shell Dlg 2" font-size="27.5167" font-weight="400" font-style="normal" 
>
</g>

<g fill="none" stroke="#000000" stroke-opacity="1" stroke-width="7" stroke-linecap="round" stroke-linejoin="bevel" transform="matrix(1,0,0,1,3500,2500)"
font-family="MS Shell Dlg 2" font-size="27.5167" font-weight="400" font-style="normal" 
>
<path vector-effect="none" fill-rule="evenodd" d="M-859.237,147.38 L-1010.75,125.846"/>
</g>

<g fill="none" stroke="#000000" stroke-opacity="1" stroke-width="1" stroke-linecap="square" stroke-linejoin="bevel" transform="matrix(1,0,0,1,3500,2500)"
font-family="MS Shell Dlg 2" font-size="27.5167" font-weight="400" font-style="normal" 
>
</g>

<g fill="none" stroke="#000000" stroke-opacity="1" stroke-width="1" stroke-linecap="square" stroke-linejoin="bevel" transform="matrix(1,0,0,1,3500,2500)"
font-family="MS Shell Dlg 2" font-size="27.5167" font-weight="400" font-style="normal" 
>
</g>

<g fill="none" stroke="#000000" stroke-opacity="1" stroke-width="7" stroke-linecap="round" stroke-linejoin="bevel" transform="matrix(1,0,0,1,3500,2500)"
font-family="MS Shell Dlg 2" font-size="27.5167" font-weight="400" font-style="normal" 
>
<path vector-effect="none" fill-rule="evenodd" d="M-764.749,26.9946 L-859.237,147.38"/>
</g>

<g fill="none" stroke="#000000" stroke-opacity="1" stroke-width="1" stroke-linecap="square" stroke-linejoin="bevel" transform="matrix(1,0,0,1,3500,2500)"
font-family="MS Shell Dlg 2" font-size="27.5167" font-weight="400" font-style="normal" 
>
</g>

<g fill="none" stroke="#000000" stroke-opacity="1" stroke-width="1" stroke-linecap="square" stroke-linejoin="bevel" transform="matrix(1,0,0,1,3500,2500)"
font-family="MS Shell Dlg 2" font-size="27.5167" font-weight="400" font-style="normal" 
>
</g>

<g fill="none" stroke="#000000" stroke-opacity="1" stroke-width="7" stroke-linecap="round" stroke-linejoin="bevel" transform="matrix(1,0,0,1,3500,2500)"
font-family="MS Shell Dlg 2" font-size="27.5167" font-weight="400" font-style="normal" 
>
<path vector-effect="none" fill-rule="evenodd" d="M-616.56,65.2144 L-764.749,26.9946"/>
</g>

<g fill="none" stroke="#000000" stroke-opacity="1" stroke-width="1" stroke-linecap="square" stroke-linejoin="bevel" transform="matrix(1,0,0,1,3500,2500)"
font-family="MS Shell Dlg 2" font-size="27.5167" font-weight="400" font-style="normal" 
>
</g>

<g fill="none" stroke="#000000" stroke-opacity="1" stroke-width="1" stroke-linecap="square" stroke-linejoin="bevel" transform="matrix(1,0,0,1,3500,2500)"
font-family="MS Shell Dlg 2" font-size="27.5167" font-weight="400" font-style="normal" 
>
</g>

<g fill="none" stroke="#000000" stroke-opacity="1" stroke-width="7" stroke-linecap="round" stroke-linejoin="bevel" transform="matrix(1,0,0,1,3500,2500)"
font-family="MS Shell Dlg 2" font-size="27.5167" font-weight="400" font-style="normal" 
>
<path vector-effect="none" fill-rule="evenodd" d="M-509.292,-43.938 L-616.56,65.2144"/>
</g>

<g fill="none" stroke="#000000" stroke-opacity="1" stroke-width="1" stroke-linecap="square" stroke-linejoin="bevel" transform="matrix(1,0,0,1,3500,2500)"
font-family="MS Shell Dlg 2" font-size="27.5167" font-weight="400" font-style="normal" 
>
</g>

<g fill="none" stroke="#000000" stroke-opacity="1" stroke-width="1" stroke-linecap="square" stroke-linejoin="bevel" transform="matrix(1,0,0,1,3500,2500)"
font-family="MS Shell Dlg 2" font-size="27.5167" font-weight="400" font-style="normal" 
>
</g>

<g fill="none" stroke="#000000" stroke-opacity="1" stroke-width="7" stroke-linecap="round" stroke-linejoin="bevel" transform="matrix(1,0,0,1,3500,2500)"
font-family="MS Shell Dlg 2" font-size="27.5167" font-weight="400" font-style="normal" 
>
<path vector-effect="none" fill-rule="evenodd" d="M-366.262,10.4955 L-509.292,-43.938"/>
</g>

<g fill="none" stroke="#000000" stroke-opacity="1" stroke-width="1" stroke-linecap="square" stroke-linejoin="bevel" transform="matrix(1,0,0,1,3500,2500)"
font-family="MS Shell Dlg 2" font-size="27.5167" font-weight="400" font-style="normal" 
>
</g>

<g fill="none" stroke="#000000" stroke-opacity="1" stroke-width="1" stroke-linecap="square" stroke-linejoin="bevel" transform="matrix(1,0,0,1,3500,2500)"
font-family="MS Shell Dlg 2" font-size="27.5167" font-weight="400" font-style="normal" 
>
</g>

<g fill="none" stroke="#000000" stroke-opacity="1" stroke-width="7" stroke-linecap="round" stroke-linejoin="bevel" transform="matrix(1,0,0,1,3500,2500)"
font-family="MS Shell Dlg 2" font-size="27.5167" font-weight="400" font-style="normal" 
>
<path vector-effect="none" fill-rule="evenodd" d="M-247.541,-86.0748 L-366.262,10.4955"/>
</g>

<g fill="none" stroke="#000000" stroke-opacity="1" stroke-width="1" stroke-linecap="square" stroke-linejoin="bevel" transform="matrix(1,0,0,1,3500,2500)"
font-family="MS Shell Dlg 2" font-size="27.5167" font-weight="400" font-style="normal" 
>
</g>

<g fill="none" stroke="#000000" stroke-opacity="1" stroke-width="1" stroke-linecap="square" stroke-linejoin="bevel" transform="matrix(1,0,0,1,3500,2500)"
font-family="MS Shell Dlg 2" font-size="27.5167" font-weight="400" font-style="normal" 
>
</g>

<g fill="none" stroke="#000000" stroke-opacity="1" stroke-width="7" stroke-linecap="round" stroke-linejoin="bevel" transform="matrix(1,0,0,1,3500,2500)"
font-family="MS Shell Dlg 2" font-size="27.5167" font-weight="400" font-style="normal" 
>
<path vector-effect="none" fill-rule="evenodd" d="M-111.437,-16.1005 L-247.541,-86.0748"/>
</g>

<g fill="none" stroke="#000000" stroke-opacity="1" stroke-width="1" stroke-linecap="square" stroke-linejoin="bevel" transform="matrix(1,0,0,1,3500,2500)"
font-family="MS Shell Dlg 2" font-size="27.5167" font-weight="400" font-style="normal" 
>
</g>

<g fill="none" stroke="#000000" stroke-opacity="1" stroke-width="1" stroke-linecap="square" stroke-linejoin="bevel" transform="matrix(1,0,0,1,3500,2500)"
font-family="MS Shell Dlg 2" font-size="27.5167" font-weight="400" font-style="normal" 
>
</g>

<g fill="none" stroke="#000000" stroke-opacity="1" stroke-width="7" stroke-linecap="round" stroke-linejoin="bevel" transform="matrix(1,0,0,1,3500,2500)"
font-family="MS Shell Dlg 2" font-size="27.5167" font-weight="400" font-style="normal" 
>
<path vector-effect="none" fill-rule="evenodd" d="M17.2706,-98.8952 L-111.437,-16.1005"/>
</g>

<g fill="none" stroke="#000000" stroke-opacity="1" stroke-width="1" stroke-linecap="square" stroke-linejoin="bevel" transform="matrix(1,0,0,1,3500,2500)"
font-family="MS Shell Dlg 2" font-size="27.5167" font-weight="400" font-style="normal" 
>
</g>

<g fill="none" stroke="#000000" stroke-opacity="1" stroke-width="1" stroke-linecap="square" stroke-linejoin="bevel" transform="matrix(1,0,0,1,3500,2500)"
font-family="MS Shell Dlg 2" font-size="27.5167" font-weight="400" font-style="normal" 
>
</g>

<g fill="none" stroke="#000000" stroke-opacity="1" stroke-width="7" stroke-linecap="round" stroke-linejoin="bevel" transform="matrix(1,0,0,1,3500,2500)"
font-family="MS Shell Dlg 2" font-size="27.5167" font-weight="400" font-style="normal" 
>
<path vector-effect="none" fill-rule="evenodd" d="M144.766,-14.245 L17.2706,-98.8952"/>
</g>

<g fill="none" stroke="#000000" stroke-opacity="1" stroke-width="1" stroke-linecap="square" stroke-linejoin="bevel" transform="matrix(1,0,0,1,3500,2500)"
font-family="MS Shell Dlg 2" font-size="27.5167" font-weight="400" font-style="normal" 
>
</g>

<g fill="none" stroke="#000000" stroke-opacity="1" stroke-width="1" stroke-linecap="square" stroke-linejoin="bevel" transform="matrix(1,0,0,1,3500,2500)"
font-family="MS Shell Dlg 2" font-size="27.5167" font-weight="400" font-style="normal" 
>
</g>

<g fill="none" stroke="#000000" stroke-opacity="1" stroke-width="7" stroke-linecap="round" stroke-linejoin="bevel" transform="matrix(1,0,0,1,3500,2500)"
font-family="MS Shell Dlg 2" font-size="27.5167" font-weight="400" font-style="normal" 
>
<path vector-effect="none" fill-rule="evenodd" d="M281.868,-82.2405 L144.766,-14.245"/>
</g>

<g fill="none" stroke="#000000" stroke-opacity="1" stroke-width="1" stroke-linecap="square" stroke-linejoin="bevel" transform="matrix(1,0,0,1,3500,2500)"
font-family="MS Shell Dlg 2" font-size="27.5167" font-weight="400" font-style="normal" 
>
</g>

<g fill="none" stroke="#000000" stroke-opacity="1" stroke-width="1" stroke-linecap="square" stroke-linejoin="bevel" transform="matrix(1,0,0,1,3500,2500)"
font-family="MS Shell Dlg 2" font-size="27.5167" font-weight="400" font-style="normal" 
>
</g>

<g fill="none" stroke="#000000" stroke-opacity="1" stroke-width="7" stroke-linecap="round" stroke-linejoin="bevel" transform="matrix(1,0,0,1,3500,2500)"
font-family="MS Shell Dlg 2" font-size="27.5167" font-weight="400" font-style="normal" 
>
<path vector-effect="none" fill-rule="evenodd" d="M399.179,16.0393 L281.868,-82.2405"/>
</g>

<g fill="none" stroke="#000000" stroke-opacity="1" stroke-width="1" stroke-linecap="square" stroke-linejoin="bevel" transform="matrix(1,0,0,1,3500,2500)"
font-family="MS Shell Dlg 2" font-size="27.5167" font-weight="400" font-style="normal" 
>
</g>

<g fill="none" stroke="#000000" stroke-opacity="1" stroke-width="1" stroke-linecap="square" stroke-linejoin="bevel" transform="matrix(1,0,0,1,3500,2500)"
font-family="MS Shell Dlg 2" font-size="27.5167" font-weight="400" font-style="normal" 
>
</g>

<g fill="none" stroke="#000000" stroke-opacity="1" stroke-width="7" stroke-linecap="round" stroke-linejoin="bevel" transform="matrix(1,0,0,1,3500,2500)"
font-family="MS Shell Dlg 2" font-size="27.5167" font-weight="400" font-style="normal" 
>
<path vector-effect="none" fill-rule="evenodd" d="M542.982,-36.3168 L399.179,16.0393"/>
</g>

<g fill="none" stroke="#000000" stroke-opacity="1" stroke-width="1" stroke-linecap="square" stroke-linejoin="bevel" transform="matrix(1,0,0,1,3500,2500)"
font-family="MS Shell Dlg 2" font-size="27.5167" font-weight="400" font-style="normal" 
>
</g>

<g fill="none" stroke="#000000" stroke-opacity="1" stroke-width="1" stroke-linecap="square" stroke-linejoin="bevel" transform="matrix(1,0,0,1,3500,2500)"
font-family="MS Shell Dlg 2" font-size="27.5167" font-weight="400" font-style="normal" 
>
</g>

<g fill="none" stroke="#000000" stroke-opacity="1" stroke-width="7" stroke-linecap="round" stroke-linejoin="bevel" transform="matrix(1,0,0,1,3500,2500)"
font-family="MS Shell Dlg 2" font-size="27.5167" font-weight="400" font-style="normal" 
>
<path vector-effect="none" fill-rule="evenodd" d="M648.658,74.3778 L542.982,-36.3168"/>
</g>

<g fill="none" stroke="#000000" stroke-opacity="1" stroke-width="1" stroke-linecap="square" stroke-linejoin="bevel" transform="matrix(1,0,0,1,3500,2500)"
font-family="MS Shell Dlg 2" font-size="27.5167" font-weight="400" font-style="normal" 
>
</g>

<g fill="none" stroke="#000000" stroke-opacity="1" stroke-width="1" stroke-linecap="square" stroke-linejoin="bevel" transform="matrix(1,0,0,1,3500,2500)"
font-family="MS Shell Dlg 2" font-size="27.5167" font-weight="400" font-style="normal" 
>
</g>

<g fill="none" stroke="#000000" stroke-opacity="1" stroke-width="7" stroke-linecap="round" stroke-linejoin="bevel" transform="matrix(1,0,0,1,3500,2500)"
font-family="MS Shell Dlg 2" font-size="27.5167" font-weight="400" font-style="normal" 
>
<path vector-effect="none" fill-rule="evenodd" d="M797.384,38.3085 L648.658,74.3778"/>
</g>

<g fill="none" stroke="#000000" stroke-opacity="1" stroke-width="1" stroke-linecap="square" stroke-linejoin="bevel" transform="matrix(1,0,0,1,3500,2500)"
font-family="MS Shell Dlg 2" font-size="27.5167" font-weight="400" font-style="normal" 
>
</g>

<g fill="none" stroke="#000000" stroke-opacity="1" stroke-width="1" stroke-linecap="square" stroke-linejoin="bevel" transform="matrix(1,0,0,1,3500,2500)"
font-family="MS Shell Dlg 2" font-size="27.5167" font-weight="400" font-style="normal" 
>
</g>

<g fill="none" stroke="#000000" stroke-opacity="1" stroke-width="7" stroke-linecap="round" stroke-linejoin="bevel" transform="matrix(1,0,0,1,3500,2500)"
font-family="MS Shell Dlg 2" font-size="27.5167" font-weight="400" font-style="normal" 
>
<path vector-effect="none" fill-rule="evenodd" d="M890.119,160.05 L797.384,38.3085"/>
</g>

<g fill="none" stroke="#000000" stroke-opacity="1" stroke-width="1" stroke-linecap="square" stroke-linejoin="bevel" transform="matrix(1,0,0,1,3500,2500)"
font-family="MS Shell Dlg 2" font-size="27.5167" font-weight="400" font-style="normal" 
>
</g>

<g fill="none" stroke="#000000" stroke-opacity="1" stroke-width="1" stroke-linecap="square" stroke-linejoin="bevel" transform="matrix(1,0,0,1,3500,2500)"
font-family="MS Shell Dlg 2" font-size="27.5167" font-weight="400" font-style="normal" 
>
</g>

<g fill="none" stroke="#000000" stroke-opacity="1" stroke-width="7" stroke-linecap="round" stroke-linejoin="bevel" transform="matrix(1,0,0,1,3500,2500)"
font-family="MS Shell Dlg 2" font-size="27.5167" font-weight="400" font-style="normal" 
>
<path vector-effect="none" fill-rule="evenodd" d="M1041.93,140.713 L890.119,160.05"/>
</g>

<g fill="none" stroke="#000000" stroke-opacity="1" stroke-width="1" stroke-linecap="square" stroke-linejoin="bevel" transform="matrix(1,0,0,1,3500,2500)"
font-family="MS Shell Dlg 2" font-size="27.5167" font-weight="400" font-style="normal" 
>
</g>

<g fill="none" stroke="#000000" stroke-opacity="1" stroke-width="1" stroke-linecap="square" stroke-linejoin="bevel" transform="matrix(1,0,0,1,3500,2500)"
font-family="MS Shell Dlg 2" font-size="27.5167" font-weight="400" font-style="normal" 
>
</g>

<g fill="none" stroke="#000000" stroke-opacity="1" stroke-width="7" stroke-linecap="round" stroke-linejoin="bevel" transform="matrix(1,0,0,1,3500,2500)"
font-family="MS Shell Dlg 2" font-size="27.5167" font-weight="400" font-style="normal" 
>
<path vector-effect="none" fill-rule="evenodd" d="M1120.58,271.996 L1041.93,140.713"/>
</g>

<g fill="none" stroke="#000000" stroke-opacity="1" stroke-width="1" stroke-linecap="square" stroke-linejoin="bevel" transform="matrix(1,0,0,1,3500,2500)"
font-family="MS Shell Dlg 2" font-size="27.5167" font-weight="400" font-style="normal" 
>
</g>

<g fill="none" stroke="#000000" stroke-opacity="1" stroke-width="1" stroke-linecap="square" stroke-linejoin="bevel" transform="matrix(1,0,0,1,3500,2500)"
font-family="MS Shell Dlg 2" font-size="27.5167" font-weight="400" font-style="normal" 
>
</g>

<g fill="none" stroke="#000000" stroke-opacity="1" stroke-width="7" stroke-linecap="round" stroke-linejoin="bevel" transform="matrix(1,0,0,1,3500,2500)"
font-family="MS Shell Dlg 2" font-size="27.5167" font-weight="400" font-style="normal" 
>
<path vector-effect="none" fill-rule="evenodd" d="M1273.6,269.63 L1120.58,271.996"/>
</g>

<g fill="none" stroke="#000000" stroke-opacity="1" stroke-width="1" stroke-linecap="square" stroke-linejoin="bevel" transform="matrix(1,0,0,1,3500,2500)"
font-family="MS Shell Dlg 2" font-size="27.5167" font-weight="400" font-style="normal" 
>
</g>

<g fill="none" stroke="#000000" stroke-opacity="1" stroke-width="1" stroke-linecap="square" stroke-linejoin="bevel" transform="matrix(1,0,0,1,3500,2500)"
font-family="MS Shell Dlg 2" font-size="27.5167" font-weight="400" font-style="normal" 
>
</g>

<g fill="none" stroke="#000000" stroke-opacity="1" stroke-width="7" stroke-linecap="round" stroke-linejoin="bevel" transform="matrix(1,0,0,1,3500,2500)"
font-family="MS Shell Dlg 2" font-size="27.5167" font-weight="400" font-style="normal" 
>
<path vector-effect="none" fill-rule="evenodd" d="M1337.19,408.832 L1273.6,269.63"/>
</g>

<g fill="none" stroke="#000000" stroke-opacity="1" stroke-width="1" stroke-linecap="square" stroke-linejoin="bevel" transform="matrix(1,0,0,1,3500,2500)"
font-family="MS Shell Dlg 2" font-size="27.5167" font-weight="400" font-style="normal" 
>
</g>

<g fill="none" stroke="#000000" stroke-opacity="1" stroke-width="1" stroke-linecap="square" stroke-linejoin="bevel" transform="matrix(1,0,0,1,3500,2500)"
font-family="MS Shell Dlg 2" font-size="27.5167" font-weight="400" font-style="normal" 
>
</g>

<g fill="none" stroke="#000000" stroke-opacity="1" stroke-width="7" stroke-linecap="round" stroke-linejoin="bevel" transform="matrix(1,0,0,1,3500,2500)"
font-family="MS Shell Dlg 2" font-size="27.5167" font-weight="400" font-style="normal" 
>
<path vector-effect="none" fill-rule="evenodd" d="M1489.52,423.468 L1337.19,408.832"/>
</g>

<g fill="none" stroke="#000000" stroke-opacity="1" stroke-width="1" stroke-linecap="square" stroke-linejoin="bevel" transform="matrix(1,0,0,1,3500,2500)"
font-family="MS Shell Dlg 2" font-size="27.5167" font-weight="400" font-style="normal" 
>
</g>

<g fill="none" stroke="#000000" stroke-opacity="1" stroke-width="1" stroke-linecap="square" stroke-linejoin="bevel" transform="matrix(1,0,0,1,3500,2500)"
font-family="MS Shell Dlg 2" font-size="27.5167" font-weight="400" font-style="normal" 
>
</g>

<g fill="none" stroke="#000000" stroke-opacity="1" stroke-width="7" stroke-linecap="round" stroke-linejoin="bevel" transform="matrix(1,0,0,1,3500,2500)"
font-family="MS Shell Dlg 2" font-size="27.5167" font-weight="400" font-style="normal" 
>
<path vector-effect="none" fill-rule="evenodd" d="M1537.26,568.868 L1489.52,423.468"/>
</g>

<g fill="none" stroke="#000000" stroke-opacity="1" stroke-width="1" stroke-linecap="square" stroke-linejoin="bevel" transform="matrix(1,0,0,1,3500,2500)"
font-family="MS Shell Dlg 2" font-size="27.5167" font-weight="400" font-style="normal" 
>
</g>

<g fill="none" stroke="#000000" stroke-opacity="1" stroke-width="1" stroke-linecap="square" stroke-linejoin="bevel" transform="matrix(1,0,0,1,3500,2500)"
font-family="MS Shell Dlg 2" font-size="27.5167" font-weight="400" font-style="normal" 
>
</g>

<g fill="none" stroke="#000000" stroke-opacity="1" stroke-width="7" stroke-linecap="round" stroke-linejoin="bevel" transform="matrix(1,0,0,1,3500,2500)"
font-family="MS Shell Dlg 2" font-size="27.5167" font-weight="400" font-style="normal" 
>
<path vector-effect="none" fill-rule="evenodd" d="M1687.04,600.323 L1537.26,568.868"/>
</g>

<g fill="none" stroke="#000000" stroke-opacity="1" stroke-width="1" stroke-linecap="square" stroke-linejoin="bevel" transform="matrix(1,0,0,1,3500,2500)"
font-family="MS Shell Dlg 2" font-size="27.5167" font-weight="400" font-style="normal" 
>
</g>

<g fill="none" stroke="#000000" stroke-opacity="1" stroke-width="1" stroke-linecap="square" stroke-linejoin="bevel" transform="matrix(1,0,0,1,3500,2500)"
font-family="MS Shell Dlg 2" font-size="27.5167" font-weight="400" font-style="normal" 
>
</g>

<g fill="none" stroke="#000000" stroke-opacity="1" stroke-width="7" stroke-linecap="round" stroke-linejoin="bevel" transform="matrix(1,0,0,1,3500,2500)"
font-family="MS Shell Dlg 2" font-size="27.5167" font-weight="400" font-style="normal" 
>
<path vector-effect="none" fill-rule="evenodd" d="M1718.34,750.125 L1687.04,600.323"/>
</g>

<g fill="none" stroke="#000000" stroke-opacity="1" stroke-width="1" stroke-linecap="square" stroke-linejoin="bevel" transform="matrix(1,0,0,1,3500,2500)"
font-family="MS Shell Dlg 2" font-size="27.5167" font-weight="400" font-style="normal" 
>
</g>

<g fill="none" stroke="#000000" stroke-opacity="1" stroke-width="1" stroke-linecap="square" stroke-linejoin="bevel" transform="matrix(1,0,0,1,3500,2500)"
font-family="MS Shell Dlg 2" font-size="27.5167" font-weight="400" font-style="normal" 
>
</g>

<g fill="none" stroke="#000000" stroke-opacity="1" stroke-width="7" stroke-linecap="round" stroke-linejoin="bevel" transform="matrix(1,0,0,1,3500,2500)"
font-family="MS Shell Dlg 2" font-size="27.5167" font-weight="400" font-style="normal" 
>
<path vector-effect="none" fill-rule="evenodd" d="M1754.39,762 L1718.34,750.125"/>
</g>

<g fill="none" stroke="#000000" stroke-opacity="1" stroke-width="1" stroke-linecap="square" stroke-linejoin="bevel" transform="matrix(1,0,0,1,3500,2500)"
font-family="MS Shell Dlg 2" font-size="27.5167" font-weight="400" font-style="normal" 
>
</g>

<g fill="none" stroke="#000000" stroke-opacity="1" stroke-width="1" stroke-linecap="square" stroke-linejoin="bevel" transform="matrix(1,0,0,1,3500,2500)"
font-family="MS Shell Dlg 2" font-size="27.5167" font-weight="400" font-style="normal" 
>
</g>

<g fill="none" stroke="#000000" stroke-opacity="1" stroke-width="7" stroke-linecap="round" stroke-linejoin="bevel" transform="matrix(1,0,0,1,3500,2500)"
font-family="MS Shell Dlg 2" font-size="27.5167" font-weight="400" font-style="normal" 
>
<path vector-effect="none" fill-rule="evenodd" d="M2252.98,762 L1754.39,762"/>
</g>

<g fill="none" stroke="#000000" stroke-opacity="1" stroke-width="1" stroke-linecap="square" stroke-linejoin="bevel" transform="matrix(1,0,0,1,3500,2500)"
font-family="MS Shell Dlg 2" font-size="27.5167" font-weight="400" font-style="normal" 
>
</g>

<g fill="none" stroke="#000000" stroke-opacity="1" stroke-width="1" stroke-linecap="square" stroke-linejoin="bevel" transform="matrix(1,0,0,1,3500,4785.69)"
font-family="MS Shell Dlg 2" font-size="27.5167" font-weight="400" font-style="normal" 
>
</g>

<g fill="#000000" fill-opacity="1" stroke="#000000" stroke-opacity="1" stroke-width="3.5" stroke-linecap="round" stroke-linejoin="bevel" transform="matrix(1,0,0,1,3500,4785.69)"
font-family="MS Shell Dlg 2" font-size="27.5167" font-weight="400" font-style="normal" 
>
<path vector-effect="none" fill-rule="evenodd" d="M0,42 L0,-42 M42,0 L-42,0"/>
</g>

<g fill="none" stroke="#000000" stroke-opacity="1" stroke-width="1" stroke-linecap="square" stroke-linejoin="bevel" transform="matrix(1,0,0,1,3500,4785.69)"
font-family="MS Shell Dlg 2" font-size="27.5167" font-weight="400" font-style="normal" 
>
</g>

<g fill="none" stroke="#000000" stroke-opacity="1" stroke-width="1" stroke-linecap="square" stroke-linejoin="bevel" transform="matrix(1,0,0,1,0,0)"
font-family="MS Shell Dlg 2" font-size="27.5167" font-weight="400" font-style="normal" 
>
</g>
</g>
</svg>
