  0
SECTION
  2
HEADER
  9
$ACADVER
  1
AC1009
  9
$INSBASE
 10
0.0
 20
0.0
 30
0.0
  9
$EXTMIN
 10
0.0
 20
0.0
 30
0.0
  9
$EXTMAX
 10
0.0
 20
0.0
 30
0.0
  0
ENDSEC
  0
SECTION
  2
TABLES
  0
TABLE
  2
VPORT
 70
0
  0
ENDTAB
  0
TABLE
  2
LTYPE
 70
1
  0
LTYPE
  2
CONTINUOUS
 70
0
  3
Solid line
 72
65
 73
0
 40
0.0
  0
ENDTAB
  0
TABLE
  2
LAYER
 70
1
  0
LAYER
  2
0
 70
64
 62
7
  6
continuous
  0
ENDTAB
  0
TABLE
  2
STYLE
 70
1
  0
STYLE
  2
STANDARD
 70
0
 40
0
 41
1.0
 50
0.0
 71
0
 42
1
 3
ARIAL.TTF
 4

  0
ENDTAB
  0
TABLE
  2
VIEW
 70
0
  0
ENDTAB
  0
ENDSEC
  0
SECTION
  2
BLOCKS
  0
BLOCK
  8
0
  2
PAD
 70
0
 10
0.0
 20
0.0
 30
0.0
  3
PAD
  0
ARC
  8
0
 62
0
 10
-506.73
 20
290.677658
 30
0.0
 40
38.1
 50
-178.778733868
 51
-5.07724241466
  0
POLYLINE
  8
0
 62
0
 70
0
 66
1
 10
0.0
 20
0.0
 30
0.0
  0
VERTEX
  8
0
 10
-468.779493153
 20
287.305858767
 30
0.0
  0
VERTEX
  8
0
 10
-468.204842199
 20
297.70250444
 30
0.0
  0
VERTEX
  8
0
 10
-467.628952993
 20
307.984739826
 30
0.0
  0
VERTEX
  8
0
 10
-467.05154869
 20
318.153206748
 30
0.0
  0
VERTEX
  8
0
 10
-466.472352444
 20
328.20854703
 30
0.0
  0
VERTEX
  8
0
 10
-465.89108741
 20
338.151402496
 30
0.0
  0
VERTEX
  8
0
 10
-465.307476742
 20
347.982414968
 30
0.0
  0
VERTEX
  8
0
 10
-464.721243596
 20
357.70222627
 30
0.0
  0
VERTEX
  8
0
 10
-464.132111125
 20
367.311478226
 30
0.0
  0
VERTEX
  8
0
 10
-463.539802484
 20
376.810812659
 30
0.0
  0
VERTEX
  8
0
 10
-462.944040828
 20
386.200871392
 30
0.0
  0
VERTEX
  8
0
 10
-462.344549311
 20
395.482296249
 30
0.0
  0
VERTEX
  8
0
 10
-461.741051088
 20
404.655729053
 30
0.0
  0
VERTEX
  8
0
 10
-461.133269313
 20
413.721811628
 30
0.0
  0
VERTEX
  8
0
 10
-460.520927141
 20
422.681185796
 30
0.0
  0
VERTEX
  8
0
 10
-459.903747727
 20
431.534493382
 30
0.0
  0
VERTEX
  8
0
 10
-459.281454224
 20
440.282376209
 30
0.0
  0
VERTEX
  8
0
 10
-458.653769789
 20
448.9254761
 30
0.0
  0
VERTEX
  8
0
 10
-458.020417574
 20
457.464434878
 30
0.0
  0
VERTEX
  8
0
 10
-457.381120735
 20
465.899894368
 30
0.0
  0
VERTEX
  8
0
 10
-456.735602427
 20
474.232496392
 30
0.0
  0
VERTEX
  8
0
 10
-456.083585803
 20
482.462882773
 30
0.0
  0
VERTEX
  8
0
 10
-455.424794019
 20
490.591695336
 30
0.0
  0
VERTEX
  8
0
 10
-454.758950229
 20
498.619575904
 30
0.0
  0
VERTEX
  8
0
 10
-454.085777587
 20
506.547166299
 30
0.0
  0
VERTEX
  8
0
 10
-453.404999248
 20
514.375108346
 30
0.0
  0
VERTEX
  8
0
 10
-452.716338367
 20
522.104043868
 30
0.0
  0
VERTEX
  8
0
 10
-452.019518098
 20
529.734614688
 30
0.0
  0
VERTEX
  8
0
 10
-451.314261597
 20
537.26746263
 30
0.0
  0
VERTEX
  8
0
 10
-450.600292016
 20
544.703229517
 30
0.0
  0
VERTEX
  8
0
 10
-449.877332511
 20
552.042557172
 30
0.0
  0
VERTEX
  8
0
 10
-449.145106237
 20
559.286087419
 30
0.0
  0
VERTEX
  8
0
 10
-448.403336348
 20
566.434462081
 30
0.0
  0
VERTEX
  8
0
 10
-447.651745998
 20
573.488322983
 30
0.0
  0
VERTEX
  8
0
 10
-446.890058342
 20
580.448311946
 30
0.0
  0
VERTEX
  8
0
 10
-446.117996535
 20
587.315070794
 30
0.0
  0
VERTEX
  8
0
 10
-445.335283732
 20
594.089241352
 30
0.0
  0
VERTEX
  8
0
 10
-444.541643086
 20
600.771465442
 30
0.0
  0
VERTEX
  8
0
 10
-443.736797753
 20
607.362384888
 30
0.0
  0
VERTEX
  8
0
 10
-442.920470886
 20
613.862641513
 30
0.0
  0
VERTEX
  8
0
 10
-442.092385642
 20
620.27287714
 30
0.0
  0
VERTEX
  8
0
 10
-441.252265173
 20
626.593733593
 30
0.0
  0
VERTEX
  8
0
 10
-440.399832635
 20
632.825852696
 30
0.0
  0
VERTEX
  8
0
 10
-439.534811182
 20
638.969876271
 30
0.0
  0
VERTEX
  8
0
 10
-438.656923968
 20
645.026446143
 30
0.0
  0
VERTEX
  8
0
 10
-437.765894149
 20
650.996204134
 30
0.0
  0
VERTEX
  8
0
 10
-436.861444879
 20
656.879792068
 30
0.0
  0
VERTEX
  8
0
 10
-435.943299313
 20
662.677851769
 30
0.0
  0
VERTEX
  8
0
 10
-435.011180604
 20
668.391025059
 30
0.0
  0
VERTEX
  8
0
 10
-434.064811908
 20
674.019953763
 30
0.0
  0
VERTEX
  8
0
 10
-433.103916379
 20
679.565279703
 30
0.0
  0
VERTEX
  8
0
 10
-432.128217172
 20
685.027644703
 30
0.0
  0
VERTEX
  8
0
 10
-431.137437441
 20
690.407690587
 30
0.0
  0
VERTEX
  8
0
 10
-430.131300341
 20
695.706059177
 30
0.0
  0
VERTEX
  8
0
 10
-429.109529026
 20
700.923392298
 30
0.0
  0
VERTEX
  8
0
 10
-428.071846651
 20
706.060331772
 30
0.0
  0
VERTEX
  8
0
 10
-427.01797637
 20
711.117519424
 30
0.0
  0
VERTEX
  8
0
 10
-425.947641339
 20
716.095597076
 30
0.0
  0
VERTEX
  8
0
 10
-424.860564711
 20
720.995206551
 30
0.0
  0
VERTEX
  8
0
 10
-423.756469642
 20
725.816989674
 30
0.0
  0
VERTEX
  8
0
 10
-422.635079285
 20
730.561588268
 30
0.0
  0
VERTEX
  8
0
 10
-421.496116795
 20
735.229644156
 30
0.0
  0
VERTEX
  8
0
 10
-420.339305327
 20
739.821799161
 30
0.0
  0
VERTEX
  8
0
 10
-419.164368036
 20
744.338695107
 30
0.0
  0
VERTEX
  8
0
 10
-417.971028076
 20
748.780973818
 30
0.0
  0
VERTEX
  8
0
 10
-416.759008601
 20
753.149277116
 30
0.0
  0
VERTEX
  8
0
 10
-415.528032766
 20
757.444246825
 30
0.0
  0
VERTEX
  8
0
 10
-414.277823726
 20
761.666524769
 30
0.0
  0
VERTEX
  8
0
 10
-413.008104635
 20
765.816752771
 30
0.0
  0
VERTEX
  8
0
 10
-411.718598648
 20
769.895572654
 30
0.0
  0
VERTEX
  8
0
 10
-410.409028919
 20
773.903626242
 30
0.0
  0
VERTEX
  8
0
 10
-409.079118604
 20
777.841555358
 30
0.0
  0
VERTEX
  8
0
 10
-407.728590855
 20
781.710001826
 30
0.0
  0
VERTEX
  8
0
 10
-406.357168829
 20
785.509607469
 30
0.0
  0
VERTEX
  8
0
 10
-404.964575679
 20
789.24101411
 30
0.0
  0
VERTEX
  8
0
 10
-403.550534561
 20
792.904863572
 30
0.0
  0
VERTEX
  8
0
 10
-402.114768628
 20
796.50179768
 30
0.0
  0
VERTEX
  8
0
 10
-400.657001035
 20
800.032458257
 30
0.0
  0
VERTEX
  8
0
 10
-399.176954937
 20
803.497487126
 30
0.0
  0
VERTEX
  8
0
 10
-397.674353489
 20
806.89752611
 30
0.0
  0
VERTEX
  8
0
 10
-396.148919844
 20
810.233217033
 30
0.0
  0
VERTEX
  8
0
 10
-394.600377158
 20
813.505201718
 30
0.0
  0
VERTEX
  8
0
 10
-393.028448585
 20
816.714121988
 30
0.0
  0
VERTEX
  8
0
 10
-391.43285728
 20
819.860619668
 30
0.0
  0
VERTEX
  8
0
 10
-389.813326397
 20
822.94533658
 30
0.0
  0
VERTEX
  8
0
 10
-388.169579091
 20
825.968914548
 30
0.0
  0
VERTEX
  8
0
 10
-386.501338515
 20
828.931995396
 30
0.0
  0
VERTEX
  8
0
 10
-384.808327826
 20
831.835220946
 30
0.0
  0
VERTEX
  8
0
 10
-383.090270178
 20
834.679233022
 30
0.0
  0
VERTEX
  8
0
 10
-381.346888724
 20
837.464673447
 30
0.0
  0
VERTEX
  8
0
 10
-379.57790662
 20
840.192184046
 30
0.0
  0
VERTEX
  8
0
 10
-377.78304702
 20
842.862406641
 30
0.0
  0
VERTEX
  8
0
 10
-375.962033078
 20
845.475983055
 30
0.0
  0
VERTEX
  8
0
 10
-374.11458795
 20
848.033555113
 30
0.0
  0
VERTEX
  8
0
 10
-372.24043479
 20
850.535764637
 30
0.0
  0
VERTEX
  8
0
 10
-370.339296752
 20
852.983253451
 30
0.0
  0
VERTEX
  8
0
 10
-368.410896991
 20
855.376663379
 30
0.0
  0
VERTEX
  8
0
 10
-366.454958661
 20
857.716636243
 30
0.0
  0
VERTEX
  8
0
 10
-364.471204918
 20
860.003813867
 30
0.0
  0
VERTEX
  8
0
 10
-362.459358915
 20
862.238838075
 30
0.0
  0
VERTEX
  8
0
 10
-360.419143807
 20
864.42235069
 30
0.0
  0
VERTEX
  8
0
 10
-358.350282749
 20
866.554993535
 30
0.0
  0
VERTEX
  8
0
 10
-356.252498895
 20
868.637408434
 30
0.0
  0
VERTEX
  8
0
 10
-354.125515401
 20
870.67023721
 30
0.0
  0
VERTEX
  8
0
 10
-351.969055419
 20
872.654121687
 30
0.0
  0
VERTEX
  8
0
 10
-349.782842106
 20
874.589703688
 30
0.0
  0
VERTEX
  8
0
 10
-347.566598615
 20
876.477625036
 30
0.0
  0
VERTEX
  8
0
 10
-345.320048101
 20
878.318527555
 30
0.0
  0
VERTEX
  8
0
 10
-343.042913719
 20
880.113053068
 30
0.0
  0
VERTEX
  8
0
 10
-340.734918623
 20
881.861843399
 30
0.0
  0
VERTEX
  8
0
 10
-338.395785967
 20
883.565540371
 30
0.0
  0
VERTEX
  8
0
 10
-336.025238908
 20
885.224785807
 30
0.0
  0
VERTEX
  8
0
 10
-333.623000598
 20
886.840221531
 30
0.0
  0
VERTEX
  8
0
 10
-331.188794192
 20
888.412489367
 30
0.0
  0
VERTEX
  8
0
 10
-328.722342846
 20
889.942231137
 30
0.0
  0
VERTEX
  8
0
 10
-326.223369713
 20
891.430088665
 30
0.0
  0
VERTEX
  8
0
 10
-323.691597948
 20
892.876703775
 30
0.0
  0
VERTEX
  8
0
 10
-321.126750706
 20
894.282718289
 30
0.0
  0
VERTEX
  8
0
 10
-318.528551141
 20
895.648774032
 30
0.0
  0
VERTEX
  8
0
 10
-315.896722408
 20
896.975512826
 30
0.0
  0
VERTEX
  8
0
 10
-313.230987661
 20
898.263576496
 30
0.0
  0
VERTEX
  8
0
 10
-310.531070056
 20
899.513606864
 30
0.0
  0
VERTEX
  8
0
 10
-307.796692746
 20
900.726245754
 30
0.0
  0
VERTEX
  8
0
 10
-305.027578886
 20
901.90213499
 30
0.0
  0
VERTEX
  8
0
 10
-302.22345163
 20
903.041916394
 30
0.0
  0
VERTEX
  8
0
 10
-299.384034134
 20
904.14623179
 30
0.0
  0
VERTEX
  8
0
 10
-296.509049551
 20
905.215723002
 30
0.0
  0
VERTEX
  8
0
 10
-293.598221037
 20
906.251031853
 30
0.0
  0
VERTEX
  8
0
 10
-290.651271746
 20
907.252800166
 30
0.0
  0
VERTEX
  8
0
 10
-287.667924832
 20
908.221669765
 30
0.0
  0
VERTEX
  8
0
 10
-284.64790345
 20
909.158282473
 30
0.0
  0
VERTEX
  8
0
 10
-281.590930755
 20
910.063280114
 30
0.0
  0
VERTEX
  8
0
 10
-278.496729901
 20
910.93730451
 30
0.0
  0
VERTEX
  8
0
 10
-275.365024042
 20
911.780997486
 30
0.0
  0
VERTEX
  8
0
 10
-272.195536334
 20
912.595000865
 30
0.0
  0
VERTEX
  8
0
 10
-268.98798993
 20
913.37995647
 30
0.0
  0
VERTEX
  8
0
 10
-265.742107986
 20
914.136506125
 30
0.0
  0
VERTEX
  8
0
 10
-262.457613656
 20
914.865291653
 30
0.0
  0
VERTEX
  8
0
 10
-259.134230094
 20
915.566954877
 30
0.0
  0
VERTEX
  8
0
 10
-255.771680456
 20
916.242137621
 30
0.0
  0
VERTEX
  8
0
 10
-252.369687894
 20
916.891481708
 30
0.0
  0
VERTEX
  8
0
 10
-248.927975566
 20
917.515628962
 30
0.0
  0
VERTEX
  8
0
 10
-245.446266623
 20
918.115221206
 30
0.0
  0
VERTEX
  8
0
 10
-241.924284222
 20
918.690900263
 30
0.0
  0
VERTEX
  8
0
 10
-238.361751517
 20
919.243307958
 30
0.0
  0
VERTEX
  8
0
 10
-234.758391663
 20
919.773086112
 30
0.0
  0
VERTEX
  8
0
 10
-231.113927813
 20
920.280876551
 30
0.0
  0
VERTEX
  8
0
 10
-227.428083123
 20
920.767321096
 30
0.0
  0
VERTEX
  8
0
 10
-223.700580747
 20
921.233061572
 30
0.0
  0
VERTEX
  8
0
 10
-219.93114384
 20
921.678739802
 30
0.0
  0
VERTEX
  8
0
 10
-216.119495555
 20
922.104997609
 30
0.0
  0
VERTEX
  8
0
 10
-212.265359049
 20
922.512476817
 30
0.0
  0
VERTEX
  8
0
 10
-208.368457475
 20
922.901819249
 30
0.0
  0
VERTEX
  8
0
 10
-204.428513988
 20
923.273666728
 30
0.0
  0
VERTEX
  8
0
 10
-200.445251742
 20
923.628661079
 30
0.0
  0
VERTEX
  8
0
 10
-196.418393892
 20
923.967444124
 30
0.0
  0
VERTEX
  8
0
 10
-192.347663593
 20
924.290657686
 30
0.0
  0
VERTEX
  8
0
 10
-188.232783999
 20
924.59894359
 30
0.0
  0
VERTEX
  8
0
 10
-184.073478265
 20
924.892943658
 30
0.0
  0
VERTEX
  8
0
 10
-179.869469545
 20
925.173299715
 30
0.0
  0
VERTEX
  8
0
 10
-175.620480994
 20
925.440653582
 30
0.0
  0
VERTEX
  8
0
 10
-171.326235766
 20
925.695647085
 30
0.0
  0
VERTEX
  8
0
 10
-166.986457016
 20
925.938922045
 30
0.0
  0
VERTEX
  8
0
 10
-162.600867899
 20
926.171120288
 30
0.0
  0
VERTEX
  8
0
 10
-158.169191569
 20
926.392883635
 30
0.0
  0
VERTEX
  8
0
 10
-153.69115118
 20
926.604853911
 30
0.0
  0
VERTEX
  8
0
 10
-149.166469887
 20
926.807672938
 30
0.0
  0
VERTEX
  8
0
 10
-144.594870846
 20
927.001982541
 30
0.0
  0
VERTEX
  8
0
 10
-139.976077209
 20
927.188424543
 30
0.0
  0
VERTEX
  8
0
 10
-135.309812133
 20
927.367640766
 30
0.0
  0
VERTEX
  8
0
 10
-130.595798771
 20
927.540273035
 30
0.0
  0
VERTEX
  8
0
 10
-125.833760278
 20
927.706963173
 30
0.0
  0
VERTEX
  8
0
 10
-121.023419808
 20
927.868353003
 30
0.0
  0
VERTEX
  8
0
 10
-116.164500517
 20
928.025084349
 30
0.0
  0
VERTEX
  8
0
 10
-111.256725558
 20
928.177799034
 30
0.0
  0
VERTEX
  8
0
 10
-106.299818086
 20
928.327138881
 30
0.0
  0
VERTEX
  8
0
 10
-101.293501257
 20
928.473745715
 30
0.0
  0
VERTEX
  8
0
 10
-96.2374982233
 20
928.618261357
 30
0.0
  0
VERTEX
  8
0
 10
-91.1315321409
 20
928.761327633
 30
0.0
  0
VERTEX
  8
0
 10
-85.9753261639
 20
928.903586364
 30
0.0
  0
VERTEX
  8
0
 10
-80.768603447
 20
929.045679375
 30
0.0
  0
VERTEX
  8
0
 10
-75.5110871447
 20
929.188248489
 30
0.0
  0
VERTEX
  8
0
 10
-70.2025004116
 20
929.331935529
 30
0.0
  0
VERTEX
  8
0
 10
-64.8425664022
 20
929.477382319
 30
0.0
  0
VERTEX
  8
0
 10
-59.4310082711
 20
929.625230682
 30
0.0
  0
VERTEX
  8
0
 10
-53.9675491728
 20
929.776122442
 30
0.0
  0
VERTEX
  8
0
 10
-48.4519122619
 20
929.930699422
 30
0.0
  0
VERTEX
  8
0
 10
-42.883820693
 20
930.089603445
 30
0.0
  0
VERTEX
  8
0
 10
-37.2629976206
 20
930.253476335
 30
0.0
  0
VERTEX
  8
0
 10
-31.5891661994
 20
930.422959915
 30
0.0
  0
VERTEX
  8
0
 10
-25.8620495837
 20
930.598696008
 30
0.0
  0
VERTEX
  8
0
 10
-20.0813709283
 20
930.781326439
 30
0.0
  0
VERTEX
  8
0
 10
-14.2468533877
 20
930.97149303
 30
0.0
  0
VERTEX
  8
0
 10
-8.35822011636
 20
931.169837605
 30
0.0
  0
VERTEX
  8
0
 10
-2.41519426895
 20
931.377001987
 30
0.0
  0
VERTEX
  8
0
 10
3.582501
 20
931.593628
 30
0.0
  0
SEQEND
  8
0
  0
LINE
  8
0
 62
0
 10
9.629767
 20
946.515503
 30
0.0
 11
3.582501
 21
931.593628
 31
0.0
  0
LINE
  8
0
 62
0
 10
20.020773
 20
945.641541
 30
0.0
 11
9.629767
 21
946.515503
 31
0.0
  0
LINE
  8
0
 62
0
 10
22.448578
 20
957.197876
 30
0.0
 11
20.020773
 21
945.641541
 31
0.0
  0
LINE
  8
0
 62
0
 10
32.451134
 20
962.539062
 30
0.0
 11
22.448578
 21
957.197876
 31
0.0
  0
LINE
  8
0
 62
0
 10
30.410107
 20
973.680603
 30
0.0
 11
32.451134
 21
962.539062
 31
0.0
  0
LINE
  8
0
 62
0
 10
39.525196
 20
980.711792
 30
0.0
 11
30.410107
 21
973.680603
 31
0.0
  0
LINE
  8
0
 62
0
 10
39.525196
 20
994.253601
 30
0.0
 11
39.525196
 21
980.711792
 31
0.0
  0
POLYLINE
  8
0
 62
0
 70
0
 66
1
 10
0.0
 20
0.0
 30
0.0
  0
VERTEX
  8
0
 10
-544.821345263
 20
289.86561361
 30
0.0
  0
VERTEX
  8
0
 10
-544.316948452
 20
298.849667223
 30
0.0
  0
VERTEX
  8
0
 10
-543.823817674
 20
307.760772664
 30
0.0
  0
VERTEX
  8
0
 10
-543.341586054
 20
316.599210153
 30
0.0
  0
VERTEX
  8
0
 10
-542.869886716
 20
325.365259913
 30
0.0
  0
VERTEX
  8
0
 10
-542.408352784
 20
334.059202165
 30
0.0
  0
VERTEX
  8
0
 10
-541.956617383
 20
342.681317133
 30
0.0
  0
VERTEX
  8
0
 10
-541.514313637
 20
351.231885037
 30
0.0
  0
VERTEX
  8
0
 10
-541.081074671
 20
359.711186101
 30
0.0
  0
VERTEX
  8
0
 10
-540.65653361
 20
368.119500545
 30
0.0
  0
VERTEX
  8
0
 10
-540.240323578
 20
376.457108592
 30
0.0
  0
VERTEX
  8
0
 10
-539.832077699
 20
384.724290464
 30
0.0
  0
VERTEX
  8
0
 10
-539.431429099
 20
392.921326383
 30
0.0
  0
VERTEX
  8
0
 10
-539.038010901
 20
401.048496572
 30
0.0
  0
VERTEX
  8
0
 10
-538.65145623
 20
409.106081251
 30
0.0
  0
VERTEX
  8
0
 10
-538.271398211
 20
417.094360643
 30
0.0
  0
VERTEX
  8
0
 10
-537.897469968
 20
425.013614971
 30
0.0
  0
VERTEX
  8
0
 10
-537.529304626
 20
432.864124455
 30
0.0
  0
VERTEX
  8
0
 10
-537.166535309
 20
440.646169319
 30
0.0
  0
VERTEX
  8
0
 10
-536.808795142
 20
448.360029784
 30
0.0
  0
VERTEX
  8
0
 10
-536.455717249
 20
456.005986072
 30
0.0
  0
VERTEX
  8
0
 10
-536.106934754
 20
463.584318406
 30
0.0
  0
VERTEX
  8
0
 10
-535.762080783
 20
471.095307007
 30
0.0
  0
VERTEX
  8
0
 10
-535.42078846
 20
478.539232097
 30
0.0
  0
VERTEX
  8
0
 10
-535.08269091
 20
485.916373898
 30
0.0
  0
VERTEX
  8
0
 10
-534.747421256
 20
493.227012633
 30
0.0
  0
VERTEX
  8
0
 10
-534.414612623
 20
500.471428523
 30
0.0
  0
VERTEX
  8
0
 10
-534.083898137
 20
507.64990179
 30
0.0
  0
VERTEX
  8
0
 10
-533.754910921
 20
514.762712657
 30
0.0
  0
VERTEX
  8
0
 10
-533.4272841
 20
521.810141346
 30
0.0
  0
VERTEX
  8
0
 10
-533.100650798
 20
528.792468077
 30
0.0
  0
VERTEX
  8
0
 10
-532.774644141
 20
535.709973075
 30
0.0
  0
VERTEX
  8
0
 10
-532.448897252
 20
542.56293656
 30
0.0
  0
VERTEX
  8
0
 10
-532.123043256
 20
549.351638754
 30
0.0
  0
VERTEX
  8
0
 10
-531.796715278
 20
556.07635988
 30
0.0
  0
VERTEX
  8
0
 10
-531.469546441
 20
562.73738016
 30
0.0
  0
VERTEX
  8
0
 10
-531.141169872
 20
569.334979815
 30
0.0
  0
VERTEX
  8
0
 10
-530.811218693
 20
575.869439068
 30
0.0
  0
VERTEX
  8
0
 10
-530.479326031
 20
582.341038141
 30
0.0
  0
VERTEX
  8
0
 10
-530.145125008
 20
588.750057256
 30
0.0
  0
VERTEX
  8
0
 10
-529.808248751
 20
595.096776634
 30
0.0
  0
VERTEX
  8
0
 10
-529.468330382
 20
601.381476498
 30
0.0
  0
VERTEX
  8
0
 10
-529.125003028
 20
607.60443707
 30
0.0
  0
VERTEX
  8
0
 10
-528.777899811
 20
613.765938571
 30
0.0
  0
VERTEX
  8
0
 10
-528.426653858
 20
619.866261225
 30
0.0
  0
VERTEX
  8
0
 10
-528.070898292
 20
625.905685252
 30
0.0
  0
VERTEX
  8
0
 10
-527.710266238
 20
631.884490875
 30
0.0
  0
VERTEX
  8
0
 10
-527.34439082
 20
637.802958316
 30
0.0
  0
VERTEX
  8
0
 10
-526.972905163
 20
643.661367798
 30
0.0
  0
VERTEX
  8
0
 10
-526.595442391
 20
649.459999541
 30
0.0
  0
VERTEX
  8
0
 10
-526.21163563
 20
655.199133768
 30
0.0
  0
VERTEX
  8
0
 10
-525.821118003
 20
660.879050701
 30
0.0
  0
VERTEX
  8
0
 10
-525.423522635
 20
666.500030563
 30
0.0
  0
VERTEX
  8
0
 10
-525.018482651
 20
672.062353574
 30
0.0
  0
VERTEX
  8
0
 10
-524.605631175
 20
677.566299958
 30
0.0
  0
VERTEX
  8
0
 10
-524.184601331
 20
683.012149935
 30
0.0
  0
VERTEX
  8
0
 10
-523.755026244
 20
688.400183729
 30
0.0
  0
VERTEX
  8
0
 10
-523.316539039
 20
693.730681561
 30
0.0
  0
VERTEX
  8
0
 10
-522.868772841
 20
699.003923653
 30
0.0
  0
VERTEX
  8
0
 10
-522.411360773
 20
704.220190228
 30
0.0
  0
VERTEX
  8
0
 10
-521.94393596
 20
709.379761507
 30
0.0
  0
VERTEX
  8
0
 10
-521.466131527
 20
714.482917712
 30
0.0
  0
VERTEX
  8
0
 10
-520.977580598
 20
719.529939066
 30
0.0
  0
VERTEX
  8
0
 10
-520.477916298
 20
724.521105789
 30
0.0
  0
VERTEX
  8
0
 10
-519.966771751
 20
729.456698106
 30
0.0
  0
VERTEX
  8
0
 10
-519.443780083
 20
734.336996236
 30
0.0
  0
VERTEX
  8
0
 10
-518.908574416
 20
739.162280403
 30
0.0
  0
VERTEX
  8
0
 10
-518.360787877
 20
743.932830829
 30
0.0
  0
VERTEX
  8
0
 10
-517.800053588
 20
748.648927735
 30
0.0
  0
VERTEX
  8
0
 10
-517.226004676
 20
753.310851344
 30
0.0
  0
VERTEX
  8
0
 10
-516.638274264
 20
757.918881877
 30
0.0
  0
VERTEX
  8
0
 10
-516.036495478
 20
762.473299557
 30
0.0
  0
VERTEX
  8
0
 10
-515.42030144
 20
766.974384605
 30
0.0
  0
VERTEX
  8
0
 10
-514.789325277
 20
771.422417244
 30
0.0
  0
VERTEX
  8
0
 10
-514.143200112
 20
775.817677696
 30
0.0
  0
VERTEX
  8
0
 10
-513.481559071
 20
780.160446182
 30
0.0
  0
VERTEX
  8
0
 10
-512.804035277
 20
784.451002925
 30
0.0
  0
VERTEX
  8
0
 10
-512.110261855
 20
788.689628147
 30
0.0
  0
VERTEX
  8
0
 10
-511.39987193
 20
792.87660207
 30
0.0
  0
VERTEX
  8
0
 10
-510.672498626
 20
797.012204915
 30
0.0
  0
VERTEX
  8
0
 10
-509.927775067
 20
801.096716905
 30
0.0
  0
VERTEX
  8
0
 10
-509.165334379
 20
805.130418262
 30
0.0
  0
VERTEX
  8
0
 10
-508.384809686
 20
809.113589208
 30
0.0
  0
VERTEX
  8
0
 10
-507.585834112
 20
813.046509965
 30
0.0
  0
VERTEX
  8
0
 10
-506.768040781
 20
816.929460754
 30
0.0
  0
VERTEX
  8
0
 10
-505.931062819
 20
820.762721799
 30
0.0
  0
VERTEX
  8
0
 10
-505.07453335
 20
824.546573321
 30
0.0
  0
VERTEX
  8
0
 10
-504.198085498
 20
828.281295541
 30
0.0
  0
VERTEX
  8
0
 10
-503.301352388
 20
831.967168683
 30
0.0
  0
VERTEX
  8
0
 10
-502.383967145
 20
835.604472968
 30
0.0
  0
VERTEX
  8
0
 10
-501.445562892
 20
839.193488618
 30
0.0
  0
VERTEX
  8
0
 10
-500.485772755
 20
842.734495855
 30
0.0
  0
VERTEX
  8
0
 10
-499.504229858
 20
846.227774901
 30
0.0
  0
VERTEX
  8
0
 10
-498.500567325
 20
849.673605978
 30
0.0
  0
VERTEX
  8
0
 10
-497.474418282
 20
853.072269308
 30
0.0
  0
VERTEX
  8
0
 10
-496.425415852
 20
856.424045114
 30
0.0
  0
VERTEX
  8
0
 10
-495.35319316
 20
859.729213617
 30
0.0
  0
VERTEX
  8
0
 10
-494.257383331
 20
862.988055039
 30
0.0
  0
VERTEX
  8
0
 10
-493.137619488
 20
866.200849603
 30
0.0
  0
VERTEX
  8
0
 10
-491.993534758
 20
869.36787753
 30
0.0
  0
VERTEX
  8
0
 10
-490.824762264
 20
872.489419042
 30
0.0
  0
VERTEX
  8
0
 10
-489.63093513
 20
875.565754361
 30
0.0
  0
VERTEX
  8
0
 10
-488.411686481
 20
878.59716371
 30
0.0
  0
VERTEX
  8
0
 10
-487.166649443
 20
881.583927311
 30
0.0
  0
VERTEX
  8
0
 10
-485.895457138
 20
884.526325384
 30
0.0
  0
VERTEX
  8
0
 10
-484.597742693
 20
887.424638154
 30
0.0
  0
VERTEX
  8
0
 10
-483.27313923
 20
890.279145841
 30
0.0
  0
VERTEX
  8
0
 10
-481.921279876
 20
893.090128667
 30
0.0
  0
VERTEX
  8
0
 10
-480.541797754
 20
895.857866855
 30
0.0
  0
VERTEX
  8
0
 10
-479.134325989
 20
898.582640626
 30
0.0
  0
VERTEX
  8
0
 10
-477.698497705
 20
901.264730204
 30
0.0
  0
VERTEX
  8
0
 10
-476.233946027
 20
903.904415808
 30
0.0
  0
VERTEX
  8
0
 10
-474.74030408
 20
906.501977663
 30
0.0
  0
VERTEX
  8
0
 10
-473.217204987
 20
909.057695989
 30
0.0
  0
VERTEX
  8
0
 10
-471.664281874
 20
911.571851009
 30
0.0
  0
VERTEX
  8
0
 10
-470.081167865
 20
914.044722945
 30
0.0
  0
VERTEX
  8
0
 10
-468.467496085
 20
916.476592018
 30
0.0
  0
VERTEX
  8
0
 10
-466.822899658
 20
918.867738451
 30
0.0
  0
VERTEX
  8
0
 10
-465.147011708
 20
921.218442466
 30
0.0
  0
VERTEX
  8
0
 10
-463.439465361
 20
923.528984285
 30
0.0
  0
VERTEX
  8
0
 10
-461.69989374
 20
925.79964413
 30
0.0
  0
VERTEX
  8
0
 10
-459.92792997
 20
928.030702223
 30
0.0
  0
VERTEX
  8
0
 10
-458.123207176
 20
930.222438785
 30
0.0
  0
VERTEX
  8
0
 10
-456.285358483
 20
932.37513404
 30
0.0
  0
VERTEX
  8
0
 10
-454.414017014
 20
934.489068209
 30
0.0
  0
VERTEX
  8
0
 10
-452.508815894
 20
936.564521513
 30
0.0
  0
VERTEX
  8
0
 10
-450.569388248
 20
938.601774176
 30
0.0
  0
VERTEX
  8
0
 10
-448.5953672
 20
940.601106419
 30
0.0
  0
VERTEX
  8
0
 10
-446.586385876
 20
942.562798464
 30
0.0
  0
VERTEX
  8
0
 10
-444.542077398
 20
944.487130533
 30
0.0
  0
VERTEX
  8
0
 10
-442.462074893
 20
946.374382848
 30
0.0
  0
VERTEX
  8
0
 10
-440.346011484
 20
948.224835631
 30
0.0
  0
VERTEX
  8
0
 10
-438.193520296
 20
950.038769105
 30
0.0
  0
VERTEX
  8
0
 10
-436.004234453
 20
951.81646349
 30
0.0
  0
VERTEX
  8
0
 10
-433.77778708
 20
953.55819901
 30
0.0
  0
VERTEX
  8
0
 10
-431.513811302
 20
955.264255887
 30
0.0
  0
VERTEX
  8
0
 10
-429.211940243
 20
956.934914341
 30
0.0
  0
VERTEX
  8
0
 10
-426.871807027
 20
958.570454596
 30
0.0
  0
VERTEX
  8
0
 10
-424.49304478
 20
960.171156874
 30
0.0
  0
VERTEX
  8
0
 10
-422.075286625
 20
961.737301395
 30
0.0
  0
VERTEX
  8
0
 10
-419.618165687
 20
963.269168383
 30
0.0
  0
VERTEX
  8
0
 10
-417.121315091
 20
964.76703806
 30
0.0
  0
VERTEX
  8
0
 10
-414.584367961
 20
966.231190647
 30
0.0
  0
VERTEX
  8
0
 10
-412.006957422
 20
967.661906367
 30
0.0
  0
VERTEX
  8
0
 10
-409.388716598
 20
969.059465441
 30
0.0
  0
VERTEX
  8
0
 10
-406.729278614
 20
970.424148091
 30
0.0
  0
VERTEX
  8
0
 10
-404.028276594
 20
971.756234541
 30
0.0
  0
VERTEX
  8
0
 10
-401.285343663
 20
973.05600501
 30
0.0
  0
VERTEX
  8
0
 10
-398.500112945
 20
974.323739723
 30
0.0
  0
VERTEX
  8
0
 10
-395.672217565
 20
975.5597189
 30
0.0
  0
VERTEX
  8
0
 10
-392.801290647
 20
976.764222764
 30
0.0
  0
VERTEX
  8
0
 10
-389.886965316
 20
977.937531536
 30
0.0
  0
VERTEX
  8
0
 10
-386.928874697
 20
979.079925439
 30
0.0
  0
VERTEX
  8
0
 10
-383.926651914
 20
980.191684695
 30
0.0
  0
VERTEX
  8
0
 10
-380.879930091
 20
981.273089526
 30
0.0
  0
VERTEX
  8
0
 10
-377.788342353
 20
982.324420154
 30
0.0
  0
VERTEX
  8
0
 10
-374.651521825
 20
983.3459568
 30
0.0
  0
VERTEX
  8
0
 10
-371.46910163
 20
984.337979688
 30
0.0
  0
VERTEX
  8
0
 10
-368.240714894
 20
985.300769038
 30
0.0
  0
VERTEX
  8
0
 10
-364.965994742
 20
986.234605073
 30
0.0
  0
VERTEX
  8
0
 10
-361.644574297
 20
987.139768015
 30
0.0
  0
VERTEX
  8
0
 10
-358.276086684
 20
988.016538086
 30
0.0
  0
VERTEX
  8
0
 10
-354.860165027
 20
988.865195508
 30
0.0
  0
VERTEX
  8
0
 10
-351.396442452
 20
989.686020504
 30
0.0
  0
VERTEX
  8
0
 10
-347.884552083
 20
990.479293294
 30
0.0
  0
VERTEX
  8
0
 10
-344.324127043
 20
991.245294101
 30
0.0
  0
VERTEX
  8
0
 10
-340.714800459
 20
991.984303147
 30
0.0
  0
VERTEX
  8
0
 10
-337.056205454
 20
992.696600655
 30
0.0
  0
VERTEX
  8
0
 10
-333.347975152
 20
993.382466846
 30
0.0
  0
VERTEX
  8
0
 10
-329.589742679
 20
994.042181942
 30
0.0
  0
VERTEX
  8
0
 10
-325.781141159
 20
994.676026165
 30
0.0
  0
VERTEX
  8
0
 10
-321.921803716
 20
995.284279737
 30
0.0
  0
VERTEX
  8
0
 10
-318.011363475
 20
995.867222881
 30
0.0
  0
VERTEX
  8
0
 10
-314.049453561
 20
996.425135818
 30
0.0
  0
VERTEX
  8
0
 10
-310.035707097
 20
996.95829877
 30
0.0
  0
VERTEX
  8
0
 10
-305.969757209
 20
997.466991959
 30
0.0
  0
VERTEX
  8
0
 10
-301.851237021
 20
997.951495608
 30
0.0
  0
VERTEX
  8
0
 10
-297.679779657
 20
998.412089939
 30
0.0
  0
VERTEX
  8
0
 10
-293.455018243
 20
998.849055173
 30
0.0
  0
VERTEX
  8
0
 10
-289.176585902
 20
999.262671532
 30
0.0
  0
VERTEX
  8
0
 10
-284.844115759
 20
999.653219239
 30
0.0
  0
VERTEX
  8
0
 10
-280.457240938
 20
1000.02097851
 30
0.0
  0
VERTEX
  8
0
 10
-276.015594565
 20
1000.36622958
 30
0.0
  0
VERTEX
  8
0
 10
-271.518809764
 20
1000.68925266
 30
0.0
  0
VERTEX
  8
0
 10
-266.966519658
 20
1000.99032798
 30
0.0
  0
VERTEX
  8
0
 10
-262.358357374
 20
1001.26973576
 30
0.0
  0
VERTEX
  8
0
 10
-257.693956034
 20
1001.52775621
 30
0.0
  0
VERTEX
  8
0
 10
-252.972948765
 20
1001.76466957
 30
0.0
  0
VERTEX
  8
0
 10
-248.194968689
 20
1001.98075605
 30
0.0
  0
VERTEX
  8
0
 10
-243.359648933
 20
1002.17629587
 30
0.0
  0
VERTEX
  8
0
 10
-238.466622619
 20
1002.35156926
 30
0.0
  0
VERTEX
  8
0
 10
-233.515522874
 20
1002.50685645
 30
0.0
  0
VERTEX
  8
0
 10
-228.505982821
 20
1002.64243764
 30
0.0
  0
VERTEX
  8
0
 10
-223.437635585
 20
1002.75859307
 30
0.0
  0
VERTEX
  8
0
 10
-218.31011429
 20
1002.85560295
 30
0.0
  0
VERTEX
  8
0
 10
-213.123052061
 20
1002.93374752
 30
0.0
  0
VERTEX
  8
0
 10
-207.876082023
 20
1002.99330698
 30
0.0
  0
VERTEX
  8
0
 10
-202.5688373
 20
1003.03456156
 30
0.0
  0
VERTEX
  8
0
 10
-197.200951016
 20
1003.05779149
 30
0.0
  0
VERTEX
  8
0
 10
-191.772056296
 20
1003.06327699
 30
0.0
  0
VERTEX
  8
0
 10
-186.281786265
 20
1003.05129827
 30
0.0
  0
VERTEX
  8
0
 10
-180.729774047
 20
1003.02213556
 30
0.0
  0
VERTEX
  8
0
 10
-175.115652766
 20
1002.97606908
 30
0.0
  0
VERTEX
  8
0
 10
-169.439055548
 20
1002.91337906
 30
0.0
  0
VERTEX
  8
0
 10
-163.699615516
 20
1002.83434572
 30
0.0
  0
VERTEX
  8
0
 10
-157.896965796
 20
1002.73924927
 30
0.0
  0
VERTEX
  8
0
 10
-152.030739511
 20
1002.62836994
 30
0.0
  0
VERTEX
  8
0
 10
-146.100569786
 20
1002.50198796
 30
0.0
  0
VERTEX
  8
0
 10
-140.106089747
 20
1002.36038354
 30
0.0
  0
VERTEX
  8
0
 10
-134.046932516
 20
1002.2038369
 30
0.0
  0
VERTEX
  8
0
 10
-127.922731219
 20
1002.03262828
 30
0.0
  0
VERTEX
  8
0
 10
-121.733118981
 20
1001.84703788
 30
0.0
  0
VERTEX
  8
0
 10
-115.477728925
 20
1001.64734594
 30
0.0
  0
VERTEX
  8
0
 10
-109.156194177
 20
1001.43383267
 30
0.0
  0
VERTEX
  8
0
 10
-102.768147861
 20
1001.20677829
 30
0.0
  0
VERTEX
  8
0
 10
-96.3132231009
 20
1000.96646304
 30
0.0
  0
VERTEX
  8
0
 10
-89.791053022
 20
1000.71316712
 30
0.0
  0
VERTEX
  8
0
 10
-83.2012707485
 20
1000.44717077
 30
0.0
  0
VERTEX
  8
0
 10
-76.543509405
 20
1000.16875421
 30
0.0
  0
VERTEX
  8
0
 10
-69.8174021161
 20
999.878197646
 30
0.0
  0
VERTEX
  8
0
 10
-63.0225820062
 20
999.575781314
 30
0.0
  0
VERTEX
  8
0
 10
-56.1586821998
 20
999.261785433
 30
0.0
  0
VERTEX
  8
0
 10
-49.2253358215
 20
998.936490224
 30
0.0
  0
VERTEX
  8
0
 10
-42.2221759959
 20
998.60017591
 30
0.0
  0
VERTEX
  8
0
 10
-35.1488358474
 20
998.253122712
 30
0.0
  0
VERTEX
  8
0
 10
-28.0049485005
 20
997.895610854
 30
0.0
  0
VERTEX
  8
0
 10
-20.7901470799
 20
997.527920556
 30
0.0
  0
VERTEX
  8
0
 10
-13.5040647099
 20
997.15033204
 30
0.0
  0
VERTEX
  8
0
 10
-6.14633451517
 20
996.76312553
 30
0.0
  0
VERTEX
  8
0
 10
1.28341037981
 20
996.366581246
 30
0.0
  0
VERTEX
  8
0
 10
8.7855368505
 20
995.960979411
 30
0.0
  0
VERTEX
  8
0
 10
16.3604117724
 20
995.546600247
 30
0.0
  0
VERTEX
  8
0
 10
24.008402021
 20
995.123723976
 30
0.0
  0
VERTEX
  8
0
 10
31.7298744717
 20
994.692630819
 30
0.0
  0
VERTEX
  8
0
 10
39.525196
 20
994.253601
 30
0.0
  0
SEQEND
  8
0
  0
LINE
  8
0
 62
0
 10
-405.13
 20
849.477658
 30
0.0
 11
-451.329349849
 21
874.042288051
 31
0.0
  0
LINE
  8
0
 62
0
 10
-451.329349849
 20
874.042288051
 30
0.0
 11
-426.764719798
 21
920.2416379
 31
0.0
  0
LINE
  8
0
 62
0
 10
-426.764719798
 20
920.2416379
 30
0.0
 11
-380.565369949
 21
895.677007849
 31
0.0
  0
LINE
  8
0
 62
0
 10
-380.565369949
 20
895.677007849
 30
0.0
 11
-405.13
 21
849.477658
 31
0.0
  0
CIRCLE
  8
0
 62
0
 10
-127.0
 20
965.2
 30
0.0
 40
16.7005
  0
CIRCLE
  8
0
 62
0
 10
-506.73
 20
290.677658
 30
0.0
 40
13.3223
  0
ENDBLK
  0
ENDSEC
  0
SECTION
  2
ENTITIES
  0
INSERT
  2
PAD
  8
0
 62
0
 10
0.0
 20
0.0
 30
0.0
  0
ENDSEC
  0
EOF
