  0
SECTION
  2
HEADER
  9
$ACADVER
  1
AC1009
  9
$INSBASE
 10
0.0
 20
0.0
 30
0.0
  9
$EXTMIN
 10
0.0
 20
0.0
 30
0.0
  9
$EXTMAX
 10
0.0
 20
0.0
 30
0.0
  0
ENDSEC
  0
SECTION
  2
TABLES
  0
TABLE
  2
VPORT
 70
0
  0
ENDTAB
  0
TABLE
  2
LTYPE
 70
1
  0
LTYPE
  2
CONTINUOUS
 70
0
  3
Solid line
 72
65
 73
0
 40
0.0
  0
ENDTAB
  0
TABLE
  2
LAYER
 70
1
  0
LAYER
  2
0
 70
64
 62
7
  6
continuous
  0
ENDTAB
  0
TABLE
  2
STYLE
 70
1
  0
STYLE
  2
STANDARD
 70
0
 40
0
 41
1.0
 50
0.0
 71
0
 42
1
 3
ARIAL.TTF
 4

  0
ENDTAB
  0
TABLE
  2
VIEW
 70
0
  0
ENDTAB
  0
ENDSEC
  0
SECTION
  2
BLOCKS
  0
BLOCK
  8
0
  2
POLARPATTERN
 70
0
 10
0.0
 20
0.0
 30
0.0
  3
POLARPATTERN
  0
LINE
  8
0
 62
0
 10
-304.769322699
 20
-225.298
 30
0.0
 11
-304.769322699
 21
225.298
 31
0.0
  0
LINE
  8
0
 62
0
 10
-152.369322699
 20
-225.298
 30
0.0
 11
-304.769322699
 21
-225.298
 31
0.0
  0
LINE
  8
0
 62
0
 10
-304.769322699
 20
225.298
 30
0.0
 11
-152.369322699
 21
225.298
 31
0.0
  0
LINE
  8
0
 62
0
 10
-152.369322699
 20
-225.298
 30
0.0
 11
-152.369322699
 21
-170.415813528
 31
0.0
  0
ARC
  8
0
 62
0
 10
-6.40998324127e-15
 20
0.0
 30
0.0
 40
228.6
 50
-131.801629216
 51
-131.8
  0
LINE
  8
0
 62
0
 10
-170.96288192
 20
-166.244679721
 30
0.0
 11
-152.374168443
 21
-170.411480808
 31
0.0
  0
LINE
  8
0
 62
0
 10
-173.891156923
 20
-151.22365159
 30
0.0
 11
-170.96288192
 21
-166.244679721
 31
0.0
  0
LINE
  8
0
 62
0
 10
-188.360501913
 20
-146.239262338
 30
0.0
 11
-173.891156923
 21
-151.22365159
 31
0.0
  0
LINE
  8
0
 62
0
 10
-189.603249023
 20
-130.986011529
 30
0.0
 11
-188.360501913
 21
-146.239262338
 31
0.0
  0
LINE
  8
0
 62
0
 10
-203.429869892
 20
-124.426237449
 30
0.0
 11
-189.603249023
 21
-130.986011529
 31
0.0
  0
LINE
  8
0
 62
0
 10
-202.971727988
 20
-109.129303552
 30
0.0
 11
-203.429869892
 21
-124.426237449
 31
0.0
  0
LINE
  8
0
 62
0
 10
-215.984719172
 20
-101.075227499
 30
0.0
 11
-202.971727988
 21
-109.129303552
 31
0.0
  0
LINE
  8
0
 62
0
 10
-213.83135117
 20
-85.9236900564
 30
0.0
 11
-215.984719172
 21
-101.075227499
 31
0.0
  0
LINE
  8
0
 62
0
 10
-225.869864071
 20
-76.4748653789
 30
0.0
 11
-213.83135117
 21
-85.9236900564
 31
0.0
  0
LINE
  8
0
 62
0
 10
-222.047886928
 20
-61.6560067402
 30
0.0
 11
-225.869864071
 21
-76.4748653789
 31
0.0
  0
LINE
  8
0
 62
0
 10
-232.963118097
 20
-50.9292267409
 30
0.0
 11
-222.047886928
 21
-61.6560067402
 31
0.0
  0
LINE
  8
0
 62
0
 10
-227.519773809
 20
-36.6262171417
 30
0.0
 11
-232.963118097
 21
-50.9292267409
 31
0.0
  0
LINE
  8
0
 62
0
 10
-237.176804256
 20
-24.7540714393
 30
0.0
 11
-227.519773809
 21
-36.6262171417
 31
0.0
  0
LINE
  8
0
 62
0
 10
-230.179375916
 20
-11.1437049025
 30
0.0
 11
-237.176804256
 21
-24.7540714393
 31
0.0
  0
LINE
  8
0
 62
0
 10
-238.458838787
 20
1.72705945752
 30
0.0
 11
-230.179375916
 21
-11.1437049025
 31
0.0
  0
LINE
  8
0
 62
0
 10
-229.993818927
 20
14.4765504044
 30
0.0
 11
-238.458838787
 21
1.72705945752
 31
0.0
  0
LINE
  8
0
 62
0
 10
-236.793374952
 20
28.1868428339
 30
0.0
 11
-229.993818927
 21
14.4765504044
 31
0.0
  0
LINE
  8
0
 62
0
 10
-226.96539644
 20
39.917866617
 30
0.0
 11
-236.793374952
 21
28.1868428339
 31
0.0
  0
LINE
  8
0
 62
0
 10
-232.200998911
 20
54.2982194428
 30
0.0
 11
-226.96539644
 21
39.917866617
 31
0.0
  0
LINE
  8
0
 62
0
 10
-221.131541625
 20
64.8657733706
 30
0.0
 11
-232.200998911
 21
54.2982194428
 31
0.0
  0
LINE
  8
0
 62
0
 10
-224.738475266
 20
79.7384365598
 30
0.0
 11
-221.131541625
 21
64.8657733706
 31
0.0
  0
LINE
  8
0
 62
0
 10
-212.564364527
 20
89.011899146
 30
0.0
 11
-224.738475266
 21
79.7384365598
 31
0.0
  0
LINE
  8
0
 62
0
 10
-214.498045413
 20
104.193037406
 30
0.0
 11
-212.564364527
 21
89.011899146
 31
0.0
  0
LINE
  8
0
 62
0
 10
-201.369760741
 20
112.057782932
 30
0.0
 11
-214.498045413
 21
104.193037406
 31
0.0
  0
LINE
  8
0
 62
0
 10
-201.606287383
 20
127.359748027
 30
0.0
 11
-201.369760741
 21
112.057782932
 31
0.0
  0
LINE
  8
0
 62
0
 10
-187.686102475
 20
133.718563385
 30
0.0
 11
-201.606287383
 21
127.359748027
 31
0.0
  0
LINE
  8
0
 62
0
 10
-186.222551259
 20
148.952213587
 30
0.0
 11
-187.686102475
 21
133.718563385
 31
0.0
  0
LINE
  8
0
 62
0
 10
-171.682528189
 20
153.726499897
 30
0.0
 11
-186.222551259
 21
148.952213587
 31
0.0
  0
LINE
  8
0
 62
0
 10
-168.53698951
 20
168.703537891
 30
0.0
 11
-171.682528189
 21
153.726499897
 31
0.0
  0
LINE
  8
0
 62
0
 10
-153.556851935
 20
171.834282028
 30
0.0
 11
-168.53698951
 21
168.703537891
 31
0.0
  0
LINE
  8
0
 62
0
 10
-152.369322699
 20
175.438870149
 30
0.0
 11
-153.556851935
 21
171.834282028
 31
0.0
  0
LINE
  8
0
 62
0
 10
-152.369322699
 20
225.298
 30
0.0
 11
-152.369322699
 21
175.438870149
 31
0.0
  0
ENDBLK
  0
ENDSEC
  0
SECTION
  2
ENTITIES
  0
INSERT
  2
POLARPATTERN
  8
0
 62
0
 10
0.0
 20
0.0
 30
0.0
  0
ENDSEC
  0
EOF
