  0
SECTION
  2
HEADER
  9
$ACADVER
  1
AC1009
  9
$INSBASE
 10
0.0
 20
0.0
 30
0.0
  9
$EXTMIN
 10
0.0
 20
0.0
 30
0.0
  9
$EXTMAX
 10
0.0
 20
0.0
 30
0.0
  0
ENDSEC
  0
SECTION
  2
TABLES
  0
TABLE
  2
VPORT
 70
0
  0
ENDTAB
  0
TABLE
  2
LTYPE
 70
1
  0
LTYPE
  2
CONTINUOUS
 70
0
  3
Solid line
 72
65
 73
0
 40
0.0
  0
ENDTAB
  0
TABLE
  2
LAYER
 70
1
  0
LAYER
  2
0
 70
64
 62
7
  6
continuous
  0
ENDTAB
  0
TABLE
  2
STYLE
 70
1
  0
STYLE
  2
STANDARD
 70
0
 40
0
 41
1.0
 50
0.0
 71
0
 42
1
 3
ARIAL.TTF
 4

  0
ENDTAB
  0
TABLE
  2
VIEW
 70
0
  0
ENDTAB
  0
ENDSEC
  0
SECTION
  2
BLOCKS
  0
BLOCK
  8
0
  2
SHAPE2DVIEW
 70
0
 10
0.0
 20
0.0
 30
0.0
  3
SHAPE2DVIEW
  0
LINE
  8
0
 62
0
 10
566.42
 20
-14.2875
 30
0.0
 11
566.42
 21
-224.155
 31
0.0
  0
LINE
  8
0
 62
0
 10
566.42
 20
-14.2875
 30
0.0
 11
520.7
 21
-14.2875
 31
0.0
  0
LINE
  8
0
 62
0
 10
566.42
 20
-224.155
 30
0.0
 11
0.0
 21
-224.155
 31
0.0
  0
LINE
  8
0
 62
0
 10
520.7
 20
-14.2875
 30
0.0
 11
520.7
 21
14.2875
 31
0.0
  0
LINE
  8
0
 62
0
 10
0.0
 20
-224.155
 30
0.0
 11
0.0
 21
224.155
 31
0.0
  0
LINE
  8
0
 62
0
 10
520.7
 20
14.2875
 30
0.0
 11
566.42
 21
14.2875
 31
0.0
  0
LINE
  8
0
 62
0
 10
0.0
 20
224.155
 30
0.0
 11
566.42
 21
224.155
 31
0.0
  0
LINE
  8
0
 62
0
 10
566.42
 20
224.155
 30
0.0
 11
566.42
 21
14.2875
 31
0.0
  0
LINE
  8
0
 62
0
 10
62.9955128136
 20
179.734615376
 30
0.0
 11
139.195512814
 21
116.234615376
 31
0.0
  0
ARC
  8
0
 62
0
 10
50.8
 20
165.1
 30
0.0
 40
19.05
 50
50.1944289077
 51
-129.805571092
  0
ARC
  8
0
 62
0
 10
127.0
 20
101.6
 30
0.0
 40
19.05
 50
-129.805571092
 51
50.1944289077
  0
LINE
  8
0
 62
0
 10
38.6044871864
 20
150.465384624
 30
0.0
 11
114.804487186
 21
86.9653846237
 31
0.0
  0
LINE
  8
0
 62
0
 10
189.487512814
 20
179.734615376
 30
0.0
 11
265.687512814
 21
116.234615376
 31
0.0
  0
ARC
  8
0
 62
0
 10
177.292
 20
165.1
 30
0.0
 40
19.05
 50
50.1944289077
 51
-129.805571092
  0
ARC
  8
0
 62
0
 10
253.492
 20
101.6
 30
0.0
 40
19.05
 50
-129.805571092
 51
50.1944289077
  0
LINE
  8
0
 62
0
 10
165.096487186
 20
150.465384624
 30
0.0
 11
241.296487186
 21
86.9653846237
 31
0.0
  0
LINE
  8
0
 62
0
 10
315.979512814
 20
179.734615376
 30
0.0
 11
392.179512814
 21
116.234615376
 31
0.0
  0
ARC
  8
0
 62
0
 10
303.784
 20
165.1
 30
0.0
 40
19.05
 50
50.1944289077
 51
-129.805571092
  0
ARC
  8
0
 62
0
 10
379.984
 20
101.6
 30
0.0
 40
19.05
 50
-129.805571092
 51
50.1944289077
  0
LINE
  8
0
 62
0
 10
291.588487186
 20
150.465384624
 30
0.0
 11
367.788487186
 21
86.9653846237
 31
0.0
  0
LINE
  8
0
 62
0
 10
392.179512814
 20
-116.234615376
 30
0.0
 11
315.979512814
 21
-179.734615376
 31
0.0
  0
ARC
  8
0
 62
0
 10
379.984
 20
-101.6
 30
0.0
 40
19.05
 50
-50.1944289078
 51
129.805571092
  0
ARC
  8
0
 62
0
 10
303.784
 20
-165.1
 30
0.0
 40
19.05
 50
129.805571092
 51
-50.1944289078
  0
LINE
  8
0
 62
0
 10
367.788487186
 20
-86.9653846237
 30
0.0
 11
291.588487186
 21
-150.465384624
 31
0.0
  0
LINE
  8
0
 62
0
 10
139.195512814
 20
-116.234615376
 30
0.0
 11
62.9955128136
 21
-179.734615376
 31
0.0
  0
ARC
  8
0
 62
0
 10
127.0
 20
-101.6
 30
0.0
 40
19.05
 50
-50.1944289078
 51
129.805571092
  0
ARC
  8
0
 62
0
 10
50.8
 20
-165.1
 30
0.0
 40
19.05
 50
129.805571092
 51
-50.1944289078
  0
LINE
  8
0
 62
0
 10
114.804487186
 20
-86.9653846237
 30
0.0
 11
38.6044871864
 21
-150.465384624
 31
0.0
  0
LINE
  8
0
 62
0
 10
265.687512814
 20
-116.234615376
 30
0.0
 11
189.487512814
 21
-179.734615376
 31
0.0
  0
ARC
  8
0
 62
0
 10
253.492
 20
-101.6
 30
0.0
 40
19.05
 50
-50.1944289078
 51
129.805571092
  0
ARC
  8
0
 62
0
 10
177.292
 20
-165.1
 30
0.0
 40
19.05
 50
129.805571092
 51
-50.1944289078
  0
LINE
  8
0
 62
0
 10
241.296487186
 20
-86.9653846237
 30
0.0
 11
165.096487186
 21
-150.465384624
 31
0.0
  0
LINE
  8
0
 62
0
 10
518.671512814
 20
-116.234615376
 30
0.0
 11
442.471512814
 21
-179.734615376
 31
0.0
  0
ARC
  8
0
 62
0
 10
430.276
 20
-165.1
 30
0.0
 40
19.05
 50
129.805571092
 51
-50.1944289078
  0
LINE
  8
0
 62
0
 10
494.280487186
 20
-86.9653846237
 30
0.0
 11
418.080487186
 21
-150.465384624
 31
0.0
  0
ARC
  8
0
 62
0
 10
506.476
 20
-101.6
 30
0.0
 40
19.05
 50
-50.1944289078
 51
129.805571092
  0
LINE
  8
0
 62
0
 10
442.471512814
 20
179.734615376
 30
0.0
 11
518.671512814
 21
116.234615376
 31
0.0
  0
ARC
  8
0
 62
0
 10
506.476
 20
101.6
 30
0.0
 40
19.05
 50
-129.805571092
 51
50.1944289077
  0
LINE
  8
0
 62
0
 10
418.080487186
 20
150.465384624
 30
0.0
 11
494.280487186
 21
86.9653846237
 31
0.0
  0
ARC
  8
0
 62
0
 10
430.276
 20
165.1
 30
0.0
 40
19.05
 50
50.1944289077
 51
-129.805571092
  0
ENDBLK
  0
ENDSEC
  0
SECTION
  2
ENTITIES
  0
INSERT
  2
SHAPE2DVIEW
  8
0
 62
0
 10
0.0
 20
0.0
 30
0.0
  0
ENDSEC
  0
EOF
