  0
SECTION
  2
HEADER
  9
$ACADVER
  1
AC1009
  9
$INSBASE
 10
0.0
 20
0.0
 30
0.0
  9
$EXTMIN
 10
0.0
 20
0.0
 30
0.0
  9
$EXTMAX
 10
0.0
 20
0.0
 30
0.0
  0
ENDSEC
  0
SECTION
  2
TABLES
  0
TABLE
  2
VPORT
 70
0
  0
ENDTAB
  0
TABLE
  2
LTYPE
 70
1
  0
LTYPE
  2
CONTINUOUS
 70
0
  3
Solid line
 72
65
 73
0
 40
0.0
  0
ENDTAB
  0
TABLE
  2
LAYER
 70
1
  0
LAYER
  2
0
 70
64
 62
7
  6
continuous
  0
ENDTAB
  0
TABLE
  2
STYLE
 70
1
  0
STYLE
  2
STANDARD
 70
0
 40
0
 41
1.0
 50
0.0
 71
0
 42
1
 3
ARIAL.TTF
 4

  0
ENDTAB
  0
TABLE
  2
VIEW
 70
0
  0
ENDTAB
  0
ENDSEC
  0
SECTION
  2
BLOCKS
  0
BLOCK
  8
0
  2
SHAPE2DVIEW003
 70
0
 10
0.0
 20
0.0
 30
0.0
  3
SHAPE2DVIEW003
  0
LINE
  8
0
 62
0
 10
-432.3
 20
747.745
 30
0.0
 11
-432.3
 21
1198.595
 31
0.0
  0
LINE
  8
0
 62
0
 10
-127.5
 20
747.745
 30
0.0
 11
-432.3
 21
747.745
 31
0.0
  0
LINE
  8
0
 62
0
 10
-432.3
 20
1198.595
 30
0.0
 11
-127.5
 21
1198.595
 31
0.0
  0
LINE
  8
0
 62
0
 10
-127.5
 20
1198.595
 30
0.0
 11
-127.5
 21
747.745
 31
0.0
  0
ARC
  8
0
 62
0
 10
-229.418251831
 20
973.17
 30
0.0
 40
19.05
 50
-180.0
 51
-135.0
  0
ARC
  8
0
 62
0
 10
-229.418251831
 20
973.17
 30
0.0
 40
19.05
 50
135.0
 51
180.0
  0
LINE
  8
0
 62
0
 10
-242.888636013
 20
986.640384182
 30
0.0
 11
-199.765750038
 21
1029.76327016
 31
0.0
  0
ARC
  8
0
 62
0
 10
-186.295365856
 20
1016.29288597
 30
0.0
 40
19.05
 50
-0.0
 51
135.0
  0
LINE
  8
0
 62
0
 10
-167.245365856
 20
1016.29288597
 30
0.0
 11
-167.245365856
 21
973.17
 31
0.0
  0
LINE
  8
0
 62
0
 10
-167.245365856
 20
930.047114025
 30
0.0
 11
-167.245365856
 21
973.17
 31
0.0
  0
ARC
  8
0
 62
0
 10
-186.295365856
 20
930.047114025
 30
0.0
 40
19.05
 50
-135.0
 51
0.0
  0
LINE
  8
0
 62
0
 10
-242.888636013
 20
959.699615818
 30
0.0
 11
-199.765750038
 21
916.576729843
 31
0.0
  0
ARC
  8
0
 62
0
 10
-299.846416238
 20
926.854834833
 30
0.0
 40
19.05
 50
45.0
 51
-135.0
  0
LINE
  8
0
 62
0
 10
-286.376032057
 20
940.325219015
 30
0.0
 11
-190.774551335
 21
844.723738293
 31
0.0
  0
LINE
  8
0
 62
0
 10
-313.31680042
 20
913.384450652
 30
0.0
 11
-217.715319698
 21
817.78296993
 31
0.0
  0
ARC
  8
0
 62
0
 10
-204.244935517
 20
831.253354112
 30
0.0
 40
19.05
 50
-135.0
 51
45.0
  0
LINE
  8
0
 62
0
 10
-348.979615818
 20
886.185473203
 30
0.0
 11
-276.389106567
 21
813.594963952
 31
0.0
  0
ARC
  8
0
 62
0
 10
-362.45
 20
872.715089021
 30
0.0
 40
19.05
 50
45.0
 51
-180.0
  0
ARC
  8
0
 62
0
 10
-289.859490749
 20
800.12457977
 30
0.0
 40
19.05
 50
-90.0
 51
45.0
  0
LINE
  8
0
 62
0
 10
-381.5
 20
790.103756725
 30
0.0
 11
-381.5
 21
872.715089021
 31
0.0
  0
LINE
  8
0
 62
0
 10
-289.859490749
 20
781.07457977
 30
0.0
 11
-372.470823045
 21
781.07457977
 31
0.0
  0
ARC
  8
0
 62
0
 10
-372.470823045
 20
790.103756725
 30
0.0
 40
9.02917695548
 50
-180.0
 51
-90.0
  0
ARC
  8
0
 62
0
 10
-204.244935517
 20
1115.08664589
 30
0.0
 40
19.05
 50
-45.0
 51
135.0
  0
LINE
  8
0
 62
0
 10
-286.376032057
 20
1006.01478099
 30
0.0
 11
-190.774551335
 21
1101.61626171
 31
0.0
  0
ARC
  8
0
 62
0
 10
-299.846416238
 20
1019.48516517
 30
0.0
 40
19.05
 50
135.0
 51
-45.0
  0
LINE
  8
0
 62
0
 10
-313.31680042
 20
1032.95554935
 30
0.0
 11
-217.715319698
 21
1128.55703007
 31
0.0
  0
ARC
  8
0
 62
0
 10
-372.470823045
 20
1156.23624327
 30
0.0
 40
9.02917695548
 50
90.0
 51
180.0
  0
LINE
  8
0
 62
0
 10
-289.859490749
 20
1165.26542023
 30
0.0
 11
-372.470823045
 21
1165.26542023
 31
0.0
  0
ARC
  8
0
 62
0
 10
-289.859490749
 20
1146.21542023
 30
0.0
 40
19.05
 50
-45.0
 51
90.0
  0
LINE
  8
0
 62
0
 10
-348.979615818
 20
1060.1545268
 30
0.0
 11
-276.389106567
 21
1132.74503605
 31
0.0
  0
ARC
  8
0
 62
0
 10
-362.45
 20
1073.62491098
 30
0.0
 40
19.05
 50
180.0
 51
-45.0
  0
LINE
  8
0
 62
0
 10
-381.5
 20
1156.23624327
 30
0.0
 11
-381.5
 21
1073.62491098
 31
0.0
  0
ENDBLK
  0
ENDSEC
  0
SECTION
  2
ENTITIES
  0
INSERT
  2
SHAPE2DVIEW003
  8
0
 62
0
 10
0.0
 20
0.0
 30
0.0
  0
ENDSEC
  0
EOF
