  0
SECTION
  2
HEADER
  9
$ACADVER
  1
AC1009
  9
$INSBASE
 10
0.0
 20
0.0
 30
0.0
  9
$EXTMIN
 10
0.0
 20
0.0
 30
0.0
  9
$EXTMAX
 10
0.0
 20
0.0
 30
0.0
  0
ENDSEC
  0
SECTION
  2
TABLES
  0
TABLE
  2
VPORT
 70
0
  0
ENDTAB
  0
TABLE
  2
LTYPE
 70
1
  0
LTYPE
  2
CONTINUOUS
 70
0
  3
Solid line
 72
65
 73
0
 40
0.0
  0
ENDTAB
  0
TABLE
  2
LAYER
 70
1
  0
LAYER
  2
0
 70
64
 62
7
  6
continuous
  0
ENDTAB
  0
TABLE
  2
STYLE
 70
1
  0
STYLE
  2
STANDARD
 70
0
 40
0
 41
1.0
 50
0.0
 71
0
 42
1
 3
ARIAL.TTF
 4

  0
ENDTAB
  0
TABLE
  2
VIEW
 70
0
  0
ENDTAB
  0
ENDSEC
  0
SECTION
  2
BLOCKS
  0
BLOCK
  8
0
  2
SHAPE2DVIEW
 70
0
 10
0.0
 20
0.0
 30
0.0
  3
SHAPE2DVIEW
  0
LINE
  8
0
 62
0
 10
254.0
 20
224.155
 30
0.0
 11
254.0
 21
-224.155
 31
0.0
  0
LINE
  8
0
 62
0
 10
-50.8
 20
224.155
 30
0.0
 11
254.0
 21
224.155
 31
0.0
  0
LINE
  8
0
 62
0
 10
254.0
 20
-224.155
 30
0.0
 11
-50.8
 21
-224.155
 31
0.0
  0
LINE
  8
0
 62
0
 10
-50.8
 20
-224.155
 30
0.0
 11
-50.8
 21
224.155
 31
0.0
  0
ARC
  8
0
 62
0
 10
51.1182518312
 20
1.700568e-11
 30
0.0
 40
19.05
 50
-45.0
 51
-0.0
  0
LINE
  8
0
 62
0
 10
64.5886360128
 20
-13.4703841816
 30
0.0
 11
21.4657500377
 21
-56.5932701566
 31
0.0
  0
ARC
  8
0
 62
0
 10
7.99536585612
 20
-43.122885975
 30
0.0
 40
19.05
 50
180.0
 51
-45.0
  0
LINE
  8
0
 62
0
 10
-11.0546341439
 20
-43.122885975
 30
0.0
 11
-11.0546341439
 21
-3.99325017497e-12
 31
0.0
  0
LINE
  8
0
 62
0
 10
-11.0546341439
 20
43.122885975
 30
0.0
 11
-11.0546341439
 21
4.00035560233e-12
 31
0.0
  0
ARC
  8
0
 62
0
 10
7.99536585612
 20
43.122885975
 30
0.0
 40
19.05
 50
45.0
 51
-180.0
  0
LINE
  8
0
 62
0
 10
64.5886360128
 20
13.4703841816
 30
0.0
 11
21.4657500377
 21
56.5932701566
 31
0.0
  0
ARC
  8
0
 62
0
 10
51.1182518312
 20
-1.7e-11
 30
0.0
 40
19.05
 50
0.0
 51
45.0
  0
ARC
  8
0
 62
0
 10
111.559490749
 20
-173.04542023
 30
0.0
 40
19.05
 50
135.0
 51
-90.0
  0
LINE
  8
0
 62
0
 10
170.679615818
 20
-86.9845267973
 30
0.0
 11
98.0891065673
 21
-159.575036048
 31
0.0
  0
ARC
  8
0
 62
0
 10
184.15
 20
-100.454910979
 30
0.0
 40
19.05
 50
-0.0
 51
135.0
  0
LINE
  8
0
 62
0
 10
203.2
 20
-183.066243275
 30
0.0
 11
203.2
 21
-100.454910979
 31
0.0
  0
ARC
  8
0
 62
0
 10
194.170823045
 20
-183.066243275
 30
0.0
 40
9.02917695548
 50
-90.0
 51
-0.0
  0
LINE
  8
0
 62
0
 10
111.559490749
 20
-192.09542023
 30
0.0
 11
194.170823045
 21
-192.09542023
 31
0.0
  0
ARC
  8
0
 62
0
 10
121.546416238
 20
-46.3151651667
 30
0.0
 40
19.05
 50
-45.0000000001
 51
135.0
  0
LINE
  8
0
 62
0
 10
135.01680042
 20
-59.7855493483
 30
0.0
 11
39.4153196981
 21
-155.38703007
 31
0.0
  0
ARC
  8
0
 62
0
 10
25.9449355165
 20
-141.916645888
 30
0.0
 40
19.05
 50
135.0
 51
-45.0
  0
LINE
  8
0
 62
0
 10
108.076032057
 20
-32.8447809851
 30
0.0
 11
12.4745513349
 21
-128.446261707
 31
0.0
  0
LINE
  8
0
 62
0
 10
111.559490749
 20
192.09542023
 30
0.0
 11
194.170823045
 21
192.09542023
 31
0.0
  0
ARC
  8
0
 62
0
 10
111.559490749
 20
173.04542023
 30
0.0
 40
19.05
 50
90.0
 51
-135.0
  0
ARC
  8
0
 62
0
 10
194.170823045
 20
183.066243275
 30
0.0
 40
9.02917695548
 50
0.0
 51
90.0
  0
LINE
  8
0
 62
0
 10
170.679615818
 20
86.9845267973
 30
0.0
 11
98.0891065673
 21
159.575036048
 31
0.0
  0
LINE
  8
0
 62
0
 10
203.2
 20
183.066243275
 30
0.0
 11
203.2
 21
100.454910979
 31
0.0
  0
ARC
  8
0
 62
0
 10
184.15
 20
100.454910979
 30
0.0
 40
19.05
 50
-135.0
 51
0.0
  0
LINE
  8
0
 62
0
 10
108.076032057
 20
32.8447809851
 30
0.0
 11
12.4745513349
 21
128.446261707
 31
0.0
  0
ARC
  8
0
 62
0
 10
121.546416238
 20
46.3151651667
 30
0.0
 40
19.05
 50
-135.0
 51
45.0000000001
  0
ARC
  8
0
 62
0
 10
25.9449355165
 20
141.916645888
 30
0.0
 40
19.05
 50
45.0
 51
-135.0
  0
LINE
  8
0
 62
0
 10
135.01680042
 20
59.7855493483
 30
0.0
 11
39.4153196981
 21
155.38703007
 31
0.0
  0
ENDBLK
  0
ENDSEC
  0
SECTION
  2
ENTITIES
  0
INSERT
  2
SHAPE2DVIEW
  8
0
 62
0
 10
0.0
 20
0.0
 30
0.0
  0
ENDSEC
  0
EOF
