  0
SECTION
  2
HEADER
  9
$ACADVER
  1
AC1009
  9
$INSBASE
 10
0.0
 20
0.0
 30
0.0
  9
$EXTMIN
 10
0.0
 20
0.0
 30
0.0
  9
$EXTMAX
 10
0.0
 20
0.0
 30
0.0
  0
ENDSEC
  0
SECTION
  2
TABLES
  0
TABLE
  2
VPORT
 70
0
  0
ENDTAB
  0
TABLE
  2
LTYPE
 70
1
  0
LTYPE
  2
CONTINUOUS
 70
0
  3
Solid line
 72
65
 73
0
 40
0.0
  0
ENDTAB
  0
TABLE
  2
LAYER
 70
1
  0
LAYER
  2
0
 70
64
 62
7
  6
continuous
  0
ENDTAB
  0
TABLE
  2
STYLE
 70
1
  0
STYLE
  2
STANDARD
 70
0
 40
0
 41
1.0
 50
0.0
 71
0
 42
1
 3
ARIAL.TTF
 4

  0
ENDTAB
  0
TABLE
  2
VIEW
 70
0
  0
ENDTAB
  0
ENDSEC
  0
SECTION
  2
BLOCKS
  0
BLOCK
  8
0
  2
SHAPE2DVIEW
 70
0
 10
0.0
 20
0.0
 30
0.0
  3
SHAPE2DVIEW
  0
LINE
  8
0
 62
0
 10
-117.841959634
 20
19.7220112368
 30
0.0
 11
-44.2384116703
 21
0.0
 31
0.0
  0
LINE
  8
0
 62
0
 10
-1.7763568394e-15
 20
165.1
 30
0.0
 11
-44.2384116703
 21
0.0
 31
0.0
  0
LINE
  8
0
 62
0
 10
-1.7763568394e-15
 20
165.1
 30
0.0
 11
-1.7763568394e-15
 21
800.1
 31
0.0
  0
LINE
  8
0
 62
0
 10
-1.7763568394e-15
 20
800.1
 30
0.0
 11
-69.85
 21
914.4
 31
0.0
  0
LINE
  8
0
 62
0
 10
-69.85
 20
914.4
 30
0.0
 11
-95.25
 21
863.6
 31
0.0
  0
LINE
  8
0
 62
0
 10
-95.25
 20
863.6
 30
0.0
 11
-76.2
 21
863.6
 31
0.0
  0
LINE
  8
0
 62
0
 10
-76.2
 20
863.6
 30
0.0
 11
-95.25
 21
825.5
 31
0.0
  0
LINE
  8
0
 62
0
 10
-95.25
 20
825.5
 30
0.0
 11
-76.2
 21
825.5
 31
0.0
  0
LINE
  8
0
 62
0
 10
-76.2
 20
825.5
 30
0.0
 11
-95.25
 21
787.4
 31
0.0
  0
LINE
  8
0
 62
0
 10
-95.25
 20
787.4
 30
0.0
 11
-76.2
 21
787.4
 31
0.0
  0
LINE
  8
0
 62
0
 10
-76.2
 20
787.4
 30
0.0
 11
-95.25
 21
749.3
 31
0.0
  0
LINE
  8
0
 62
0
 10
-95.25
 20
749.3
 30
0.0
 11
-95.25
 21
252.957335297
 31
0.0
  0
ARC
  8
0
 62
0
 10
-278.862770582
 20
252.957335297
 30
0.0
 40
183.612770582
 50
-105.000030043
 51
0.0
  0
LINE
  8
0
 62
0
 10
-326.385345529
 20
75.6010430744
 30
0.0
 11
-449.057925468
 21
108.471061802
 31
0.0
  0
LINE
  8
0
 62
0
 10
-449.057925468
 20
108.471061802
 30
0.0
 11
-468.779936705
 21
34.8675138391
 31
0.0
  0
LINE
  8
0
 62
0
 10
-468.779936705
 20
34.8675138391
 30
0.0
 11
-137.56397087
 21
-53.8815367264
 31
0.0
  0
LINE
  8
0
 62
0
 10
-117.841959634
 20
19.7220112368
 30
0.0
 11
-137.56397087
 21
-53.8815367264
 31
0.0
  0
CIRCLE
  8
0
 62
0
 10
-88.932823
 20
81.817619
 30
0.0
 40
38.1
  0
CIRCLE
  8
0
 62
0
 10
-185.122543
 20
20.645386
 30
0.0
 40
38.1
  0
CIRCLE
  8
0
 62
0
 10
-44.45
 20
629.36291502
 30
0.0
 40
28.575
  0
CIRCLE
  8
0
 62
0
 10
-44.45
 20
539.477035839
 30
0.0
 40
28.575
  0
CIRCLE
  8
0
 62
0
 10
-44.45
 20
359.705277477
 30
0.0
 40
28.575
  0
CIRCLE
  8
0
 62
0
 10
-44.45
 20
449.591156658
 30
0.0
 40
28.575
  0
CIRCLE
  8
0
 62
0
 10
-267.608765
 20
25.99172
 30
0.0
 40
23.895818398
  0
CIRCLE
  8
0
 62
0
 10
-44.45
 20
711.2
 30
0.0
 40
19.8755
  0
CIRCLE
  8
0
 62
0
 10
-52.0947434328
 20
180.259199691
 30
0.0
 40
19.05
  0
CIRCLE
  8
0
 62
0
 10
-332.824630297
 20
34.8152453016
 30
0.0
 40
19.05
  0
CIRCLE
  8
0
 62
0
 10
-397.596244717
 20
52.1707470777
 30
0.0
 40
19.05
  0
CIRCLE
  8
0
 62
0
 10
-44.45
 20
269.819398295
 30
0.0
 40
19.05
  0
ENDBLK
  0
ENDSEC
  0
SECTION
  2
ENTITIES
  0
INSERT
  2
SHAPE2DVIEW
  8
0
 62
0
 10
0.0
 20
0.0
 30
0.0
  0
ENDSEC
  0
EOF
