  0
SECTION
  2
HEADER
  9
$ACADVER
  1
AC1009
  9
$INSBASE
 10
0.0
 20
0.0
 30
0.0
  9
$EXTMIN
 10
0.0
 20
0.0
 30
0.0
  9
$EXTMAX
 10
0.0
 20
0.0
 30
0.0
  0
ENDSEC
  0
SECTION
  2
TABLES
  0
TABLE
  2
VPORT
 70
0
  0
ENDTAB
  0
TABLE
  2
LTYPE
 70
1
  0
LTYPE
  2
CONTINUOUS
 70
0
  3
Solid line
 72
65
 73
0
 40
0.0
  0
ENDTAB
  0
TABLE
  2
LAYER
 70
1
  0
LAYER
  2
0
 70
64
 62
7
  6
continuous
  0
ENDTAB
  0
TABLE
  2
STYLE
 70
1
  0
STYLE
  2
STANDARD
 70
0
 40
0
 41
1.0
 50
0.0
 71
0
 42
1
 3
ARIAL.TTF
 4

  0
ENDTAB
  0
TABLE
  2
VIEW
 70
0
  0
ENDTAB
  0
ENDSEC
  0
SECTION
  2
BLOCKS
  0
BLOCK
  8
0
  2
SHAPE2DVIEW
 70
0
 10
0.0
 20
0.0
 30
0.0
  3
SHAPE2DVIEW
  0
LINE
  8
0
 62
0
 10
-381.0
 20
-225.298
 30
0.0
 11
-381.0
 21
225.298
 31
0.0
  0
LINE
  8
0
 62
0
 10
-279.4
 20
-225.298
 30
0.0
 11
-381.0
 21
-225.298
 31
0.0
  0
LINE
  8
0
 62
0
 10
-381.0
 20
225.298
 30
0.0
 11
-279.4
 21
225.298
 31
0.0
  0
LINE
  8
0
 62
0
 10
-279.4
 20
-225.298
 30
0.0
 11
-279.4
 21
-195.637986176
 31
0.0
  0
ARC
  8
0
 62
0
 10
-6.40998324127e-15
 20
0.0
 30
0.0
 40
341.0844201
 50
-145.017542737
 51
-145.0
  0
LINE
  8
0
 62
0
 10
-293.415253
 20
-190.854721
 30
0.0
 11
-279.459887052
 21
-195.552430728
 31
0.0
  0
LINE
  8
0
 62
0
 10
-292.052348139
 20
-176.193097428
 30
0.0
 11
-293.415253
 21
-190.854721
 31
0.0
  0
ARC
  8
0
 62
0
 10
-6.40998324127e-15
 20
0.0
 30
0.0
 40
341.0844201
 50
-148.899895678
 51
-148.897719105
  0
LINE
  8
0
 62
0
 10
-305.664309578
 20
-170.55018344
 30
0.0
 11
-292.059041217
 21
-176.182002708
 31
0.0
  0
LINE
  8
0
 62
0
 10
-303.311823109
 20
-156.014485217
 30
0.0
 11
-305.664309578
 21
-170.55018344
 31
0.0
  0
ARC
  8
0
 62
0
 10
-6.40998324127e-15
 20
0.0
 30
0.0
 40
341.0844201
 50
-152.782248619
 51
-152.780072046
  0
LINE
  8
0
 62
0
 10
-316.51047712
 20
-149.462881995
 30
0.0
 11
-303.317749626
 21
-156.002962782
 31
0.0
  0
LINE
  8
0
 62
0
 10
-313.179206108
 20
-135.119822738
 30
0.0
 11
-316.51047712
 21
-149.462881995
 31
0.0
  0
ARC
  8
0
 62
0
 10
-6.40998324127e-15
 20
0.0
 30
0.0
 40
341.0844201
 50
-156.664601561
 51
-156.662424987
  0
LINE
  8
0
 62
0
 10
-325.903975626
 20
-127.689599781
 30
0.0
 11
-313.184338864
 21
-135.107925472
 31
0.0
  0
LINE
  8
0
 62
0
 10
-321.609209404
 20
-113.605008963
 30
0.0
 11
-325.903975626
 21
-127.689599781
 31
0.0
  0
ARC
  8
0
 62
0
 10
-6.40998324127e-15
 20
0.0
 30
0.0
 40
341.0844201
 50
-160.546954502
 51
-160.544777928
  0
LINE
  8
0
 62
0
 10
-333.801692323
 20
-105.330268317
 30
0.0
 11
-321.613524841
 21
-113.59279147
 31
0.0
  0
LINE
  8
0
 62
0
 10
-328.56314232
 20
-91.5687891339
 30
0.0
 11
-333.801692323
 21
-105.330268317
 31
0.0
  0
ARC
  8
0
 62
0
 10
-6.40998324127e-15
 20
0.0
 30
0.0
 40
341.0844201
 50
-164.429307443
 51
-164.42713087
  0
LINE
  8
0
 62
0
 10
-340.167379536
 20
-82.4875088758
 30
0.0
 11
-328.566620633
 21
-91.5563074888
 31
0.0
  0
LINE
  8
0
 62
0
 10
-334.009088811
 20
-69.1123015593
 30
0.0
 11
-340.167379536
 21
-82.4875088758
 31
0.0
  0
ARC
  8
0
 62
0
 10
-6.40998324127e-15
 20
0.0
 30
0.0
 40
341.0844201
 50
-168.311660384
 51
-168.309483811
  0
LINE
  8
0
 62
0
 10
-344.971821056
 20
-59.2661614936
 30
0.0
 11
-334.011714033
 21
-69.0996130478
 31
0.0
  0
LINE
  8
0
 62
0
 10
-337.922053943
 20
-46.3386134251
 30
0.0
 11
-344.971821056
 21
-59.2661614936
 31
0.0
  0
ARC
  8
0
 62
0
 10
-6.40998324127e-15
 20
0.0
 30
0.0
 40
341.0844201
 50
-172.194013325
 51
-172.191836752
  0
LINE
  8
0
 62
0
 10
-348.192966227
 20
-35.7728037865
 30
0.0
 11
-337.923814027
 21
-46.3257762828
 31
0.0
  0
LINE
  8
0
 62
0
 10
-340.284078616
 20
-23.3522477533
 30
0.0
 11
-348.192966227
 21
-35.7728037865
 31
0.0
  0
ARC
  8
0
 62
0
 10
-6.40998324127e-15
 20
0.0
 30
0.0
 40
341.0844201
 50
-176.076366267
 51
-176.074189693
  0
LINE
  8
0
 62
0
 10
-349.816031154
 20
-12.1152618007
 30
0.0
 11
-340.284965485
 21
-23.3393208981
 31
0.0
  0
LINE
  8
0
 62
0
 10
-341.08432199
 20
-0.258703679188
 30
0.0
 11
-349.816031154
 21
-12.1152618007
 31
0.0
  0
ARC
  8
0
 62
0
 10
-6.40998324127e-15
 20
0.0
 30
0.0
 40
341.0844201
 50
-179.958719208
 51
-179.956542634
  0
LINE
  8
0
 62
0
 10
-349.833566554
 20
11.597884871
 30
0.0
 11
-341.084331572
 21
-0.245746440766
 31
0.0
  0
LINE
  8
0
 62
0
 10
-340.319111235
 20
22.8360277516
 30
0.0
 11
-349.833566554
 21
11.597884871
 31
0.0
  0
ARC
  8
0
 62
0
 10
-6.40998324127e-15
 20
0.0
 30
0.0
 40
341.0844201
 50
176.158927851
 51
176.161104425
  0
LINE
  8
0
 62
0
 10
-348.245491944
 20
35.2578014305
 30
0.0
 11
-340.318243485
 21
22.8489559042
 31
0.0
  0
LINE
  8
0
 62
0
 10
-337.991958392
 20
45.8259500438
 30
0.0
 11
-348.245491944
 21
35.2578014305
 31
0.0
  0
ARC
  8
0
 62
0
 10
-6.40998324127e-15
 20
0.0
 30
0.0
 40
341.0844201
 50
172.27657491
 51
172.278751483
  0
LINE
  8
0
 62
0
 10
-345.059096016
 20
58.7558973865
 30
0.0
 11
-337.990217295
 21
45.8387897752
 31
0.0
  0
LINE
  8
0
 62
0
 10
-334.113544255
 20
68.6055477387
 30
0.0
 11
-345.059096016
 21
58.7558973865
 31
0.0
  0
ARC
  8
0
 62
0
 10
-6.40998324127e-15
 20
0.0
 30
0.0
 40
341.0844201
 50
168.394221969
 51
168.396398542
  0
LINE
  8
0
 62
0
 10
-340.289003178
 20
81.984324946
 30
0.0
 11
-334.1109378
 21
68.6182401189
 31
0.0
  0
LINE
  8
0
 62
0
 10
-328.701669346
 20
91.0702706913
 30
0.0
 11
-340.289003178
 21
81.984324946
 31
0.0
  0
ARC
  8
0
 62
0
 10
-6.40998324127e-15
 20
0.0
 30
0.0
 40
341.0844201
 50
164.511869028
 51
164.514045601
  0
LINE
  8
0
 62
0
 10
-333.957106439
 20
104.836473997
 30
0.0
 11
-328.698209498
 21
91.082757467
 31
0.0
  0
LINE
  8
0
 62
0
 10
-321.781172223
 20
113.117013918
 30
0.0
 11
-333.957106439
 21
104.836473997
 31
0.0
  0
ARC
  8
0
 62
0
 10
-6.40998324127e-15
 20
0.0
 30
0.0
 40
341.0844201
 50
160.629516086
 51
160.63169266
  0
LINE
  8
0
 62
0
 10
-326.092466921
 20
127.20746141
 30
0.0
 11
-321.776874859
 21
113.12923778
 31
0.0
  0
LINE
  8
0
 62
0
 10
-313.383815472
 20
134.644590813
 30
0.0
 11
-326.092466921
 21
127.20746141
 31
0.0
  0
ARC
  8
0
 62
0
 10
-6.40998324127e-15
 20
0.0
 30
0.0
 40
341.0844201
 50
156.747163145
 51
156.749339719
  0
LINE
  8
0
 62
0
 10
-316.731180487
 20
148.994612414
 30
0.0
 11
-313.378700317
 21
134.656495657
 31
0.0
  0
LINE
  8
0
 62
0
 10
-303.548139935
 20
155.554197555
 30
0.0
 11
-316.731180487
 21
148.994612414
 31
0.0
  0
ARC
  8
0
 62
0
 10
-6.40998324127e-15
 20
0.0
 30
0.0
 40
341.0844201
 50
152.864810204
 51
152.866986777
  0
LINE
  8
0
 62
0
 10
-305.916212068
 20
170.097931836
 30
0.0
 11
-303.542230465
 21
155.565728742
 31
0.0
  0
LINE
  8
0
 62
0
 10
-292.319287819
 20
175.749866583
 30
0.0
 11
-305.916212068
 21
170.097931836
 31
0.0
  0
ARC
  8
0
 62
0
 10
-6.40998324127e-15
 20
0.0
 30
0.0
 40
341.0844201
 50
148.982457263
 51
148.984633836
  0
LINE
  8
0
 62
0
 10
-293.697198472
 20
190.420563046
 30
0.0
 11
-292.312611156
 21
175.76097119
 31
0.0
  0
LINE
  8
0
 62
0
 10
-279.748795508
 20
195.138907055
 30
0.0
 11
-293.697198472
 21
190.420563046
 31
0.0
  0
ARC
  8
0
 62
0
 10
-6.40998324127e-15
 20
0.0
 30
0.0
 40
341.0844201
 50
145.0
 51
145.102280895
  0
LINE
  8
0
 62
0
 10
-279.4
 20
225.298
 30
0.0
 11
-279.4
 21
195.637986176
 31
0.0
  0
ENDBLK
  0
ENDSEC
  0
SECTION
  2
ENTITIES
  0
INSERT
  2
SHAPE2DVIEW
  8
0
 62
0
 10
0.0
 20
0.0
 30
0.0
  0
ENDSEC
  0
EOF
