  0
SECTION
  2
HEADER
  9
$ACADVER
  1
AC1014
  9
$HANDSEED
  5
FFFF
  9
$MEASUREMENT
 70
     1
  0
ENDSEC
  0
SECTION
  2
TABLES
  0
TABLE
  2
VPORT
  5
8
330
0
100
AcDbSymbolTable
 70
     4
  0
VPORT
  5
2E
330
8
100
AcDbSymbolTableRecord
100
AcDbViewportTableRecord
  2
*ACTIVE
 70
     0
 10
0.0
 20
0.0
 11
1.0
 21
1.0
 12
210.0
 22
148.5
 13
0.0
 23
0.0
 14
10.0
 24
10.0
 15
10.0
 25
10.0
 16
0.0
 26
0.0
 36
1.0
 17
0.0
 27
0.0
 37
0.0
 40
341.0
 41
1.24
 42
50.0
 43
0.0
 44
0.0
 50
0.0
 51
0.0
 71
     0
 72
   100
 73
     1
 74
     3
 75
     0
 76
     0
 77
     0
 78
     0
  0
ENDTAB
  0
TABLE
  2
LTYPE
  5
5
330
0
100
AcDbSymbolTable
 70
     1
  0
LTYPE
  5
14
330
5
100
AcDbSymbolTableRecord
100
AcDbLinetypeTableRecord
  2
BYBLOCK
 70
     0
  3

 72
    65
 73
     0
 40
0.0
  0
LTYPE
  5
15
330
5
100
AcDbSymbolTableRecord
100
AcDbLinetypeTableRecord
  2
BYLAYER
 70
     0
  3

 72
    65
 73
     0
 40
0.0
  0
LTYPE
  5
16
330
5
100
AcDbSymbolTableRecord
100
AcDbLinetypeTableRecord
  2
CONTINUOUS
 70
     0
  3
Solid line
 72
    65
 73
     0
 40
0.0
  0
ENDTAB
  0
TABLE
  2
LAYER
  5
2
100
AcDbSymbolTable
 70
2
  0
LAYER
  5
50
100
AcDbSymbolTableRecord
100
AcDbLayerTableRecord
  2
0
 70
0
  6
CONTINUOUS
  0
LAYER
  5
51
100
AcDbSymbolTableRecord
100
AcDbLayerTableRecord
  2
Layer_1
 70
0
  6
CONTINUOUS
  0
ENDTAB
  0
TABLE
  2
STYLE
  5
3
330
0
100
AcDbSymbolTable
 70
     1
  0
STYLE
  5
11
330
3
100
AcDbSymbolTableRecord
100
AcDbTextStyleTableRecord
  2
STANDARD
 70
     0
 40
0.0
 41
1.0
 50
0.0
 71
     0
 42
2.5
  3
txt
  4

  0
ENDTAB
  0
TABLE
  2
VIEW
  5
6
330
0
100
AcDbSymbolTable
 70
     0
  0
ENDTAB
  0
TABLE
  2
UCS
  5
7
330
0
100
AcDbSymbolTable
 70
     0
  0
ENDTAB
  0
TABLE
  2
APPID
  5
9
330
0
100
AcDbSymbolTable
 70
     2
  0
APPID
  5
12
330
9
100
AcDbSymbolTableRecord
100
AcDbRegAppTableRecord
  2
ACAD
 70
     0
  0
ENDTAB
  0
TABLE
  2
DIMSTYLE
  5
A
330
0
100
AcDbSymbolTable
 70
     1
  0
DIMSTYLE
105
27
330
A
100
AcDbSymbolTableRecord
100
AcDbDimStyleTableRecord
  2
ISO-25
 70
     0
  3

  4

  5

  6

  7

 40
1.0
 41
2.5
 42
0.625
 43
3.75
 44
1.25
 45
0.0
 46
0.0
 47
0.0
 48
0.0
140
2.5
141
2.5
142
0.0
143
0.03937007874016
144
1.0
145
0.0
146
1.0
147
0.625
 71
     0
 72
     0
 73
     0
 74
     0
 75
     0
 76
     0
 77
     1
 78
     8
170
     0
171
     3
172
     1
173
     0
174
     0
175
     0
176
     0
177
     0
178
     0
270
     2
271
     2
272
     2
273
     2
274
     3
340
11
275
     0
280
     0
281
     0
282
     0
283
     0
284
     8
285
     0
286
     0
287
     3
288
     0
  0
ENDTAB
  0
TABLE
  2
BLOCK_RECORD
  5
1
330
0
100
AcDbSymbolTable
 70
     1
  0
BLOCK_RECORD
  5
1F
330
1
100
AcDbSymbolTableRecord
100
AcDbBlockTableRecord
  2
*MODEL_SPACE
  0
BLOCK_RECORD
  5
1B
330
1
100
AcDbSymbolTableRecord
100
AcDbBlockTableRecord
  2
*PAPER_SPACE
  0
ENDTAB
  0
ENDSEC
  0
SECTION
  2
BLOCKS
  0
BLOCK
  5
20
330
1F
100
AcDbEntity
  8
0
100
AcDbBlockBegin
  2
*MODEL_SPACE
 70
     0
 10
0.0
 20
0.0
 30
0.0
  3
*MODEL_SPACE
  1

  0
ENDBLK
  5
21
330
1F
100
AcDbEntity
  8
0
100
AcDbBlockEnd
  0
BLOCK
  5
1C
330
1B
100
AcDbEntity
 67
     1
  8
0
100
AcDbBlockBegin
  2
*PAPER_SPACE
  1

  0
ENDBLK
  5
1D
330
1B
100
AcDbEntity
 67
     1
  8
0
100
AcDbBlockEnd
  0
ENDSEC
  0
SECTION
  2
ENTITIES
  0
LWPOLYLINE
  5
100
100
AcDbEntity
  8
Layer_1
 62
1
100
AcDbPolyline
 90
13
 70
0
 10
-34.909428
 20
2.920438
 30
0.0
 10
-31.820298
 20
-11.340261
 30
0.0
 10
-23.925919
 20
-23.044491
 30
0.0
 10
-12.320859
 20
-31.083950
 30
0.0
 10
1.900280
 20
-34.350350
 30
0.0
 10
9.317810
 20
-33.880770
 30
0.0
 10
16.308870
 20
-32.047630
 30
0.0
 10
22.727639
 20
-28.979950
 30
0.0
 10
28.428269
 20
-24.806750
 30
0.0
 10
33.264949
 20
-19.657041
 30
0.0
 10
37.091829
 20
-13.659861
 30
0.0
 10
39.763099
 20
-6.944231
 30
0.0
 10
41.132919
 20
0.360829
 30
0.0
  0
LWPOLYLINE
  5
101
100
AcDbEntity
  8
Layer_1
 62
1
100
AcDbPolyline
 90
33
 70
0
 10
41.132429
 20
0.360689
 30
0.0
 10
44.657879
 20
61.953326
 30
0.0
 10
48.273248
 20
119.419704
 30
0.0
 10
52.032748
 20
172.905902
 30
0.0
 10
55.990578
 20
222.557960
 30
0.0
 10
60.200958
 20
268.521948
 30
0.0
 10
64.718108
 20
310.943946
 30
0.0
 10
69.596238
 20
349.970005
 30
0.0
 10
74.889557
 20
385.746183
 30
0.0
 10
80.652267
 20
418.418562
 30
0.0
 10
86.938607
 20
448.133191
 30
0.0
 10
93.802767
 20
475.036130
 30
0.0
 10
101.298976
 20
499.273459
 30
0.0
 10
109.481436
 20
520.991238
 30
0.0
 10
118.404366
 20
540.335517
 30
0.0
 10
128.121965
 20
557.452376
 30
0.0
 10
138.688465
 20
572.487876
 30
0.0
 10
150.158064
 20
585.588075
 30
0.0
 10
162.584994
 20
596.899035
 30
0.0
 10
176.023443
 20
606.566834
 30
0.0
 10
190.527633
 20
614.737514
 30
0.0
 10
206.151792
 20
621.557164
 30
0.0
 10
222.950111
 20
627.171823
 30
0.0
 10
240.976811
 20
631.727573
 30
0.0
 10
260.286110
 20
635.370473
 30
0.0
 10
280.932219
 20
638.246593
 30
0.0
 10
302.969338
 20
640.501973
 30
0.0
 10
326.451697
 20
642.282703
 30
0.0
 10
351.433506
 20
643.734843
 30
0.0
 10
377.968965
 20
645.004443
 30
0.0
 10
406.112304
 20
646.237583
 30
0.0
 10
435.917719
 20
647.580313
 30
0.0
 10
467.439434
 20
649.178703
 30
0.0
  0
LWPOLYLINE
  5
102
100
AcDbEntity
  8
Layer_1
 62
1
100
AcDbPolyline
 90
2
 70
0
 10
482.998679
 20
652.214652
 30
0.0
 10
467.439434
 20
649.178703
 30
0.0
  0
LWPOLYLINE
  5
103
100
AcDbEntity
  8
Layer_1
 62
1
100
AcDbPolyline
 90
2
 70
0
 10
476.635396
 20
665.399832
 30
0.0
 10
482.998679
 20
652.214652
 30
0.0
  0
LWPOLYLINE
  5
104
100
AcDbEntity
  8
Layer_1
 62
1
100
AcDbPolyline
 90
2
 70
0
 10
485.195926
 20
666.686822
 30
0.0
 10
476.635396
 20
665.399832
 30
0.0
  0
LWPOLYLINE
  5
105
100
AcDbEntity
  8
Layer_1
 62
1
100
AcDbPolyline
 90
2
 70
0
 10
478.322992
 20
677.100391
 30
0.0
 10
485.195926
 20
666.686822
 30
0.0
  0
LWPOLYLINE
  5
106
100
AcDbEntity
  8
Layer_1
 62
1
100
AcDbPolyline
 90
2
 70
0
 10
488.528245
 20
683.973321
 30
0.0
 10
478.322992
 20
677.100391
 30
0.0
  0
LWPOLYLINE
  5
107
100
AcDbEntity
  8
Layer_1
 62
1
100
AcDbPolyline
 90
2
 70
0
 10
478.947803
 20
694.178581
 30
0.0
 10
488.528245
 20
683.973321
 30
0.0
  0
LWPOLYLINE
  5
108
100
AcDbEntity
  8
Layer_1
 62
1
100
AcDbPolyline
 90
2
 70
0
 10
486.445550
 20
707.507860
 30
0.0
 10
478.947803
 20
694.178581
 30
0.0
  0
LWPOLYLINE
  5
109
100
AcDbEntity
  8
Layer_1
 62
1
100
AcDbPolyline
 90
31
 70
0
 10
-34.909428
 20
2.920438
 30
0.0
 10
-30.332658
 20
89.525395
 30
0.0
 10
-26.582009
 20
169.085592
 30
0.0
 10
-23.319949
 20
241.881479
 30
0.0
 10
-20.208939
 20
308.193506
 30
0.0
 10
-16.911419
 20
368.302134
 30
0.0
 10
-13.089859
 20
422.487812
 30
0.0
 10
-8.406719
 20
471.030980
 30
0.0
 10
-2.524450
 20
514.212108
 30
0.0
 10
7.594200
 20
563.269076
 30
0.0
 10
21.131510
 20
604.189184
 30
0.0
 10
38.853139
 20
637.608613
 30
0.0
 10
61.524808
 20
664.163552
 30
0.0
 10
79.588887
 20
678.249831
 30
0.0
 10
100.367896
 20
689.801621
 30
0.0
 10
128.520715
 20
700.375351
 30
0.0
 10
161.075504
 20
708.006150
 30
0.0
 10
187.391833
 20
711.838890
 30
0.0
 10
216.298952
 20
714.414800
 30
0.0
 10
235.764201
 20
715.436400
 30
0.0
 10
256.328260
 20
716.035900
 30
0.0
 10
278.023609
 20
716.240400
 30
0.0
 10
300.882708
 20
716.076900
 30
0.0
 10
320.942368
 20
715.676500
 30
0.0
 10
341.859807
 20
715.052700
 30
0.0
 10
363.654096
 20
714.221500
 30
0.0
 10
386.344295
 20
713.198700
 30
0.0
 10
409.949480
 20
712.000050
 30
0.0
 10
434.488706
 20
710.641480
 30
0.0
 10
459.981041
 20
709.138800
 30
0.0
 10
486.445550
 20
707.507860
 30
0.0
  0
LWPOLYLINE
  5
10a
100
AcDbEntity
  8
Layer_1
 62
1
100
AcDbPolyline
 90
4
 70
1
 10
104.781916
 20
562.532466
 30
0.0
 10
58.582568
 20
587.097095
 30
0.0
 10
83.147197
 20
633.296443
 30
0.0
 10
129.346545
 20
608.731814
 30
0.0
  0
LWPOLYLINE
  5
10b
100
AcDbEntity
  8
Layer_1
 62
1
100
AcDbPolyline
 90
32
 70
1
 10
20.961910
 20
3.732468
 30
0.0
 10
20.600680
 20
7.315758
 30
0.0
 10
19.564670
 20
10.653248
 30
0.0
 10
17.925360
 20
13.673438
 30
0.0
 10
15.754270
 20
16.304828
 30
0.0
 10
13.122880
 20
18.475918
 30
0.0
 10
10.102690
 20
20.115228
 30
0.0
 10
6.765200
 20
21.151238
 30
0.0
 10
3.181910
 20
21.512468
 30
0.0
 10
-0.401380
 20
21.151238
 30
0.0
 10
-3.738869
 20
20.115228
 30
0.0
 10
-6.759059
 20
18.475928
 30
0.0
 10
-9.390449
 20
16.304828
 30
0.0
 10
-11.561539
 20
13.673438
 30
0.0
 10
-13.200849
 20
10.653248
 30
0.0
 10
-14.236859
 20
7.315758
 30
0.0
 10
-14.598089
 20
3.732468
 30
0.0
 10
-14.236859
 20
0.149179
 30
0.0
 10
-13.200849
 20
-3.188311
 30
0.0
 10
-11.561549
 20
-6.208501
 30
0.0
 10
-9.390449
 20
-8.839891
 30
0.0
 10
-6.759059
 20
-11.010981
 30
0.0
 10
-3.738869
 20
-12.650291
 30
0.0
 10
-0.401380
 20
-13.686301
 30
0.0
 10
3.181910
 20
-14.047531
 30
0.0
 10
6.765200
 20
-13.686301
 30
0.0
 10
10.102690
 20
-12.650291
 30
0.0
 10
13.122880
 20
-11.010991
 30
0.0
 10
15.754270
 20
-8.839891
 30
0.0
 10
17.925370
 20
-6.208501
 30
0.0
 10
19.564670
 20
-3.188311
 30
0.0
 10
20.600680
 20
0.149179
 30
0.0
  0
LWPOLYLINE
  5
10c
100
AcDbEntity
  8
Layer_1
 62
1
100
AcDbPolyline
 90
16
 70
1
 10
399.612404
 20
678.254811
 30
0.0
 10
398.299994
 20
684.755401
 30
0.0
 10
394.720945
 20
690.063851
 30
0.0
 10
389.412495
 20
693.642901
 30
0.0
 10
382.911905
 20
694.955311
 30
0.0
 10
376.411315
 20
693.642901
 30
0.0
 10
371.102866
 20
690.063851
 30
0.0
 10
367.523816
 20
684.755401
 30
0.0
 10
366.211406
 20
678.254811
 30
0.0
 10
367.523816
 20
671.754222
 30
0.0
 10
371.102866
 20
666.445772
 30
0.0
 10
376.411315
 20
662.866722
 30
0.0
 10
382.911905
 20
661.554312
 30
0.0
 10
389.412495
 20
662.866722
 30
0.0
 10
394.720945
 20
666.445772
 30
0.0
 10
398.299994
 20
671.754222
 30
0.0
  0
ENDSEC
  0
SECTION
  2
OBJECTS
  0
DICTIONARY
  5
C
330
0
100
AcDbDictionary
  3
ACAD_GROUP
350
D
  3
ACAD_MLINESTYLE
350
17
  0
DICTIONARY
  5
D
330
C
100
AcDbDictionary
  0
DICTIONARY
  5
1A
330
C
100
AcDbDictionary
  0
DICTIONARY
  5
17
330
C
100
AcDbDictionary
  3
STANDARD
350
18
  0
DICTIONARY
  5
19
330
C
100
AcDbDictionary
  0
ENDSEC
  0
EOF
