  0
SECTION
  2
HEADER
  9
$ACADVER
  1
AC1009
  9
$INSBASE
 10
0.0
 20
0.0
 30
0.0
  9
$EXTMIN
 10
0.0
 20
0.0
 30
0.0
  9
$EXTMAX
 10
0.0
 20
0.0
 30
0.0
  0
ENDSEC
  0
SECTION
  2
TABLES
  0
TABLE
  2
VPORT
 70
0
  0
ENDTAB
  0
TABLE
  2
LTYPE
 70
1
  0
LTYPE
  2
CONTINUOUS
 70
0
  3
Solid line
 72
65
 73
0
 40
0.0
  0
ENDTAB
  0
TABLE
  2
LAYER
 70
1
  0
LAYER
  2
0
 70
64
 62
7
  6
continuous
  0
ENDTAB
  0
TABLE
  2
STYLE
 70
1
  0
STYLE
  2
STANDARD
 70
0
 40
0
 41
1.0
 50
0.0
 71
0
 42
1
 3
ARIAL.TTF
 4

  0
ENDTAB
  0
TABLE
  2
VIEW
 70
0
  0
ENDTAB
  0
ENDSEC
  0
SECTION
  2
BLOCKS
  0
BLOCK
  8
0
  2
SKETCH001
 70
0
 10
0.0
 20
0.0
 30
0.0
  3
SKETCH001
  0
POLYLINE
  8
0
 62
7
 70
1
 66
1
 10
0.0
 20
0.0
 30
0.0
  0
VERTEX
  8
0
 10
289.86561361
 20
-5.61796345666e-11
 30
544.821345263
 42
-0.946492196433
  0
VERTEX
  8
0
 10
287.305858767
 20
-4.82977402123e-11
 30
468.779493153
  0
VERTEX
  8
0
 10
291.651739702
 20
-4.82730849586e-11
 30
468.54018843
  0
VERTEX
  8
0
 10
295.977693006
 20
-4.82484107227e-11
 30
468.300699466
  0
VERTEX
  8
0
 10
300.283765373
 20
-4.82237157191e-11
 30
468.061008929
  0
VERTEX
  8
0
 10
304.570003494
 20
-4.81989981623e-11
 30
467.82109949
  0
VERTEX
  8
0
 10
308.836454065
 20
-4.81742562666e-11
 30
467.580953817
  0
VERTEX
  8
0
 10
313.083163777
 20
-4.81494882466e-11
 30
467.340554581
  0
VERTEX
  8
0
 10
317.310179325
 20
-4.81246923167e-11
 30
467.09988445
  0
VERTEX
  8
0
 10
321.517547402
 20
-4.80998666913e-11
 30
466.858926094
  0
VERTEX
  8
0
 10
325.705314702
 20
-4.80750095849e-11
 30
466.617662182
  0
VERTEX
  8
0
 10
329.873527917
 20
-4.80501192119e-11
 30
466.376075383
  0
VERTEX
  8
0
 10
334.022233741
 20
-4.80251937868e-11
 30
466.134148368
  0
VERTEX
  8
0
 10
338.151478867
 20
-4.80002315241e-11
 30
465.891863805
  0
VERTEX
  8
0
 10
342.261309989
 20
-4.79752306381e-11
 30
465.649204364
  0
VERTEX
  8
0
 10
346.351773801
 20
-4.79501893433e-11
 30
465.406152713
  0
VERTEX
  8
0
 10
350.422916995
 20
-4.79251058543e-11
 30
465.162691524
  0
VERTEX
  8
0
 10
354.474786265
 20
-4.78999783853e-11
 30
464.918803464
  0
VERTEX
  8
0
 10
358.507428304
 20
-4.7874805151e-11
 30
464.674471203
  0
VERTEX
  8
0
 10
362.520889806
 20
-4.78495843657e-11
 30
464.429677412
  0
VERTEX
  8
0
 10
366.515217464
 20
-4.78243142438e-11
 30
464.184404758
  0
VERTEX
  8
0
 10
370.490457972
 20
-4.77989929999e-11
 30
463.938635911
  0
VERTEX
  8
0
 10
374.446658022
 20
-4.77736188483e-11
 30
463.692353542
  0
VERTEX
  8
0
 10
378.383864308
 20
-4.77481900035e-11
 30
463.445540318
  0
VERTEX
  8
0
 10
382.302123524
 20
-4.77227046801e-11
 30
463.19817891
  0
VERTEX
  8
0
 10
386.201482363
 20
-4.76971610923e-11
 30
462.950251987
  0
VERTEX
  8
0
 10
390.081987519
 20
-4.76715574547e-11
 30
462.701742218
  0
VERTEX
  8
0
 10
393.943685683
 20
-4.76458919818e-11
 30
462.452632273
  0
VERTEX
  8
0
 10
397.786623552
 20
-4.76201628879e-11
 30
462.202904821
  0
VERTEX
  8
0
 10
401.610847816
 20
-4.75943683875e-11
 30
461.952542532
  0
VERTEX
  8
0
 10
405.41640517
 20
-4.7568506695e-11
 30
461.701528074
  0
VERTEX
  8
0
 10
409.203342308
 20
-4.7542576025e-11
 30
461.449844117
  0
VERTEX
  8
0
 10
412.971705922
 20
-4.75165745919e-11
 30
461.197473332
  0
VERTEX
  8
0
 10
416.721542706
 20
-4.749050061e-11
 30
460.944398386
  0
VERTEX
  8
0
 10
420.452899353
 20
-4.74643522939e-11
 30
460.690601949
  0
VERTEX
  8
0
 10
424.165822557
 20
-4.7438127858e-11
 30
460.436066691
  0
VERTEX
  8
0
 10
427.860359012
 20
-4.74118255168e-11
 30
460.180775281
  0
VERTEX
  8
0
 10
431.536555409
 20
-4.73854434847e-11
 30
459.924710389
  0
VERTEX
  8
0
 10
435.194458444
 20
-4.73589799761e-11
 30
459.667854684
  0
VERTEX
  8
0
 10
438.834114808
 20
-4.73324332056e-11
 30
459.410190834
  0
VERTEX
  8
0
 10
442.455571197
 20
-4.73058013875e-11
 30
459.151701511
  0
VERTEX
  8
0
 10
446.058874302
 20
-4.72790827363e-11
 30
458.892369382
  0
VERTEX
  8
0
 10
449.644070817
 20
-4.72522754664e-11
 30
458.632177118
  0
VERTEX
  8
0
 10
453.211207436
 20
-4.72253777923e-11
 30
458.371107388
  0
VERTEX
  8
0
 10
456.760330853
 20
-4.71983879285e-11
 30
458.109142861
  0
VERTEX
  8
0
 10
460.29148776
 20
-4.71713040894e-11
 30
457.846266206
  0
VERTEX
  8
0
 10
463.80472485
 20
-4.71441244894e-11
 30
457.582460093
  0
VERTEX
  8
0
 10
467.300088818
 20
-4.7116847343e-11
 30
457.317707192
  0
VERTEX
  8
0
 10
470.777626357
 20
-4.70894708647e-11
 30
457.051990171
  0
VERTEX
  8
0
 10
474.237384159
 20
-4.70619932689e-11
 30
456.7852917
  0
VERTEX
  8
0
 10
477.679408919
 20
-4.703441277e-11
 30
456.517594449
  0
VERTEX
  8
0
 10
481.103747329
 20
-4.70067275824e-11
 30
456.248881087
  0
VERTEX
  8
0
 10
484.510446084
 20
-4.69789359208e-11
 30
455.979134282
  0
VERTEX
  8
0
 10
487.899551876
 20
-4.69510359994e-11
 30
455.708336706
  0
VERTEX
  8
0
 10
491.271111399
 20
-4.69230260327e-11
 30
455.436471026
  0
VERTEX
  8
0
 10
494.625171346
 20
-4.68949042352e-11
 30
455.163519913
  0
VERTEX
  8
0
 10
497.961778411
 20
-4.68666688214e-11
 30
454.889466035
  0
VERTEX
  8
0
 10
501.280979287
 20
-4.68383180056e-11
 30
454.614292062
  0
VERTEX
  8
0
 10
504.582820667
 20
-4.68098500024e-11
 30
454.337980664
  0
VERTEX
  8
0
 10
507.867349244
 20
-4.67812630262e-11
 30
454.06051451
  0
VERTEX
  8
0
 10
511.134611713
 20
-4.67525552914e-11
 30
453.781876269
  0
VERTEX
  8
0
 10
514.384654767
 20
-4.67237250124e-11
 30
453.502048611
  0
VERTEX
  8
0
 10
517.617525098
 20
-4.66947704038e-11
 30
453.221014204
  0
VERTEX
  8
0
 10
520.833269401
 20
-4.666568968e-11
 30
452.938755719
  0
VERTEX
  8
0
 10
524.031934368
 20
-4.66364810554e-11
 30
452.655255825
  0
VERTEX
  8
0
 10
527.213566693
 20
-4.66071427444e-11
 30
452.370497191
  0
VERTEX
  8
0
 10
530.378213069
 20
-4.65776729616e-11
 30
452.084462486
  0
VERTEX
  8
0
 10
533.525920191
 20
-4.65480699214e-11
 30
451.797134381
  0
VERTEX
  8
0
 10
536.65673475
 20
-4.65183318381e-11
 30
451.508495543
  0
VERTEX
  8
0
 10
539.770703441
 20
-4.64884569264e-11
 30
451.218528644
  0
VERTEX
  8
0
 10
542.867872957
 20
-4.64584434005e-11
 30
450.927216351
  0
VERTEX
  8
0
 10
545.948289991
 20
-4.64282894751e-11
 30
450.634541335
  0
VERTEX
  8
0
 10
549.012001236
 20
-4.63979933644e-11
 30
450.340486264
  0
VERTEX
  8
0
 10
552.059053387
 20
-4.6367553283e-11
 30
450.045033809
  0
VERTEX
  8
0
 10
555.089493136
 20
-4.63369674453e-11
 30
449.748166639
  0
VERTEX
  8
0
 10
558.103367176
 20
-4.63062340658e-11
 30
449.449867422
  0
VERTEX
  8
0
 10
561.100722202
 20
-4.62753513589e-11
 30
449.150118828
  0
VERTEX
  8
0
 10
564.081604907
 20
-4.62443175391e-11
 30
448.848903528
  0
VERTEX
  8
0
 10
567.046061983
 20
-4.62131308207e-11
 30
448.546204189
  0
VERTEX
  8
0
 10
569.994140124
 20
-4.61817894183e-11
 30
448.242003482
  0
VERTEX
  8
0
 10
572.925886024
 20
-4.61502915464e-11
 30
447.936284076
  0
VERTEX
  8
0
 10
575.841346377
 20
-4.61186354192e-11
 30
447.62902864
  0
VERTEX
  8
0
 10
578.740567874
 20
-4.60868192514e-11
 30
447.320219843
  0
VERTEX
  8
0
 10
581.62359721
 20
-4.60548412574e-11
 30
447.009840356
  0
VERTEX
  8
0
 10
584.490481079
 20
-4.60226996515e-11
 30
446.697872847
  0
VERTEX
  8
0
 10
587.341266173
 20
-4.59903926483e-11
 30
446.384299986
  0
VERTEX
  8
0
 10
590.175999185
 20
-4.59579184622e-11
 30
446.069104442
  0
VERTEX
  8
0
 10
592.994726811
 20
-4.59252753076e-11
 30
445.752268884
  0
VERTEX
  8
0
 10
595.797495741
 20
-4.5892461399e-11
 30
445.433775982
  0
VERTEX
  8
0
 10
598.584352671
 20
-4.58594749509e-11
 30
445.113608406
  0
VERTEX
  8
0
 10
601.355344293
 20
-4.58263141777e-11
 30
444.791748824
  0
VERTEX
  8
0
 10
604.110517301
 20
-4.57929772938e-11
 30
444.468179906
  0
VERTEX
  8
0
 10
606.849918388
 20
-4.57594625137e-11
 30
444.142884322
  0
VERTEX
  8
0
 10
609.573594248
 20
-4.57257680518e-11
 30
443.81584474
  0
VERTEX
  8
0
 10
612.281591573
 20
-4.56918921227e-11
 30
443.487043831
  0
VERTEX
  8
0
 10
614.973957058
 20
-4.56578329407e-11
 30
443.156464263
  0
VERTEX
  8
0
 10
617.650737395
 20
-4.56235887202e-11
 30
442.824088706
  0
VERTEX
  8
0
 10
620.311979279
 20
-4.55891576758e-11
 30
442.48989983
  0
VERTEX
  8
0
 10
622.957729402
 20
-4.55545380219e-11
 30
442.153880303
  0
VERTEX
  8
0
 10
625.588034457
 20
-4.55197279729e-11
 30
441.816012795
  0
VERTEX
  8
0
 10
628.202941139
 20
-4.54847257433e-11
 30
441.476279976
  0
VERTEX
  8
0
 10
630.80249614
 20
-4.54495295476e-11
 30
441.134664514
  0
VERTEX
  8
0
 10
633.386746155
 20
-4.54141376001e-11
 30
440.79114908
  0
VERTEX
  8
0
 10
635.955737875
 20
-4.53785481153e-11
 30
440.445716342
  0
VERTEX
  8
0
 10
638.509517995
 20
-4.53427593078e-11
 30
440.098348971
  0
VERTEX
  8
0
 10
641.048133209
 20
-4.53067693918e-11
 30
439.749029634
  0
VERTEX
  8
0
 10
643.571630208
 20
-4.5270576582e-11
 30
439.397741003
  0
VERTEX
  8
0
 10
646.080055688
 20
-4.52341790926e-11
 30
439.044465746
  0
VERTEX
  8
0
 10
648.57345634
 20
-4.51975751382e-11
 30
438.689186532
  0
VERTEX
  8
0
 10
651.051878859
 20
-4.51607629333e-11
 30
438.331886031
  0
VERTEX
  8
0
 10
653.515369938
 20
-4.51237406922e-11
 30
437.972546912
  0
VERTEX
  8
0
 10
655.963976271
 20
-4.50865066295e-11
 30
437.611151845
  0
VERTEX
  8
0
 10
658.39774455
 20
-4.50490589595e-11
 30
437.247683499
  0
VERTEX
  8
0
 10
660.816721469
 20
-4.50113958967e-11
 30
436.882124543
  0
VERTEX
  8
0
 10
663.220953721
 20
-4.49735156556e-11
 30
436.514457647
  0
VERTEX
  8
0
 10
665.610488
 20
-4.49354164506e-11
 30
436.14466548
  0
VERTEX
  8
0
 10
667.985371
 20
-4.48970964962e-11
 30
435.772730712
  0
VERTEX
  8
0
 10
670.345649413
 20
-4.48585540068e-11
 30
435.398636012
  0
VERTEX
  8
0
 10
672.691369933
 20
-4.48197871969e-11
 30
435.022364049
  0
VERTEX
  8
0
 10
675.022579253
 20
-4.47807942809e-11
 30
434.643897493
  0
VERTEX
  8
0
 10
677.339324067
 20
-4.47415734732e-11
 30
434.263219013
  0
VERTEX
  8
0
 10
679.641651068
 20
-4.47021229883e-11
 30
433.880311278
  0
VERTEX
  8
0
 10
681.929606949
 20
-4.46624410407e-11
 30
433.495156958
  0
VERTEX
  8
0
 10
684.203238405
 20
-4.46225258448e-11
 30
433.107738722
  0
VERTEX
  8
0
 10
686.462592127
 20
-4.45823756151e-11
 30
432.71803924
  0
VERTEX
  8
0
 10
688.70771481
 20
-4.4541988566e-11
 30
432.326041181
  0
VERTEX
  8
0
 10
690.938653147
 20
-4.45013629119e-11
 30
431.931727214
  0
VERTEX
  8
0
 10
693.155453831
 20
-4.44604968673e-11
 30
431.535080009
  0
VERTEX
  8
0
 10
695.358163556
 20
-4.44193886467e-11
 30
431.136082236
  0
VERTEX
  8
0
 10
697.546829015
 20
-4.43780364645e-11
 30
430.734716562
  0
VERTEX
  8
0
 10
699.721496901
 20
-4.43364385351e-11
 30
430.330965659
  0
VERTEX
  8
0
 10
701.882213909
 20
-4.4294593073e-11
 30
429.924812194
  0
VERTEX
  8
0
 10
704.02902673
 20
-4.42524982927e-11
 30
429.516238839
  0
VERTEX
  8
0
 10
706.161982059
 20
-4.42101524086e-11
 30
429.105228261
  0
VERTEX
  8
0
 10
708.281126589
 20
-4.41675536351e-11
 30
428.691763131
  0
VERTEX
  8
0
 10
710.386507013
 20
-4.41247001867e-11
 30
428.275826118
  0
VERTEX
  8
0
 10
712.478170025
 20
-4.40815902778e-11
 30
427.85739989
  0
VERTEX
  8
0
 10
714.556162318
 20
-4.4038222123e-11
 30
427.436467119
  0
VERTEX
  8
0
 10
716.620530586
 20
-4.39945939365e-11
 30
427.013010472
  0
VERTEX
  8
0
 10
718.671321521
 20
-4.3950703933e-11
 30
426.587012619
  0
VERTEX
  8
0
 10
720.708581818
 20
-4.39065503268e-11
 30
426.15845623
  0
VERTEX
  8
0
 10
722.732358169
 20
-4.38621313324e-11
 30
425.727323975
  0
VERTEX
  8
0
 10
724.742697268
 20
-4.38174451642e-11
 30
425.293598521
  0
VERTEX
  8
0
 10
726.739645808
 20
-4.37724900367e-11
 30
424.85726254
  0
VERTEX
  8
0
 10
728.723250484
 20
-4.37272641644e-11
 30
424.4182987
  0
VERTEX
  8
0
 10
730.693557987
 20
-4.36817657616e-11
 30
423.97668967
  0
VERTEX
  8
0
 10
732.650615011
 20
-4.36359930429e-11
 30
423.53241812
  0
VERTEX
  8
0
 10
734.594468251
 20
-4.35899442226e-11
 30
423.08546672
  0
VERTEX
  8
0
 10
736.525164399
 20
-4.35436175153e-11
 30
422.635818138
  0
VERTEX
  8
0
 10
738.442750148
 20
-4.34970111353e-11
 30
422.183455045
  0
VERTEX
  8
0
 10
740.347272192
 20
-4.34501232972e-11
 30
421.728360108
  0
VERTEX
  8
0
 10
742.238777225
 20
-4.34029522153e-11
 30
421.270515999
  0
VERTEX
  8
0
 10
744.117311939
 20
-4.33554961042e-11
 30
420.809905386
  0
VERTEX
  8
0
 10
745.982923029
 20
-4.33077531782e-11
 30
420.346510939
  0
VERTEX
  8
0
 10
747.835657187
 20
-4.32597216519e-11
 30
419.880315327
  0
VERTEX
  8
0
 10
749.675561106
 20
-4.32113997396e-11
 30
419.411301219
  0
VERTEX
  8
0
 10
751.502681481
 20
-4.31627856559e-11
 30
418.939451285
  0
VERTEX
  8
0
 10
753.317065005
 20
-4.31138776151e-11
 30
418.464748194
  0
VERTEX
  8
0
 10
755.118758371
 20
-4.30646738317e-11
 30
417.987174615
  0
VERTEX
  8
0
 10
756.907808271
 20
-4.30151725202e-11
 30
417.506713218
  0
VERTEX
  8
0
 10
758.684261401
 20
-4.2965371895e-11
 30
417.023346673
  0
VERTEX
  8
0
 10
760.448164453
 20
-4.29152701706e-11
 30
416.537057649
  0
VERTEX
  8
0
 10
762.19956412
 20
-4.28648655614e-11
 30
416.047828814
  0
VERTEX
  8
0
 10
763.938507096
 20
-4.28141562819e-11
 30
415.555642839
  0
VERTEX
  8
0
 10
765.665040074
 20
-4.27631405465e-11
 30
415.060482393
  0
VERTEX
  8
0
 10
767.379209748
 20
-4.27118165696e-11
 30
414.562330145
  0
VERTEX
  8
0
 10
769.081062811
 20
-4.26601825657e-11
 30
414.061168764
  0
VERTEX
  8
0
 10
770.770645957
 20
-4.26082367493e-11
 30
413.55698092
  0
VERTEX
  8
0
 10
772.448005878
 20
-4.25559773348e-11
 30
413.049749283
  0
VERTEX
  8
0
 10
774.113189268
 20
-4.25034025367e-11
 30
412.539456522
  0
VERTEX
  8
0
 10
775.76624282
 20
-4.24505105693e-11
 30
412.026085305
  0
VERTEX
  8
0
 10
777.407213229
 20
-4.23972996472e-11
 30
411.509618303
  0
VERTEX
  8
0
 10
779.036147187
 20
-4.23437679848e-11
 30
410.990038185
  0
VERTEX
  8
0
 10
780.653091387
 20
-4.22899137966e-11
 30
410.46732762
  0
VERTEX
  8
0
 10
782.258092523
 20
-4.2235735297e-11
 30
409.941469278
  0
VERTEX
  8
0
 10
783.851197289
 20
-4.21812307004e-11
 30
409.412445828
  0
VERTEX
  8
0
 10
785.432452378
 20
-4.21263982213e-11
 30
408.880239939
  0
VERTEX
  8
0
 10
787.001904482
 20
-4.20712360741e-11
 30
408.344834281
  0
VERTEX
  8
0
 10
788.559600296
 20
-4.20157424734e-11
 30
407.806211523
  0
VERTEX
  8
0
 10
790.105586513
 20
-4.19599156334e-11
 30
407.264354335
  0
VERTEX
  8
0
 10
791.639909826
 20
-4.19037537688e-11
 30
406.719245385
  0
VERTEX
  8
0
 10
793.162616929
 20
-4.18472550939e-11
 30
406.170867344
  0
VERTEX
  8
0
 10
794.673754515
 20
-4.17904178232e-11
 30
405.61920288
  0
VERTEX
  8
0
 10
796.173369277
 20
-4.17332401712e-11
 30
405.064234664
  0
VERTEX
  8
0
 10
797.661507909
 20
-4.16757203522e-11
 30
404.505945364
  0
VERTEX
  8
0
 10
799.138217104
 20
-4.16178565808e-11
 30
403.944317649
  0
VERTEX
  8
0
 10
800.603543556
 20
-4.15596470714e-11
 30
403.37933419
  0
VERTEX
  8
0
 10
802.057533958
 20
-4.15010900384e-11
 30
402.810977656
  0
VERTEX
  8
0
 10
803.500235002
 20
-4.14421836962e-11
 30
402.239230715
  0
VERTEX
  8
0
 10
804.931693384
 20
-4.13829262594e-11
 30
401.664076038
  0
VERTEX
  8
0
 10
806.351955795
 20
-4.13233159424e-11
 30
401.085496293
  0
VERTEX
  8
0
 10
807.76106893
 20
-4.12633509596e-11
 30
400.503474151
  0
VERTEX
  8
0
 10
809.159079482
 20
-4.12030295255e-11
 30
399.91799228
  0
VERTEX
  8
0
 10
810.546034144
 20
-4.11423498546e-11
 30
399.329033349
  0
VERTEX
  8
0
 10
811.921979609
 20
-4.10813101612e-11
 30
398.73658003
  0
VERTEX
  8
0
 10
813.286962571
 20
-4.10199086598e-11
 30
398.140614989
  0
VERTEX
  8
0
 10
814.641029723
 20
-4.09581435649e-11
 30
397.541120898
  0
VERTEX
  8
0
 10
815.984227759
 20
-4.08960130909e-11
 30
396.938080425
  0
VERTEX
  8
0
 10
817.316603373
 20
-4.08335154523e-11
 30
396.33147624
  0
VERTEX
  8
0
 10
818.638203256
 20
-4.07706488635e-11
 30
395.721291012
  0
VERTEX
  8
0
 10
819.949074103
 20
-4.0707411539e-11
 30
395.10750741
  0
VERTEX
  8
0
 10
821.249262608
 20
-4.06438016932e-11
 30
394.490108104
  0
VERTEX
  8
0
 10
822.538815463
 20
-4.05798175406e-11
 30
393.869075764
  0
VERTEX
  8
0
 10
823.817779362
 20
-4.05154572956e-11
 30
393.244393058
  0
VERTEX
  8
0
 10
825.086200998
 20
-4.04507191726e-11
 30
392.616042656
  0
VERTEX
  8
0
 10
826.344127065
 20
-4.03856013862e-11
 30
391.984007228
  0
VERTEX
  8
0
 10
827.591604255
 20
-4.03201021507e-11
 30
391.348269443
  0
VERTEX
  8
0
 10
828.828679264
 20
-4.02542196806e-11
 30
390.708811969
  0
VERTEX
  8
0
 10
830.055398783
 20
-4.01879521904e-11
 30
390.065617478
  0
VERTEX
  8
0
 10
831.271809506
 20
-4.01212978945e-11
 30
389.418668637
  0
VERTEX
  8
0
 10
832.477958127
 20
-4.00542550074e-11
 30
388.767948116
  0
VERTEX
  8
0
 10
833.673891338
 20
-3.99868217435e-11
 30
388.113438585
  0
VERTEX
  8
0
 10
834.859655834
 20
-3.99189963172e-11
 30
387.455122714
  0
VERTEX
  8
0
 10
836.035298308
 20
-3.9850776943e-11
 30
386.79298317
  0
VERTEX
  8
0
 10
837.200865453
 20
-3.97821618354e-11
 30
386.127002625
  0
VERTEX
  8
0
 10
838.356403962
 20
-3.97131492088e-11
 30
385.457163747
  0
VERTEX
  8
0
 10
839.501960529
 20
-3.96437372776e-11
 30
384.783449205
  0
VERTEX
  8
0
 10
840.637581847
 20
-3.95739242564e-11
 30
384.105841669
  0
VERTEX
  8
0
 10
841.763314609
 20
-3.95037083595e-11
 30
383.424323809
  0
VERTEX
  8
0
 10
842.87920551
 20
-3.94330878013e-11
 30
382.738878294
  0
VERTEX
  8
0
 10
843.985301242
 20
-3.93620607965e-11
 30
382.049487792
  0
VERTEX
  8
0
 10
845.081648498
 20
-3.92906255593e-11
 30
381.356134974
  0
VERTEX
  8
0
 10
846.168293973
 20
-3.92187803043e-11
 30
380.658802509
  0
VERTEX
  8
0
 10
847.245284359
 20
-3.91465232458e-11
 30
379.957473066
  0
VERTEX
  8
0
 10
848.312666349
 20
-3.90738525984e-11
 30
379.252129315
  0
VERTEX
  8
0
 10
849.370486638
 20
-3.90007665765e-11
 30
378.542753925
  0
VERTEX
  8
0
 10
850.418791919
 20
-3.89272633946e-11
 30
377.829329565
  0
VERTEX
  8
0
 10
851.457628884
 20
-3.8853341267e-11
 30
377.111838906
  0
VERTEX
  8
0
 10
852.487044228
 20
-3.87789984083e-11
 30
376.390264615
  0
VERTEX
  8
0
 10
853.507084644
 20
-3.87042330328e-11
 30
375.664589363
  0
VERTEX
  8
0
 10
854.517796824
 20
-3.86290433551e-11
 30
374.934795818
  0
VERTEX
  8
0
 10
855.519227463
 20
-3.85534275896e-11
 30
374.200866651
  0
VERTEX
  8
0
 10
856.511423254
 20
-3.84773839507e-11
 30
373.462784531
  0
VERTEX
  8
0
 10
857.49443089
 20
-3.84009106528e-11
 30
372.720532127
  0
VERTEX
  8
0
 10
858.468297064
 20
-3.83240059106e-11
 30
371.974092108
  0
VERTEX
  8
0
 10
859.433068471
 20
-3.82466679383e-11
 30
371.223447144
  0
VERTEX
  8
0
 10
860.388791803
 20
-3.81688949504e-11
 30
370.468579904
  0
VERTEX
  8
0
 10
861.335513753
 20
-3.80906851614e-11
 30
369.709473058
  0
VERTEX
  8
0
 10
862.273281016
 20
-3.80120367857e-11
 30
368.946109275
  0
VERTEX
  8
0
 10
863.202140284
 20
-3.79329480378e-11
 30
368.178471224
  0
VERTEX
  8
0
 10
864.122138251
 20
-3.78534171321e-11
 30
367.406541575
  0
VERTEX
  8
0
 10
865.03332161
 20
-3.77734422831e-11
 30
366.630302997
  0
VERTEX
  8
0
 10
865.935737054
 20
-3.76930217052e-11
 30
365.84973816
  0
VERTEX
  8
0
 10
866.829431278
 20
-3.76121536129e-11
 30
365.064829732
  0
VERTEX
  8
0
 10
867.714450974
 20
-3.75308362206e-11
 30
364.275560384
  0
VERTEX
  8
0
 10
868.590842835
 20
-3.74490677428e-11
 30
363.481912784
  0
VERTEX
  8
0
 10
869.458653556
 20
-3.73668463939e-11
 30
362.683869603
  0
VERTEX
  8
0
 10
870.317929829
 20
-3.72841703884e-11
 30
361.881413508
  0
VERTEX
  8
0
 10
871.168718348
 20
-3.72010379406e-11
 30
361.074527171
  0
VERTEX
  8
0
 10
872.011065806
 20
-3.71174472652e-11
 30
360.263193259
  0
VERTEX
  8
0
 10
872.845018897
 20
-3.70333965764e-11
 30
359.447394444
  0
VERTEX
  8
0
 10
873.670624314
 20
-3.69488840888e-11
 30
358.627113393
  0
VERTEX
  8
0
 10
874.48792875
 20
-3.68639080168e-11
 30
357.802332776
  0
VERTEX
  8
0
 10
875.296978899
 20
-3.67784665749e-11
 30
356.973035263
  0
VERTEX
  8
0
 10
876.097821454
 20
-3.66925579775e-11
 30
356.139203523
  0
VERTEX
  8
0
 10
876.890503108
 20
-3.66061804391e-11
 30
355.300820226
  0
VERTEX
  8
0
 10
877.675070555
 20
-3.6519332174e-11
 30
354.45786804
  0
VERTEX
  8
0
 10
878.451570489
 20
-3.64320113968e-11
 30
353.610329636
  0
VERTEX
  8
0
 10
879.220049602
 20
-3.63442163219e-11
 30
352.758187682
  0
VERTEX
  8
0
 10
879.980554588
 20
-3.62559451638e-11
 30
351.901424848
  0
VERTEX
  8
0
 10
880.73313214
 20
-3.61671961368e-11
 30
351.040023804
  0
VERTEX
  8
0
 10
881.477828952
 20
-3.60779674555e-11
 30
350.173967218
  0
VERTEX
  8
0
 10
882.214691717
 20
-3.59882573344e-11
 30
349.30323776
  0
VERTEX
  8
0
 10
882.943767129
 20
-3.58980639877e-11
 30
348.4278181
  0
VERTEX
  8
0
 10
883.66510188
 20
-3.58073856301e-11
 30
347.547690907
  0
VERTEX
  8
0
 10
884.378742665
 20
-3.57162204759e-11
 30
346.66283885
  0
VERTEX
  8
0
 10
885.084736176
 20
-3.56245667396e-11
 30
345.773244598
  0
VERTEX
  8
0
 10
885.783129108
 20
-3.55324226356e-11
 30
344.878890822
  0
VERTEX
  8
0
 10
886.473968152
 20
-3.54397863784e-11
 30
343.979760189
  0
VERTEX
  8
0
 10
887.157300004
 20
-3.53466561825e-11
 30
343.075835371
  0
VERTEX
  8
0
 10
887.833171355
 20
-3.52530302622e-11
 30
342.167099036
  0
VERTEX
  8
0
 10
888.5016289
 20
-3.51589068321e-11
 30
341.253533853
  0
VERTEX
  8
0
 10
889.162719332
 20
-3.50642841066e-11
 30
340.335122493
  0
VERTEX
  8
0
 10
889.816489344
 20
-3.49691603001e-11
 30
339.411847623
  0
VERTEX
  8
0
 10
890.46298563
 20
-3.48735336271e-11
 30
338.483691914
  0
VERTEX
  8
0
 10
891.102254883
 20
-3.47774023021e-11
 30
337.550638036
  0
VERTEX
  8
0
 10
891.734343796
 20
-3.46807645394e-11
 30
336.612668656
  0
VERTEX
  8
0
 10
892.359299063
 20
-3.45836185536e-11
 30
335.669766446
  0
VERTEX
  8
0
 10
892.977167377
 20
-3.4485962559e-11
 30
334.721914074
  0
VERTEX
  8
0
 10
893.587995431
 20
-3.43877947702e-11
 30
333.769094209
  0
VERTEX
  8
0
 10
894.191829919
 20
-3.42891134015e-11
 30
332.811289521
  0
VERTEX
  8
0
 10
894.788717535
 20
-3.41899166675e-11
 30
331.84848268
  0
VERTEX
  8
0
 10
895.378704971
 20
-3.40902027825e-11
 30
330.880656354
  0
VERTEX
  8
0
 10
895.961838921
 20
-3.39899699611e-11
 30
329.907793213
  0
VERTEX
  8
0
 10
896.538166079
 20
-3.38892164176e-11
 30
328.929875927
  0
VERTEX
  8
0
 10
897.107733137
 20
-3.37879403666e-11
 30
327.946887165
  0
VERTEX
  8
0
 10
897.67058679
 20
-3.36861400224e-11
 30
326.958809596
  0
VERTEX
  8
0
 10
898.22677373
 20
-3.35838135996e-11
 30
325.965625889
  0
VERTEX
  8
0
 10
898.776340651
 20
-3.34809593125e-11
 30
324.967318715
  0
VERTEX
  8
0
 10
899.319334246
 20
-3.33775753756e-11
 30
323.963870742
  0
VERTEX
  8
0
 10
899.855801208
 20
-3.32736600035e-11
 30
322.95526464
  0
VERTEX
  8
0
 10
900.385788232
 20
-3.31692114104e-11
 30
321.941483078
  0
VERTEX
  8
0
 10
900.90934201
 20
-3.30642278109e-11
 30
320.922508725
  0
VERTEX
  8
0
 10
901.426509236
 20
-3.29587074194e-11
 30
319.898324251
  0
VERTEX
  8
0
 10
901.937336603
 20
-3.28526484503e-11
 30
318.868912326
  0
VERTEX
  8
0
 10
902.441870805
 20
-3.27460491182e-11
 30
317.834255618
  0
VERTEX
  8
0
 10
902.940158534
 20
-3.26389076375e-11
 30
316.794336797
  0
VERTEX
  8
0
 10
903.432246485
 20
-3.25312222225e-11
 30
315.749138533
  0
VERTEX
  8
0
 10
903.91818135
 20
-3.24229910878e-11
 30
314.698643494
  0
VERTEX
  8
0
 10
904.398009824
 20
-3.23142124478e-11
 30
313.642834351
  0
VERTEX
  8
0
 10
904.871778599
 20
-3.2204884517e-11
 30
312.581693772
  0
VERTEX
  8
0
 10
905.339534368
 20
-3.20950055098e-11
 30
311.515204427
  0
VERTEX
  8
0
 10
905.801323826
 20
-3.19845736406e-11
 30
310.443348986
  0
VERTEX
  8
0
 10
906.257193665
 20
-3.18735871239e-11
 30
309.366110117
  0
VERTEX
  8
0
 10
906.707190579
 20
-3.17620441742e-11
 30
308.28347049
  0
VERTEX
  8
0
 10
907.151361262
 20
-3.16499430059e-11
 30
307.195412775
  0
VERTEX
  8
0
 10
907.589752406
 20
-3.15372818334e-11
 30
306.10191964
  0
VERTEX
  8
0
 10
908.022410705
 20
-3.14240588712e-11
 30
305.002973756
  0
VERTEX
  8
0
 10
908.449382852
 20
-3.13102723338e-11
 30
303.898557791
  0
VERTEX
  8
0
 10
908.870715541
 20
-3.11959204355e-11
 30
302.788654416
  0
VERTEX
  8
0
 10
909.286455466
 20
-3.10810013909e-11
 30
301.673246299
  0
VERTEX
  8
0
 10
909.696649319
 20
-3.09655134144e-11
 30
300.552316109
  0
VERTEX
  8
0
 10
910.101343794
 20
-3.08494547205e-11
 30
299.425846517
  0
VERTEX
  8
0
 10
910.500585584
 20
-3.07328235235e-11
 30
298.293820191
  0
VERTEX
  8
0
 10
910.894421383
 20
-3.0615618038e-11
 30
297.156219801
  0
VERTEX
  8
0
 10
911.282897884
 20
-3.04978364784e-11
 30
296.013028016
  0
VERTEX
  8
0
 10
911.66606178
 20
-3.0379477059e-11
 30
294.864227506
  0
VERTEX
  8
0
 10
912.043959765
 20
-3.02605379945e-11
 30
293.70980094
  0
VERTEX
  8
0
 10
912.416638532
 20
-3.01410174993e-11
 30
292.549730987
  0
VERTEX
  8
0
 10
912.784144775
 20
-3.00209137877e-11
 30
291.384000318
  0
VERTEX
  8
0
 10
913.146525187
 20
-2.99002250742e-11
 30
290.2125916
  0
VERTEX
  8
0
 10
913.503826461
 20
-2.97789495733e-11
 30
289.035487504
  0
VERTEX
  8
0
 10
913.856095291
 20
-2.96570854995e-11
 30
287.852670699
  0
VERTEX
  8
0
 10
914.203378369
 20
-2.95346310671e-11
 30
286.664123854
  0
VERTEX
  8
0
 10
914.54572239
 20
-2.94115844906e-11
 30
285.469829639
  0
VERTEX
  8
0
 10
914.883174047
 20
-2.92879439846e-11
 30
284.269770723
  0
VERTEX
  8
0
 10
915.215780034
 20
-2.91637077633e-11
 30
283.063929775
  0
VERTEX
  8
0
 10
915.543587042
 20
-2.90388740414e-11
 30
281.852289465
  0
VERTEX
  8
0
 10
915.866641767
 20
-2.89134410331e-11
 30
280.634832463
  0
VERTEX
  8
0
 10
916.184990901
 20
-2.8787406953e-11
 30
279.411541437
  0
VERTEX
  8
0
 10
916.498681137
 20
-2.86607700156e-11
 30
278.182399057
  0
VERTEX
  8
0
 10
916.80775917
 20
-2.85335284352e-11
 30
276.947387992
  0
VERTEX
  8
0
 10
917.112271692
 20
-2.84056804263e-11
 30
275.706490912
  0
VERTEX
  8
0
 10
917.412265397
 20
-2.82772242035e-11
 30
274.459690486
  0
VERTEX
  8
0
 10
917.707786978
 20
-2.8148157981e-11
 30
273.206969384
  0
VERTEX
  8
0
 10
917.998883129
 20
-2.80184799734e-11
 30
271.948310275
  0
VERTEX
  8
0
 10
918.285600542
 20
-2.78881883951e-11
 30
270.683695828
  0
VERTEX
  8
0
 10
918.567985912
 20
-2.77572814605e-11
 30
269.413108712
  0
VERTEX
  8
0
 10
918.846085932
 20
-2.76257573842e-11
 30
268.136531598
  0
VERTEX
  8
0
 10
919.119947295
 20
-2.74936143805e-11
 30
266.853947154
  0
VERTEX
  8
0
 10
919.389616694
 20
-2.7360850664e-11
 30
265.565338049
  0
VERTEX
  8
0
 10
919.655140823
 20
-2.7227464449e-11
 30
264.270686954
  0
VERTEX
  8
0
 10
919.916566375
 20
-2.709345395e-11
 30
262.969976538
  0
VERTEX
  8
0
 10
920.173940044
 20
-2.69588173815e-11
 30
261.663189469
  0
VERTEX
  8
0
 10
920.427308522
 20
-2.68235529579e-11
 30
260.350308418
  0
VERTEX
  8
0
 10
920.676718504
 20
-2.66876588936e-11
 30
259.031316053
  0
VERTEX
  8
0
 10
920.922216683
 20
-2.65511334031e-11
 30
257.706195044
  0
VERTEX
  8
0
 10
921.163849752
 20
-2.64139747009e-11
 30
256.374928061
  0
VERTEX
  8
0
 10
921.401664404
 20
-2.62761810014e-11
 30
255.037497773
  0
VERTEX
  8
0
 10
921.635707333
 20
-2.6137750519e-11
 30
253.693886849
  0
VERTEX
  8
0
 10
921.866025232
 20
-2.59986814683e-11
 30
252.344077958
  0
VERTEX
  8
0
 10
922.092664795
 20
-2.58589720636e-11
 30
250.988053771
  0
VERTEX
  8
0
 10
922.315672715
 20
-2.57186205193e-11
 30
249.625796956
  0
VERTEX
  8
0
 10
922.535095685
 20
-2.55776250501e-11
 30
248.257290182
  0
VERTEX
  8
0
 10
922.750980399
 20
-2.54359838702e-11
 30
246.88251612
  0
VERTEX
  8
0
 10
922.96337355
 20
-2.52936951941e-11
 30
245.501457438
  0
VERTEX
  8
0
 10
923.172321831
 20
-2.51507572364e-11
 30
244.114096806
  0
VERTEX
  8
0
 10
923.377871937
 20
-2.50071682114e-11
 30
242.720416893
  0
VERTEX
  8
0
 10
923.580070559
 20
-2.48629263336e-11
 30
241.320400369
  0
VERTEX
  8
0
 10
923.778964392
 20
-2.47180298174e-11
 30
239.914029903
  0
VERTEX
  8
0
 10
923.974600129
 20
-2.45724768773e-11
 30
238.501288164
  0
VERTEX
  8
0
 10
924.167024464
 20
-2.44262657277e-11
 30
237.082157822
  0
VERTEX
  8
0
 10
924.356284089
 20
-2.42793945832e-11
 30
235.656621546
  0
VERTEX
  8
0
 10
924.542425698
 20
-2.4131861658e-11
 30
234.224662006
  0
VERTEX
  8
0
 10
924.725495985
 20
-2.39836651668e-11
 30
232.786261871
  0
VERTEX
  8
0
 10
924.905541642
 20
-2.38348033238e-11
 30
231.34140381
  0
VERTEX
  8
0
 10
925.082609364
 20
-2.36852743437e-11
 30
229.890070492
  0
VERTEX
  8
0
 10
925.256745843
 20
-2.35350764408e-11
 30
228.432244588
  0
VERTEX
  8
0
 10
925.427997774
 20
-2.33842078295e-11
 30
226.967908766
  0
VERTEX
  8
0
 10
925.596411848
 20
-2.32326667244e-11
 30
225.497045696
  0
VERTEX
  8
0
 10
925.762034761
 20
-2.30804513399e-11
 30
224.019638047
  0
VERTEX
  8
0
 10
925.924913204
 20
-2.29275598904e-11
 30
222.535668489
  0
VERTEX
  8
0
 10
926.085093872
 20
-2.27739905903e-11
 30
221.045119691
  0
VERTEX
  8
0
 10
926.242623458
 20
-2.26197416542e-11
 30
219.547974322
  0
VERTEX
  8
0
 10
926.397548655
 20
-2.24648112965e-11
 30
218.044215051
  0
VERTEX
  8
0
 10
926.549916157
 20
-2.23091977316e-11
 30
216.533824549
  0
VERTEX
  8
0
 10
926.699772657
 20
-2.21528991739e-11
 30
215.016785484
  0
VERTEX
  8
0
 10
926.847164848
 20
-2.1995913838e-11
 30
213.493080527
  0
VERTEX
  8
0
 10
926.992139423
 20
-2.18382399382e-11
 30
211.962692345
  0
VERTEX
  8
0
 10
927.134743077
 20
-2.1679875689e-11
 30
210.425603609
  0
VERTEX
  8
0
 10
927.275022503
 20
-2.15208193049e-11
 30
208.881796988
  0
VERTEX
  8
0
 10
927.413024393
 20
-2.13610690004e-11
 30
207.331255151
  0
VERTEX
  8
0
 10
927.548795442
 20
-2.12006229898e-11
 30
205.773960769
  0
VERTEX
  8
0
 10
927.682382342
 20
-2.10394794875e-11
 30
204.209896509
  0
VERTEX
  8
0
 10
927.813831787
 20
-2.08776367082e-11
 30
202.639045042
  0
VERTEX
  8
0
 10
927.94319047
 20
-2.07150928662e-11
 30
201.061389037
  0
VERTEX
  8
0
 10
928.070505086
 20
-2.05518461759e-11
 30
199.476911163
  0
VERTEX
  8
0
 10
928.195822326
 20
-2.03878948518e-11
 30
197.885594089
  0
VERTEX
  8
0
 10
928.319188885
 20
-2.02232371084e-11
 30
196.287420486
  0
VERTEX
  8
0
 10
928.440651456
 20
-2.00578711601e-11
 30
194.682373022
  0
VERTEX
  8
0
 10
928.560256732
 20
-1.98917952213e-11
 30
193.070434367
  0
VERTEX
  8
0
 10
928.678051406
 20
-1.97250075066e-11
 30
191.451587191
  0
VERTEX
  8
0
 10
928.794082173
 20
-1.95575062302e-11
 30
189.825814161
  0
VERTEX
  8
0
 10
928.908395725
 20
-1.93892896068e-11
 30
188.193097949
  0
VERTEX
  8
0
 10
929.021038756
 20
-1.92203558508e-11
 30
186.553421223
  0
VERTEX
  8
0
 10
929.132057959
 20
-1.90507031765e-11
 30
184.906766653
  0
VERTEX
  8
0
 10
929.241500027
 20
-1.88803297985e-11
 30
183.253116908
  0
VERTEX
  8
0
 10
929.349411655
 20
-1.87092339312e-11
 30
181.592454657
  0
VERTEX
  8
0
 10
929.455839534
 20
-1.8537413789e-11
 30
179.92476257
  0
VERTEX
  8
0
 10
929.560830359
 20
-1.83648675864e-11
 30
178.250023316
  0
VERTEX
  8
0
 10
929.664430824
 20
-1.81915935379e-11
 30
176.568219565
  0
VERTEX
  8
0
 10
929.76668762
 20
-1.80175898578e-11
 30
174.879333986
  0
VERTEX
  8
0
 10
929.867647443
 20
-1.78428547607e-11
 30
173.183349249
  0
VERTEX
  8
0
 10
929.967356984
 20
-1.7667386461e-11
 30
171.480248022
  0
VERTEX
  8
0
 10
930.065862938
 20
-1.74911831731e-11
 30
169.770012975
  0
VERTEX
  8
0
 10
930.163211998
 20
-1.73142431115e-11
 30
168.052626778
  0
VERTEX
  8
0
 10
930.259450858
 20
-1.71365644906e-11
 30
166.3280721
  0
VERTEX
  8
0
 10
930.35462621
 20
-1.69581455249e-11
 30
164.59633161
  0
VERTEX
  8
0
 10
930.448784748
 20
-1.67789844289e-11
 30
162.857387977
  0
VERTEX
  8
0
 10
930.541973165
 20
-1.65990794169e-11
 30
161.111223872
  0
VERTEX
  8
0
 10
930.634238155
 20
-1.64184287034e-11
 30
159.357821963
  0
VERTEX
  8
0
 10
930.725626411
 20
-1.6237030503e-11
 30
157.59716492
  0
VERTEX
  8
0
 10
930.816184627
 20
-1.60548830299e-11
 30
155.829235412
  0
VERTEX
  8
0
 10
930.905959496
 20
-1.58719844988e-11
 30
154.054016108
  0
VERTEX
  8
0
 10
930.994997711
 20
-1.56883331239e-11
 30
152.271489679
  0
VERTEX
  8
0
 10
931.083345966
 20
-1.55039271199e-11
 30
150.481638793
  0
VERTEX
  8
0
 10
931.171050953
 20
-1.5318764701e-11
 30
148.684446119
  0
VERTEX
  8
0
 10
931.258159367
 20
-1.51328440819e-11
 30
146.879894328
  0
VERTEX
  8
0
 10
931.344717901
 20
-1.49461634768e-11
 30
145.067966088
  0
VERTEX
  8
0
 10
931.430773248
 20
-1.47587211004e-11
 30
143.248644069
  0
VERTEX
  8
0
 10
931.516372102
 20
-1.45705151669e-11
 30
141.42191094
  0
VERTEX
  8
0
 10
931.601561155
 20
-1.43815438909e-11
 30
139.587749371
  0
VERTEX
  8
0
 10
931.686387102
 20
-1.41918054869e-11
 30
137.746142031
  0
VERTEX
  8
0
 10
931.770896636
 20
-1.40012981691e-11
 30
135.897071589
  0
VERTEX
  8
0
 10
931.855136449
 20
-1.38100201523e-11
 30
134.040520715
  0
VERTEX
  8
0
 10
931.939153236
 20
-1.36179696506e-11
 30
132.176472078
  0
VERTEX
  8
0
 10
932.02299369
 20
-1.34251448787e-11
 30
130.304908347
  0
VERTEX
  8
0
 10
932.106704504
 20
-1.3231544051e-11
 30
128.425812193
  0
VERTEX
  8
0
 10
932.190332371
 20
-1.30371653818e-11
 30
126.539166283
  0
VERTEX
  8
0
 10
932.273923986
 20
-1.28420070857e-11
 30
124.644953289
  0
VERTEX
  8
0
 10
932.35752604
 20
-1.26460673771e-11
 30
122.743155878
  0
VERTEX
  8
0
 10
932.441185229
 20
-1.24493444705e-11
 30
120.833756721
  0
VERTEX
  8
0
 10
932.524948244
 20
-1.22518365803e-11
 30
118.916738486
  0
VERTEX
  8
0
 10
932.60886178
 20
-1.20535419209e-11
 30
116.992083844
  0
VERTEX
  8
0
 10
932.69297253
 20
-1.18544587069e-11
 30
115.059775463
  0
VERTEX
  8
0
 10
932.777327187
 20
-1.16545851526e-11
 30
113.119796013
  0
VERTEX
  8
0
 10
932.861972444
 20
-1.14539194724e-11
 30
111.172128164
  0
VERTEX
  8
0
 10
932.946954995
 20
-1.1252459881e-11
 30
109.216754584
  0
VERTEX
  8
0
 10
933.032321534
 20
-1.10502045926e-11
 30
107.253657943
  0
VERTEX
  8
0
 10
933.118118753
 20
-1.08471518218e-11
 30
105.282820911
  0
VERTEX
  8
0
 10
933.204393347
 20
-1.0643299783e-11
 30
103.304226157
  0
VERTEX
  8
0
 10
933.291192008
 20
-1.04386466906e-11
 30
101.317856349
  0
VERTEX
  8
0
 10
933.378561429
 20
-1.02331907591e-11
 30
99.3236941586
  0
VERTEX
  8
0
 10
933.466548305
 20
-1.0026930203e-11
 30
97.321722254
  0
VERTEX
  8
0
 10
933.555199329
 20
-9.81986323664e-12
 30
95.3119233046
  0
VERTEX
  8
0
 10
933.644561193
 20
-9.61198807453e-12
 30
93.2942799801
  0
VERTEX
  8
0
 10
933.734680592
 20
-9.40330293111e-12
 30
91.2687749496
  0
VERTEX
  8
0
 10
933.825604218
 20
-9.19380602083e-12
 30
89.2353908826
  0
VERTEX
  8
0
 10
933.917378766
 20
-8.98349555814e-12
 30
87.1941104485
  0
VERTEX
  8
0
 10
934.010050928
 20
-8.77236975748e-12
 30
85.1449163167
  0
VERTEX
  8
0
 10
934.103667397
 20
-8.56042683331e-12
 30
83.0877911565
  0
VERTEX
  8
0
 10
934.198274868
 20
-8.34766500006e-12
 30
81.0227176373
  0
VERTEX
  8
0
 10
934.293920034
 20
-8.13408247221e-12
 30
78.9496784285
  0
VERTEX
  8
0
 10
934.390649587
 20
-7.91967746418e-12
 30
76.8686561995
  0
VERTEX
  8
0
 10
934.488510222
 20
-7.70444819043e-12
 30
74.7796336197
  0
VERTEX
  8
0
 10
934.587548632
 20
-7.48839286541e-12
 30
72.6825933584
  0
VERTEX
  8
0
 10
934.687811509
 20
-7.27150970357e-12
 30
70.577518085
  0
VERTEX
  8
0
 10
934.789345548
 20
-7.05379691936e-12
 30
68.4643904689
  0
VERTEX
  8
0
 10
934.892197442
 20
-6.83525272722e-12
 30
66.3431931795
  0
VERTEX
  8
0
 10
934.996413884
 20
-6.61587534161e-12
 30
64.2139088862
  0
VERTEX
  8
0
 10
935.102041568
 20
-6.39566297696e-12
 30
62.0765202583
  0
VERTEX
  8
0
 10
935.209127187
 20
-6.17461384775e-12
 30
59.9310099652
  0
VERTEX
  8
0
 10
935.317717434
 20
-5.9527261684e-12
 30
57.7773606764
  0
VERTEX
  8
0
 10
935.427859002
 20
-5.72999815337e-12
 30
55.6155550611
  0
VERTEX
  8
0
 10
935.539598586
 20
-5.50642801711e-12
 30
53.4455757888
  0
VERTEX
  8
0
 10
935.652982879
 20
-5.28201397406e-12
 30
51.2674055288
  0
VERTEX
  8
0
 10
935.768058573
 20
-5.05675423869e-12
 30
49.0810269506
  0
VERTEX
  8
0
 10
935.884872362
 20
-4.83064702543e-12
 30
46.8864227234
  0
VERTEX
  8
0
 10
936.00347094
 20
-4.60369054873e-12
 30
44.6835755168
  0
VERTEX
  8
0
 10
936.123901
 20
-4.37588302304e-12
 30
42.472468
  0
VERTEX
  8
0
 10
939.159851
 20
-2.77283418626e-12
 30
26.913222
  0
VERTEX
  8
0
 10
952.345032
 20
-3.42843494039e-12
 30
33.276505
  0
VERTEX
  8
0
 10
953.632019
 20
-2.54645469155e-12
 30
24.715975
  0
VERTEX
  8
0
 10
964.045593
 20
-3.25456412398e-12
 30
31.588909
  0
VERTEX
  8
0
 10
970.918518
 20
-2.20313020804e-12
 30
21.383656
  0
VERTEX
  8
0
 10
981.123779
 20
-3.19019066097e-12
 30
30.964098
  0
VERTEX
  8
0
 10
994.453064
 20
-2.41770755949e-12
 30
23.466351
  0
VERTEX
  8
0
 10
994.637051117
 20
-2.72060808047e-12
 30
26.4063136582
  0
VERTEX
  8
0
 10
994.819674955
 20
-3.02229154676e-12
 30
29.3344635427
  0
VERTEX
  8
0
 10
995.000914842
 20
-3.32276052178e-12
 30
32.2508255339
  0
VERTEX
  8
0
 10
995.180750105
 20
-3.62201756895e-12
 30
35.1554245126
  0
VERTEX
  8
0
 10
995.359160072
 20
-3.92006525169e-12
 30
38.0482853595
  0
VERTEX
  8
0
 10
995.53612407
 20
-4.21690613342e-12
 30
40.9294329551
  0
VERTEX
  8
0
 10
995.711621427
 20
-4.51254277757e-12
 30
43.79889218
  0
VERTEX
  8
0
 10
995.88563147
 20
-4.80697774754e-12
 30
46.6566879151
  0
VERTEX
  8
0
 10
996.058133527
 20
-5.10021360676e-12
 30
49.5028450408
  0
VERTEX
  8
0
 10
996.229106926
 20
-5.39225291866e-12
 30
52.3373884379
  0
VERTEX
  8
0
 10
996.398530994
 20
-5.68309824665e-12
 30
55.1603429869
  0
VERTEX
  8
0
 10
996.566385058
 20
-5.97275215416e-12
 30
57.9717335686
  0
VERTEX
  8
0
 10
996.732648447
 20
-6.26121720459e-12
 30
60.7715850636
  0
VERTEX
  8
0
 10
996.897300487
 20
-6.54849596138e-12
 30
63.5599223524
  0
VERTEX
  8
0
 10
997.060320507
 20
-6.83459098795e-12
 30
66.3367703159
  0
VERTEX
  8
0
 10
997.221687833
 20
-7.11950484771e-12
 30
69.1021538345
  0
VERTEX
  8
0
 10
997.381381794
 20
-7.40324010409e-12
 30
71.856097789
  0
VERTEX
  8
0
 10
997.539381716
 20
-7.6857993205e-12
 30
74.59862706
  0
VERTEX
  8
0
 10
997.695666928
 20
-7.96718506037e-12
 30
77.3297665282
  0
VERTEX
  8
0
 10
997.850216758
 20
-8.24739988712e-12
 30
80.0495410741
  0
VERTEX
  8
0
 10
998.003010531
 20
-8.52644636416e-12
 30
82.7579755785
  0
VERTEX
  8
0
 10
998.154027577
 20
-8.80432705492e-12
 30
85.455094922
  0
VERTEX
  8
0
 10
998.303247222
 20
-9.08104452282e-12
 30
88.1409239851
  0
VERTEX
  8
0
 10
998.450648795
 20
-9.35660133128e-12
 30
90.8154876487
  0
VERTEX
  8
0
 10
998.596211622
 20
-9.63100004372e-12
 30
93.4788107933
  0
VERTEX
  8
0
 10
998.739915031
 20
-9.90424322355e-12
 30
96.1309182995
  0
VERTEX
  8
0
 10
998.881738351
 20
-1.01763334342e-11
 30
98.7718350481
  0
VERTEX
  8
0
 10
999.021660908
 20
-1.04472732391e-11
 30
101.40158592
  0
VERTEX
  8
0
 10
999.159662029
 20
-1.07170652017e-11
 30
104.020195795
  0
VERTEX
  8
0
 10
999.295721043
 20
-1.09857118853e-11
 30
106.627689554
  0
VERTEX
  8
0
 10
999.429817278
 20
-1.12532158534e-11
 30
109.224092078
  0
VERTEX
  8
0
 10
999.561930059
 20
-1.15195796695e-11
 30
111.809428248
  0
VERTEX
  8
0
 10
999.692038716
 20
-1.17848058969e-11
 30
114.383722944
  0
VERTEX
  8
0
 10
999.820122576
 20
-1.20488970991e-11
 30
116.947001047
  0
VERTEX
  8
0
 10
999.946160966
 20
-1.23118558394e-11
 30
119.499287437
  0
VERTEX
  8
0
 10
1000.07013321
 20
-1.25736846814e-11
 30
122.040606995
  0
VERTEX
  8
0
 10
1000.19201865
 20
-1.28343861884e-11
 30
124.570984602
  0
VERTEX
  8
0
 10
1000.31179659
 20
-1.30939629238e-11
 30
127.090445139
  0
VERTEX
  8
0
 10
1000.42944638
 20
-1.33524174511e-11
 30
129.599013486
  0
VERTEX
  8
0
 10
1000.54494733
 20
-1.36097523337e-11
 30
132.096714523
  0
VERTEX
  8
0
 10
1000.65827878
 20
-1.3865970135e-11
 30
134.583573131
  0
VERTEX
  8
0
 10
1000.76942005
 20
-1.41210734184e-11
 30
137.059614192
  0
VERTEX
  8
0
 10
1000.87835048
 20
-1.43750647473e-11
 30
139.524862585
  0
VERTEX
  8
0
 10
1000.98504938
 20
-1.46279466853e-11
 30
141.979343192
  0
VERTEX
  8
0
 10
1001.08949609
 20
-1.48797217956e-11
 30
144.423080892
  0
VERTEX
  8
0
 10
1001.19166993
 20
-1.51303926417e-11
 30
146.856100567
  0
VERTEX
  8
0
 10
1001.29155023
 20
-1.53799617871e-11
 30
149.278427097
  0
VERTEX
  8
0
 10
1001.38911632
 20
-1.56284317951e-11
 30
151.690085363
  0
VERTEX
  8
0
 10
1001.48434752
 20
-1.58758052291e-11
 30
154.091100246
  0
VERTEX
  8
0
 10
1001.57722317
 20
-1.61220846527e-11
 30
156.481496626
  0
VERTEX
  8
0
 10
1001.66772259
 20
-1.63672726292e-11
 30
158.861299383
  0
VERTEX
  8
0
 10
1001.75582511
 20
-1.6611371722e-11
 30
161.230533399
  0
VERTEX
  8
0
 10
1001.84151005
 20
-1.68543844945e-11
 30
163.589223554
  0
VERTEX
  8
0
 10
1001.92475675
 20
-1.70963135103e-11
 30
165.937394729
  0
VERTEX
  8
0
 10
1002.00554453
 20
-1.73371613326e-11
 30
168.275071804
  0
VERTEX
  8
0
 10
1002.08385272
 20
-1.75769305249e-11
 30
170.60227966
  0
VERTEX
  8
0
 10
1002.15966065
 20
-1.78156236507e-11
 30
172.919043178
  0
VERTEX
  8
0
 10
1002.23294763
 20
-1.80532432733e-11
 30
175.225387238
  0
VERTEX
  8
0
 10
1002.30369301
 20
-1.82897919562e-11
 30
177.521336721
  0
VERTEX
  8
0
 10
1002.37187611
 20
-1.85252722628e-11
 30
179.806916508
  0
VERTEX
  8
0
 10
1002.43747626
 20
-1.87596867565e-11
 30
182.082151479
  0
VERTEX
  8
0
 10
1002.50047278
 20
-1.89930380008e-11
 30
184.347066515
  0
VERTEX
  8
0
 10
1002.560845
 20
-1.9225328559e-11
 30
186.601686496
  0
VERTEX
  8
0
 10
1002.61857225
 20
-1.94565609945e-11
 30
188.846036304
  0
VERTEX
  8
0
 10
1002.67363385
 20
-1.96867378709e-11
 30
191.080140818
  0
VERTEX
  8
0
 10
1002.72600914
 20
-1.99158617515e-11
 30
193.30402492
  0
VERTEX
  8
0
 10
1002.77567745
 20
-2.01439351997e-11
 30
195.51771349
  0
VERTEX
  8
0
 10
1002.82261809
 20
-2.0370960779e-11
 30
197.721231409
  0
VERTEX
  8
0
 10
1002.8668104
 20
-2.05969410528e-11
 30
199.914603557
  0
VERTEX
  8
0
 10
1002.9082337
 20
-2.08218785845e-11
 30
202.097854815
  0
VERTEX
  8
0
 10
1002.94686732
 20
-2.10457759374e-11
 30
204.271010064
  0
VERTEX
  8
0
 10
1002.9826906
 20
-2.12686356752e-11
 30
206.434094184
  0
VERTEX
  8
0
 10
1003.01568285
 20
-2.14904603611e-11
 30
208.587132056
  0
VERTEX
  8
0
 10
1003.04582341
 20
-2.17112525585e-11
 30
210.730148561
  0
VERTEX
  8
0
 10
1003.0730916
 20
-2.1931014831e-11
 30
212.863168579
  0
VERTEX
  8
0
 10
1003.09746674
 20
-2.21497497419e-11
 30
214.986216991
  0
VERTEX
  8
0
 10
1003.11892818
 20
-2.23674598546e-11
 30
217.099318678
  0
VERTEX
  8
0
 10
1003.13745523
 20
-2.25841477326e-11
 30
219.20249852
  0
VERTEX
  8
0
 10
1003.15302722
 20
-2.27998159393e-11
 30
221.295781398
  0
VERTEX
  8
0
 10
1003.16562348
 20
-2.30144670381e-11
 30
223.379192192
  0
VERTEX
  8
0
 10
1003.17522334
 20
-2.32281035924e-11
 30
225.452755783
  0
VERTEX
  8
0
 10
1003.18180613
 20
-2.34407281657e-11
 30
227.516497052
  0
VERTEX
  8
0
 10
1003.18535117
 20
-2.36523433213e-11
 30
229.57044088
  0
VERTEX
  8
0
 10
1003.18583778
 20
-2.38629516227e-11
 30
231.614612147
  0
VERTEX
  8
0
 10
1003.18324531
 20
-2.40725556333e-11
 30
233.649035733
  0
VERTEX
  8
0
 10
1003.17755307
 20
-2.42811579166e-11
 30
235.67373652
  0
VERTEX
  8
0
 10
1003.16874039
 20
-2.44887610359e-11
 30
237.688739388
  0
VERTEX
  8
0
 10
1003.15678661
 20
-2.46953675546e-11
 30
239.694069217
  0
VERTEX
  8
0
 10
1003.14167104
 20
-2.49009800363e-11
 30
241.689750889
  0
VERTEX
  8
0
 10
1003.12337302
 20
-2.51056010442e-11
 30
243.675809284
  0
VERTEX
  8
0
 10
1003.10187187
 20
-2.53092331419e-11
 30
245.652269282
  0
VERTEX
  8
0
 10
1003.07714692
 20
-2.55118788927e-11
 30
247.619155765
  0
VERTEX
  8
0
 10
1003.04917749
 20
-2.57135408601e-11
 30
249.576493612
  0
VERTEX
  8
0
 10
1003.01794293
 20
-2.59142216075e-11
 30
251.524307705
  0
VERTEX
  8
0
 10
1002.98342254
 20
-2.61139236983e-11
 30
253.462622925
  0
VERTEX
  8
0
 10
1002.94559567
 20
-2.6312649696e-11
 30
255.391464151
  0
VERTEX
  8
0
 10
1002.90444164
 20
-2.65104021639e-11
 30
257.310856264
  0
VERTEX
  8
0
 10
1002.85993977
 20
-2.67071836654e-11
 30
259.220824146
  0
VERTEX
  8
0
 10
1002.81206939
 20
-2.69029967641e-11
 30
261.121392676
  0
VERTEX
  8
0
 10
1002.76080984
 20
-2.70978440232e-11
 30
263.012586736
  0
VERTEX
  8
0
 10
1002.70614043
 20
-2.72917280063e-11
 30
264.894431206
  0
VERTEX
  8
0
 10
1002.6480405
 20
-2.74846512768e-11
 30
266.766950967
  0
VERTEX
  8
0
 10
1002.58648938
 20
-2.7676616398e-11
 30
268.630170899
  0
VERTEX
  8
0
 10
1002.52146638
 20
-2.78676259334e-11
 30
270.484115883
  0
VERTEX
  8
0
 10
1002.45295085
 20
-2.80576824465e-11
 30
272.328810799
  0
VERTEX
  8
0
 10
1002.3809221
 20
-2.82467885006e-11
 30
274.164280529
  0
VERTEX
  8
0
 10
1002.30535946
 20
-2.84349466591e-11
 30
275.990549953
  0
VERTEX
  8
0
 10
1002.22624226
 20
-2.86221594855e-11
 30
277.807643951
  0
VERTEX
  8
0
 10
1002.14354984
 20
-2.88084295432e-11
 30
279.615587405
  0
VERTEX
  8
0
 10
1002.05726151
 20
-2.89937593956e-11
 30
281.414405194
  0
VERTEX
  8
0
 10
1001.9673566
 20
-2.91781516062e-11
 30
283.2041222
  0
VERTEX
  8
0
 10
1001.87381445
 20
-2.93616087383e-11
 30
284.984763303
  0
VERTEX
  8
0
 10
1001.77661437
 20
-2.95441333554e-11
 30
286.756353384
  0
VERTEX
  8
0
 10
1001.6757357
 20
-2.97257280209e-11
 30
288.518917324
  0
VERTEX
  8
0
 10
1001.57115777
 20
-2.99063952982e-11
 30
290.272480002
  0
VERTEX
  8
0
 10
1001.46285989
 20
-3.00861377508e-11
 30
292.0170663
  0
VERTEX
  8
0
 10
1001.35082141
 20
-3.0264957942e-11
 30
293.752701099
  0
VERTEX
  8
0
 10
1001.23502164
 20
-3.04428584353e-11
 30
295.479409278
  0
VERTEX
  8
0
 10
1001.11543992
 20
-3.06198417941e-11
 30
297.19721572
  0
VERTEX
  8
0
 10
1000.99205557
 20
-3.07959105818e-11
 30
298.906145303
  0
VERTEX
  8
0
 10
1000.86484791
 20
-3.09710673619e-11
 30
300.60622291
  0
VERTEX
  8
0
 10
1000.73379629
 20
-3.11453146977e-11
 30
302.29747342
  0
VERTEX
  8
0
 10
1000.59888002
 20
-3.13186551527e-11
 30
303.979921714
  0
VERTEX
  8
0
 10
1000.46007843
 20
-3.14910912903e-11
 30
305.653592674
  0
VERTEX
  8
0
 10
1000.31737085
 20
-3.1662625674e-11
 30
307.318511179
  0
VERTEX
  8
0
 10
1000.17073661
 20
-3.1833260867e-11
 30
308.97470211
  0
VERTEX
  8
0
 10
1000.02015503
 20
-3.2002999433e-11
 30
310.622190347
  0
VERTEX
  8
0
 10
999.865605446
 20
-3.21718439352e-11
 30
312.261000773
  0
VERTEX
  8
0
 10
999.707067181
 20
-3.23397969372e-11
 30
313.891158266
  0
VERTEX
  8
0
 10
999.544519563
 20
-3.25068610022e-11
 30
315.512687708
  0
VERTEX
  8
0
 10
999.37794192
 20
-3.26730386939e-11
 30
317.12561398
  0
VERTEX
  8
0
 10
999.20731358
 20
-3.28383325755e-11
 30
318.729961962
  0
VERTEX
  8
0
 10
999.032613869
 20
-3.30027452104e-11
 30
320.325756534
  0
VERTEX
  8
0
 10
998.853822117
 20
-3.31662791622e-11
 30
321.913022578
  0
VERTEX
  8
0
 10
998.670917649
 20
-3.33289369942e-11
 30
323.491784974
  0
VERTEX
  8
0
 10
998.483879793
 20
-3.34907212699e-11
 30
325.062068602
  0
VERTEX
  8
0
 10
998.292687878
 20
-3.36516345526e-11
 30
326.623898344
  0
VERTEX
  8
0
 10
998.097321231
 20
-3.38116794058e-11
 30
328.177299079
  0
VERTEX
  8
0
 10
997.897759179
 20
-3.3970858393e-11
 30
329.72229569
  0
VERTEX
  8
0
 10
997.693981049
 20
-3.41291740774e-11
 30
331.258913055
  0
VERTEX
  8
0
 10
997.485966171
 20
-3.42866290226e-11
 30
332.787176056
  0
VERTEX
  8
0
 10
997.27369387
 20
-3.4443225792e-11
 30
334.307109574
  0
VERTEX
  8
0
 10
997.057143474
 20
-3.4598966949e-11
 30
335.818738489
  0
VERTEX
  8
0
 10
996.836294311
 20
-3.4753855057e-11
 30
337.322087682
  0
VERTEX
  8
0
 10
996.611125709
 20
-3.49078926794e-11
 30
338.817182033
  0
VERTEX
  8
0
 10
996.381616996
 20
-3.50610823797e-11
 30
340.304046423
  0
VERTEX
  8
0
 10
996.147747497
 20
-3.52134267212e-11
 30
341.782705733
  0
VERTEX
  8
0
 10
995.909496542
 20
-3.53649282675e-11
 30
343.253184844
  0
VERTEX
  8
0
 10
995.666843458
 20
-3.55155895819e-11
 30
344.715508635
  0
VERTEX
  8
0
 10
995.419767572
 20
-3.56654132278e-11
 30
346.169701988
  0
VERTEX
  8
0
 10
995.168248212
 20
-3.58144017686e-11
 30
347.615789784
  0
VERTEX
  8
0
 10
994.912264705
 20
-3.59625577678e-11
 30
349.053796902
  0
VERTEX
  8
0
 10
994.65179638
 20
-3.61098837889e-11
 30
350.483748224
  0
VERTEX
  8
0
 10
994.386822562
 20
-3.62563823951e-11
 30
351.90566863
  0
VERTEX
  8
0
 10
994.117322581
 20
-3.640205615e-11
 30
353.319583002
  0
VERTEX
  8
0
 10
993.843275764
 20
-3.6546907617e-11
 30
354.725516218
  0
VERTEX
  8
0
 10
993.564661437
 20
-3.66909393594e-11
 30
356.123493161
  0
VERTEX
  8
0
 10
993.28145893
 20
-3.68341539407e-11
 30
357.513538711
  0
VERTEX
  8
0
 10
992.993647568
 20
-3.69765539243e-11
 30
358.895677748
  0
VERTEX
  8
0
 10
992.70120668
 20
-3.71181418737e-11
 30
360.269935153
  0
VERTEX
  8
0
 10
992.404115594
 20
-3.72589203523e-11
 30
361.636335808
  0
VERTEX
  8
0
 10
992.102353636
 20
-3.73988919234e-11
 30
362.994904591
  0
VERTEX
  8
0
 10
991.795900135
 20
-3.75380591505e-11
 30
364.345666385
  0
VERTEX
  8
0
 10
991.484734418
 20
-3.76764245971e-11
 30
365.688646069
  0
VERTEX
  8
0
 10
991.168835813
 20
-3.78139908265e-11
 30
367.023868525
  0
VERTEX
  8
0
 10
990.848183646
 20
-3.79507604021e-11
 30
368.351358632
  0
VERTEX
  8
0
 10
990.522757246
 20
-3.80867358874e-11
 30
369.671141273
  0
VERTEX
  8
0
 10
990.192535941
 20
-3.82219198459e-11
 30
370.983241326
  0
VERTEX
  8
0
 10
989.857499057
 20
-3.83563148409e-11
 30
372.287683674
  0
VERTEX
  8
0
 10
989.517625922
 20
-3.84899234358e-11
 30
373.584493196
  0
VERTEX
  8
0
 10
989.172895864
 20
-3.8622748194e-11
 30
374.873694773
  0
VERTEX
  8
0
 10
988.823288211
 20
-3.87547916791e-11
 30
376.155313286
  0
VERTEX
  8
0
 10
988.468782289
 20
-3.88860564544e-11
 30
377.429373616
  0
VERTEX
  8
0
 10
988.109357427
 20
-3.90165450833e-11
 30
378.695900643
  0
VERTEX
  8
0
 10
987.744992952
 20
-3.91462601292e-11
 30
379.954919248
  0
VERTEX
  8
0
 10
987.375668192
 20
-3.92752041556e-11
 30
381.206454311
  0
VERTEX
  8
0
 10
987.001362473
 20
-3.94033797259e-11
 30
382.450530713
  0
VERTEX
  8
0
 10
986.622055125
 20
-3.95307894035e-11
 30
383.687173335
  0
VERTEX
  8
0
 10
986.237725473
 20
-3.96574357519e-11
 30
384.916407057
  0
VERTEX
  8
0
 10
985.848352846
 20
-3.97833213343e-11
 30
386.138256761
  0
VERTEX
  8
0
 10
985.453916572
 20
-3.99084487144e-11
 30
387.352747326
  0
VERTEX
  8
0
 10
985.054395977
 20
-4.00328204554e-11
 30
388.559903633
  0
VERTEX
  8
0
 10
984.64977039
 20
-4.01564391209e-11
 30
389.759750563
  0
VERTEX
  8
0
 10
984.240019138
 20
-4.02793072742e-11
 30
390.952312997
  0
VERTEX
  8
0
 10
983.825121548
 20
-4.04014274787e-11
 30
392.137615815
  0
VERTEX
  8
0
 10
983.405056949
 20
-4.05228022979e-11
 30
393.315683899
  0
VERTEX
  8
0
 10
982.979804666
 20
-4.06434342952e-11
 30
394.486542127
  0
VERTEX
  8
0
 10
982.54934403
 20
-4.0763326034e-11
 30
395.650215382
  0
VERTEX
  8
0
 10
982.113654365
 20
-4.08824800778e-11
 30
396.806728544
  0
VERTEX
  8
0
 10
981.672715001
 20
-4.10008989899e-11
 30
397.956106493
  0
VERTEX
  8
0
 10
981.226505265
 20
-4.11185853338e-11
 30
399.09837411
  0
VERTEX
  8
0
 10
980.775004484
 20
-4.12355416728e-11
 30
400.233556276
  0
VERTEX
  8
0
 10
980.318191986
 20
-4.13517705705e-11
 30
401.361677872
  0
VERTEX
  8
0
 10
979.856047099
 20
-4.14672745903e-11
 30
402.482763777
  0
VERTEX
  8
0
 10
979.388549149
 20
-4.15820562954e-11
 30
403.596838874
  0
VERTEX
  8
0
 10
978.915677465
 20
-4.16961182495e-11
 30
404.703928041
  0
VERTEX
  8
0
 10
978.437411374
 20
-4.18094630158e-11
 30
405.804056161
  0
VERTEX
  8
0
 10
977.953730204
 20
-4.19220931579e-11
 30
406.897248113
  0
VERTEX
  8
0
 10
977.464613282
 20
-4.20340112391e-11
 30
407.983528779
  0
VERTEX
  8
0
 10
976.970039936
 20
-4.21452198229e-11
 30
409.062923038
  0
VERTEX
  8
0
 10
976.469989493
 20
-4.22557214726e-11
 30
410.135455773
  0
VERTEX
  8
0
 10
975.964441281
 20
-4.23655187518e-11
 30
411.201151862
  0
VERTEX
  8
0
 10
975.453374627
 20
-4.24746142237e-11
 30
412.260036187
  0
VERTEX
  8
0
 10
974.936768859
 20
-4.2583010452e-11
 30
413.312133629
  0
VERTEX
  8
0
 10
974.414603304
 20
-4.26907099998e-11
 30
414.357469068
  0
VERTEX
  8
0
 10
973.886857291
 20
-4.27977154308e-11
 30
415.396067384
  0
VERTEX
  8
0
 10
973.353510146
 20
-4.29040293082e-11
 30
416.427953459
  0
VERTEX
  8
0
 10
972.814541197
 20
-4.30096541956e-11
 30
417.453152174
  0
VERTEX
  8
0
 10
972.269929772
 20
-4.31145926563e-11
 30
418.471688408
  0
VERTEX
  8
0
 10
971.719655198
 20
-4.32188472538e-11
 30
419.483587042
  0
VERTEX
  8
0
 10
971.163696803
 20
-4.33224205514e-11
 30
420.488872957
  0
VERTEX
  8
0
 10
970.602033914
 20
-4.34253151127e-11
 30
421.487571035
  0
VERTEX
  8
0
 10
970.034645859
 20
-4.3527533501e-11
 30
422.479706154
  0
VERTEX
  8
0
 10
969.461511966
 20
-4.36290782797e-11
 30
423.465303196
  0
VERTEX
  8
0
 10
968.882611561
 20
-4.37299520123e-11
 30
424.444387042
  0
VERTEX
  8
0
 10
968.297923973
 20
-4.38301572622e-11
 30
425.416982573
  0
VERTEX
  8
0
 10
967.707428529
 20
-4.39296965928e-11
 30
426.383114668
  0
VERTEX
  8
0
 10
967.111104557
 20
-4.40285725675e-11
 30
427.342808208
  0
VERTEX
  8
0
 10
966.508931384
 20
-4.41267877498e-11
 30
428.296088075
  0
VERTEX
  8
0
 10
965.900888337
 20
-4.4224344703e-11
 30
429.242979149
  0
VERTEX
  8
0
 10
965.286954745
 20
-4.43212459906e-11
 30
430.18350631
  0
VERTEX
  8
0
 10
964.667109934
 20
-4.44174941761e-11
 30
431.11769444
  0
VERTEX
  8
0
 10
964.041333233
 20
-4.45130918227e-11
 30
432.045568418
  0
VERTEX
  8
0
 10
963.409603969
 20
-4.4608041494e-11
 30
432.967153125
  0
VERTEX
  8
0
 10
962.771901469
 20
-4.47023457534e-11
 30
433.882473443
  0
VERTEX
  8
0
 10
962.128205061
 20
-4.47960071643e-11
 30
434.791554251
  0
VERTEX
  8
0
 10
961.478494073
 20
-4.488902829e-11
 30
435.694420431
  0
VERTEX
  8
0
 10
960.822747832
 20
-4.49814116941e-11
 30
436.591096863
  0
VERTEX
  8
0
 10
960.160945666
 20
-4.507315994e-11
 30
437.481608427
  0
VERTEX
  8
0
 10
959.493066901
 20
-4.5164275591e-11
 30
438.365980005
  0
VERTEX
  8
0
 10
958.819090867
 20
-4.52547612107e-11
 30
439.244236476
  0
VERTEX
  8
0
 10
958.138996889
 20
-4.53446193623e-11
 30
440.116402723
  0
VERTEX
  8
0
 10
957.452764297
 20
-4.54338526094e-11
 30
440.982503624
  0
VERTEX
  8
0
 10
956.760372417
 20
-4.55224635153e-11
 30
441.842564061
  0
VERTEX
  8
0
 10
956.061800576
 20
-4.56104546435e-11
 30
442.696608915
  0
VERTEX
  8
0
 10
955.357028104
 20
-4.56978285574e-11
 30
443.544663066
  0
VERTEX
  8
0
 10
954.646034326
 20
-4.57845878204e-11
 30
444.386751395
  0
VERTEX
  8
0
 10
953.928798571
 20
-4.58707349959e-11
 30
445.222898782
  0
VERTEX
  8
0
 10
953.205300166
 20
-4.59562726474e-11
 30
446.053130108
  0
VERTEX
  8
0
 10
952.475518439
 20
-4.60412033383e-11
 30
446.877470255
  0
VERTEX
  8
0
 10
951.739432717
 20
-4.6125529632e-11
 30
447.695944101
  0
VERTEX
  8
0
 10
950.997022327
 20
-4.62092540919e-11
 30
448.508576529
  0
VERTEX
  8
0
 10
950.248266598
 20
-4.62923792814e-11
 30
449.315392418
  0
VERTEX
  8
0
 10
949.493144857
 20
-4.6374907764e-11
 30
450.116416649
  0
VERTEX
  8
0
 10
948.731636432
 20
-4.64568421031e-11
 30
450.911674104
  0
VERTEX
  8
0
 10
947.963720649
 20
-4.6538184862e-11
 30
451.701189662
  0
VERTEX
  8
0
 10
947.189376837
 20
-4.66189386043e-11
 30
452.484988204
  0
VERTEX
  8
0
 10
946.408584322
 20
-4.66991058933e-11
 30
453.263094612
  0
VERTEX
  8
0
 10
945.621322434
 20
-4.67786892925e-11
 30
454.035533764
  0
VERTEX
  8
0
 10
944.827570498
 20
-4.68576913653e-11
 30
454.802330543
  0
VERTEX
  8
0
 10
944.027307844
 20
-4.69361146751e-11
 30
455.563509829
  0
VERTEX
  8
0
 10
943.220513797
 20
-4.70139617852e-11
 30
456.319096503
  0
VERTEX
  8
0
 10
942.407167687
 20
-4.70912352593e-11
 30
457.069115444
  0
VERTEX
  8
0
 10
941.587248839
 20
-4.71679376606e-11
 30
457.813591534
  0
VERTEX
  8
0
 10
940.760736583
 20
-4.72440715526e-11
 30
458.552549654
  0
VERTEX
  8
0
 10
939.927610245
 20
-4.73196394986e-11
 30
459.286014684
  0
VERTEX
  8
0
 10
939.087849153
 20
-4.73946440622e-11
 30
460.014011505
  0
VERTEX
  8
0
 10
938.241432635
 20
-4.74690878068e-11
 30
460.736564996
  0
VERTEX
  8
0
 10
937.388340017
 20
-4.75429732957e-11
 30
461.45370004
  0
VERTEX
  8
0
 10
936.528550629
 20
-4.76163030924e-11
 30
462.165441517
  0
VERTEX
  8
0
 10
935.662043796
 20
-4.76890797603e-11
 30
462.871814307
  0
VERTEX
  8
0
 10
934.788798848
 20
-4.77613058629e-11
 30
463.57284329
  0
VERTEX
  8
0
 10
933.90879511
 20
-4.78329839634e-11
 30
464.268553349
  0
VERTEX
  8
0
 10
933.022011912
 20
-4.79041166255e-11
 30
464.958969362
  0
VERTEX
  8
0
 10
932.128428579
 20
-4.79747064124e-11
 30
465.644116212
  0
VERTEX
  8
0
 10
931.228024441
 20
-4.80447558877e-11
 30
466.324018778
  0
VERTEX
  8
0
 10
930.320778824
 20
-4.81142676147e-11
 30
466.998701941
  0
VERTEX
  8
0
 10
929.406671057
 20
-4.81832441568e-11
 30
467.668190582
  0
VERTEX
  8
0
 10
928.485680465
 20
-4.82516880775e-11
 30
468.332509581
  0
VERTEX
  8
0
 10
927.557786378
 20
-4.83196019402e-11
 30
468.99168382
  0
VERTEX
  8
0
 10
926.622968123
 20
-4.83869883083e-11
 30
469.645738178
  0
VERTEX
  8
0
 10
925.681205027
 20
-4.84538497452e-11
 30
470.294697537
  0
VERTEX
  8
0
 10
924.732476417
 20
-4.85201888144e-11
 30
470.938586777
  0
VERTEX
  8
0
 10
923.776761622
 20
-4.85860080792e-11
 30
471.577430778
  0
VERTEX
  8
0
 10
922.814039969
 20
-4.86513101032e-11
 30
472.211254422
  0
VERTEX
  8
0
 10
921.844290785
 20
-4.87160974496e-11
 30
472.840082588
  0
VERTEX
  8
0
 10
920.867493399
 20
-4.8780372682e-11
 30
473.463940159
  0
VERTEX
  8
0
 10
919.883627136
 20
-4.88441383637e-11
 30
474.082852013
  0
VERTEX
  8
0
 10
918.892671326
 20
-4.89073970583e-11
 30
474.696843033
  0
VERTEX
  8
0
 10
917.894605296
 20
-4.8970151329e-11
 30
475.305938098
  0
VERTEX
  8
0
 10
916.889408372
 20
-4.90324037393e-11
 30
475.910162089
  0
VERTEX
  8
0
 10
915.877059883
 20
-4.90941568527e-11
 30
476.509539887
  0
VERTEX
  8
0
 10
914.857539157
 20
-4.91554132325e-11
 30
477.104096373
  0
VERTEX
  8
0
 10
913.83082552
 20
-4.92161754422e-11
 30
477.693856427
  0
VERTEX
  8
0
 10
912.796898301
 20
-4.92764460452e-11
 30
478.278844929
  0
VERTEX
  8
0
 10
911.755736827
 20
-4.93362276049e-11
 30
478.859086761
  0
VERTEX
  8
0
 10
910.707320425
 20
-4.93955226847e-11
 30
479.434606803
  0
VERTEX
  8
0
 10
909.651628423
 20
-4.94543338481e-11
 30
480.005429936
  0
VERTEX
  8
0
 10
908.588640148
 20
-4.95126636585e-11
 30
480.57158104
  0
VERTEX
  8
0
 10
907.518334929
 20
-4.95705146793e-11
 30
481.133084996
  0
VERTEX
  8
0
 10
906.440692093
 20
-4.96278894739e-11
 30
481.689966685
  0
VERTEX
  8
0
 10
905.355690966
 20
-4.96847906057e-11
 30
482.242250987
  0
VERTEX
  8
0
 10
904.263310877
 20
-4.97412206382e-11
 30
482.789962783
  0
VERTEX
  8
0
 10
903.163531154
 20
-4.97971821348e-11
 30
483.333126954
  0
VERTEX
  8
0
 10
902.056331124
 20
-4.98526776589e-11
 30
483.871768379
  0
VERTEX
  8
0
 10
900.941690113
 20
-4.99077097739e-11
 30
484.405911941
  0
VERTEX
  8
0
 10
899.819587451
 20
-4.99622810433e-11
 30
484.935582519
  0
VERTEX
  8
0
 10
898.690002464
 20
-5.00163940304e-11
 30
485.460804995
  0
VERTEX
  8
0
 10
897.552914481
 20
-5.00700512987e-11
 30
485.981604248
  0
VERTEX
  8
0
 10
896.408302828
 20
-5.01232554116e-11
 30
486.49800516
  0
VERTEX
  8
0
 10
895.256146833
 20
-5.01760089325e-11
 30
487.010032611
  0
VERTEX
  8
0
 10
894.096425823
 20
-5.02283144249e-11
 30
487.517711481
  0
VERTEX
  8
0
 10
892.929119127
 20
-5.02801744521e-11
 30
488.021066652
  0
VERTEX
  8
0
 10
891.754206072
 20
-5.03315915776e-11
 30
488.520123004
  0
VERTEX
  8
0
 10
890.571665985
 20
-5.03825683649e-11
 30
489.014905418
  0
VERTEX
  8
0
 10
889.381478194
 20
-5.04331073772e-11
 30
489.505438774
  0
VERTEX
  8
0
 10
888.183622026
 20
-5.04832111781e-11
 30
489.991747953
  0
VERTEX
  8
0
 10
886.97807681
 20
-5.0532882331e-11
 30
490.473857836
  0
VERTEX
  8
0
 10
885.764821871
 20
-5.05821233992e-11
 30
490.951793302
  0
VERTEX
  8
0
 10
884.543836539
 20
-5.06309369463e-11
 30
491.425579234
  0
VERTEX
  8
0
 10
883.315100141
 20
-5.06793255356e-11
 30
491.895240512
  0
VERTEX
  8
0
 10
882.078592004
 20
-5.07272917305e-11
 30
492.360802015
  0
VERTEX
  8
0
 10
880.834291455
 20
-5.07748380945e-11
 30
492.822288626
  0
VERTEX
  8
0
 10
879.582177823
 20
-5.0821967191e-11
 30
493.279725224
  0
VERTEX
  8
0
 10
878.322230434
 20
-5.08686815834e-11
 30
493.73313669
  0
VERTEX
  8
0
 10
877.054428617
 20
-5.09149838352e-11
 30
494.182547905
  0
VERTEX
  8
0
 10
875.778751699
 20
-5.09608765097e-11
 30
494.627983749
  0
VERTEX
  8
0
 10
874.495179007
 20
-5.10063621703e-11
 30
495.069469103
  0
VERTEX
  8
0
 10
873.203689869
 20
-5.10514433806e-11
 30
495.507028848
  0
VERTEX
  8
0
 10
871.904263613
 20
-5.10961227039e-11
 30
495.940687865
  0
VERTEX
  8
0
 10
870.596879566
 20
-5.11404027036e-11
 30
496.370471033
  0
VERTEX
  8
0
 10
869.281517055
 20
-5.11842859431e-11
 30
496.796403234
  0
VERTEX
  8
0
 10
867.958155409
 20
-5.1227774986e-11
 30
497.218509349
  0
VERTEX
  8
0
 10
866.626773955
 20
-5.12708723955e-11
 30
497.636814257
  0
VERTEX
  8
0
 10
865.28735202
 20
-5.13135807351e-11
 30
498.05134284
  0
VERTEX
  8
0
 10
863.939868931
 20
-5.13559025683e-11
 30
498.462119978
  0
VERTEX
  8
0
 10
862.584304017
 20
-5.13978404584e-11
 30
498.869170552
  0
VERTEX
  8
0
 10
861.220636605
 20
-5.1439396969e-11
 30
499.272519443
  0
VERTEX
  8
0
 10
859.848846023
 20
-5.14805746633e-11
 30
499.672191531
  0
VERTEX
  8
0
 10
858.468911597
 20
-5.15213761048e-11
 30
500.068211696
  0
VERTEX
  8
0
 10
857.080812656
 20
-5.15618038569e-11
 30
500.46060482
  0
VERTEX
  8
0
 10
855.684528528
 20
-5.16018604832e-11
 30
500.849395784
  0
VERTEX
  8
0
 10
854.280038538
 20
-5.16415485469e-11
 30
501.234609467
  0
VERTEX
  8
0
 10
852.867322017
 20
-5.16808706115e-11
 30
501.61627075
  0
VERTEX
  8
0
 10
851.44635829
 20
-5.17198292404e-11
 30
501.994404514
  0
VERTEX
  8
0
 10
850.017126685
 20
-5.1758426997e-11
 30
502.36903564
  0
VERTEX
  8
0
 10
848.57960653
 20
-5.17966664449e-11
 30
502.740189009
  0
VERTEX
  8
0
 10
847.133777153
 20
-5.18345501473e-11
 30
503.1078895
  0
VERTEX
  8
0
 10
845.67961788
 20
-5.18720806677e-11
 30
503.472161995
  0
VERTEX
  8
0
 10
844.21710804
 20
-5.19092605695e-11
 30
503.833031375
  0
VERTEX
  8
0
 10
842.74622696
 20
-5.19460924161e-11
 30
504.190522519
  0
VERTEX
  8
0
 10
841.266953968
 20
-5.19825787711e-11
 30
504.544660309
  0
VERTEX
  8
0
 10
839.779268391
 20
-5.20187221977e-11
 30
504.895469625
  0
VERTEX
  8
0
 10
838.283149557
 20
-5.20545252594e-11
 30
505.242975347
  0
VERTEX
  8
0
 10
836.778576793
 20
-5.20899905196e-11
 30
505.587202358
  0
VERTEX
  8
0
 10
835.265529427
 20
-5.21251205418e-11
 30
505.928175536
  0
VERTEX
  8
0
 10
833.743986786
 20
-5.21599178894e-11
 30
506.265919763
  0
VERTEX
  8
0
 10
832.213928198
 20
-5.21943851257e-11
 30
506.60045992
  0
VERTEX
  8
0
 10
830.67533299
 20
-5.22285248142e-11
 30
506.931820887
  0
VERTEX
  8
0
 10
829.128180491
 20
-5.22623395184e-11
 30
507.260027544
  0
VERTEX
  8
0
 10
827.572450027
 20
-5.22958318016e-11
 30
507.585104773
  0
VERTEX
  8
0
 10
826.008120926
 20
-5.23290042273e-11
 30
507.907077454
  0
VERTEX
  8
0
 10
824.435172516
 20
-5.23618593589e-11
 30
508.225970468
  0
VERTEX
  8
0
 10
822.853584124
 20
-5.23943997597e-11
 30
508.541808695
  0
VERTEX
  8
0
 10
821.263335078
 20
-5.24266279934e-11
 30
508.854617015
  0
VERTEX
  8
0
 10
819.664404705
 20
-5.24585466231e-11
 30
509.164420311
  0
VERTEX
  8
0
 10
818.056772333
 20
-5.24901582124e-11
 30
509.471243461
  0
VERTEX
  8
0
 10
816.440417289
 20
-5.25214653247e-11
 30
509.775111348
  0
VERTEX
  8
0
 10
814.815318902
 20
-5.25524705235e-11
 30
510.076048851
  0
VERTEX
  8
0
 10
813.181456498
 20
-5.2583176372e-11
 30
510.374080851
  0
VERTEX
  8
0
 10
811.538809405
 20
-5.26135854338e-11
 30
510.669232229
  0
VERTEX
  8
0
 10
809.88735695
 20
-5.26437002723e-11
 30
510.961527866
  0
VERTEX
  8
0
 10
808.227078462
 20
-5.26735234509e-11
 30
511.250992642
  0
VERTEX
  8
0
 10
806.557953267
 20
-5.2703057533e-11
 30
511.537651437
  0
VERTEX
  8
0
 10
804.879960693
 20
-5.2732305082e-11
 30
511.821529133
  0
VERTEX
  8
0
 10
803.193080069
 20
-5.27612686614e-11
 30
512.10265061
  0
VERTEX
  8
0
 10
801.49729072
 20
-5.27899508345e-11
 30
512.381040748
  0
VERTEX
  8
0
 10
799.792571976
 20
-5.28183541648e-11
 30
512.656724429
  0
VERTEX
  8
0
 10
798.078903163
 20
-5.28464812158e-11
 30
512.929726533
  0
VERTEX
  8
0
 10
796.356263609
 20
-5.28743345508e-11
 30
513.20007194
  0
VERTEX
  8
0
 10
794.624632641
 20
-5.29019167332e-11
 30
513.467785532
  0
VERTEX
  8
0
 10
792.883989588
 20
-5.29292303265e-11
 30
513.732892189
  0
VERTEX
  8
0
 10
791.134313776
 20
-5.29562778942e-11
 30
513.995416791
  0
VERTEX
  8
0
 10
789.375584534
 20
-5.29830619995e-11
 30
514.25538422
  0
VERTEX
  8
0
 10
787.607781188
 20
-5.3009585206e-11
 30
514.512819355
  0
VERTEX
  8
0
 10
785.830883066
 20
-5.3035850077e-11
 30
514.767747078
  0
VERTEX
  8
0
 10
784.044869496
 20
-5.3061859176e-11
 30
515.020192269
  0
VERTEX
  8
0
 10
782.249719806
 20
-5.30876150664e-11
 30
515.270179809
  0
VERTEX
  8
0
 10
780.445413322
 20
-5.31131203117e-11
 30
515.517734578
  0
VERTEX
  8
0
 10
778.631929373
 20
-5.31383774751e-11
 30
515.762881457
  0
VERTEX
  8
0
 10
776.809247286
 20
-5.31633891203e-11
 30
516.005645327
  0
VERTEX
  8
0
 10
774.977346389
 20
-5.31881578105e-11
 30
516.246051068
  0
VERTEX
  8
0
 10
773.136206009
 20
-5.32126861092e-11
 30
516.484123562
  0
VERTEX
  8
0
 10
771.285805473
 20
-5.32369765798e-11
 30
516.719887688
  0
VERTEX
  8
0
 10
769.42612411
 20
-5.32610317858e-11
 30
516.953368327
  0
VERTEX
  8
0
 10
767.557141246
 20
-5.32848542905e-11
 30
517.184590361
  0
VERTEX
  8
0
 10
765.678836209
 20
-5.33084466575e-11
 30
517.413578669
  0
VERTEX
  8
0
 10
763.791188328
 20
-5.333181145e-11
 30
517.640358132
  0
VERTEX
  8
0
 10
761.894176929
 20
-5.33549512315e-11
 30
517.864953631
  0
VERTEX
  8
0
 10
759.98778134
 20
-5.33778685655e-11
 30
518.087390046
  0
VERTEX
  8
0
 10
758.071980888
 20
-5.34005660154e-11
 30
518.307692259
  0
VERTEX
  8
0
 10
756.146754901
 20
-5.34230461445e-11
 30
518.52588515
  0
VERTEX
  8
0
 10
754.212082707
 20
-5.34453115164e-11
 30
518.741993599
  0
VERTEX
  8
0
 10
752.267943633
 20
-5.34673646944e-11
 30
518.956042487
  0
VERTEX
  8
0
 10
750.314317007
 20
-5.34892082419e-11
 30
519.168056695
  0
VERTEX
  8
0
 10
748.351182156
 20
-5.35108447224e-11
 30
519.378061103
  0
VERTEX
  8
0
 10
746.378518408
 20
-5.35322766993e-11
 30
519.586080593
  0
VERTEX
  8
0
 10
744.39630509
 20
-5.35535067359e-11
 30
519.792140044
  0
VERTEX
  8
0
 10
742.40452153
 20
-5.35745373959e-11
 30
519.996264337
  0
VERTEX
  8
0
 10
740.403147056
 20
-5.35953712424e-11
 30
520.198478354
  0
VERTEX
  8
0
 10
738.392160994
 20
-5.36160108391e-11
 30
520.398806974
  0
VERTEX
  8
0
 10
736.371542674
 20
-5.36364587492e-11
 30
520.597275078
  0
VERTEX
  8
0
 10
734.341271421
 20
-5.36567175362e-11
 30
520.793907547
  0
VERTEX
  8
0
 10
732.301326563
 20
-5.36767897636e-11
 30
520.988729262
  0
VERTEX
  8
0
 10
730.251687429
 20
-5.36966779947e-11
 30
521.181765103
  0
VERTEX
  8
0
 10
728.192333346
 20
-5.3716384793e-11
 30
521.373039951
  0
VERTEX
  8
0
 10
726.123243641
 20
-5.37359127219e-11
 30
521.562578687
  0
VERTEX
  8
0
 10
724.044397642
 20
-5.37552643448e-11
 30
521.75040619
  0
VERTEX
  8
0
 10
721.955774676
 20
-5.37744422251e-11
 30
521.936547343
  0
VERTEX
  8
0
 10
719.857354071
 20
-5.37934489263e-11
 30
522.121027024
  0
VERTEX
  8
0
 10
717.749115155
 20
-5.38122870117e-11
 30
522.303870116
  0
VERTEX
  8
0
 10
715.631037254
 20
-5.38309590449e-11
 30
522.485101499
  0
VERTEX
  8
0
 10
713.503099697
 20
-5.38494675891e-11
 30
522.664746053
  0
VERTEX
  8
0
 10
711.365281812
 20
-5.38678152079e-11
 30
522.842828659
  0
VERTEX
  8
0
 10
709.217562925
 20
-5.38860044647e-11
 30
523.019374198
  0
VERTEX
  8
0
 10
707.059922364
 20
-5.39040379228e-11
 30
523.19440755
  0
VERTEX
  8
0
 10
704.892339457
 20
-5.39219181458e-11
 30
523.367953596
  0
VERTEX
  8
0
 10
702.714793531
 20
-5.39396476969e-11
 30
523.540037216
  0
VERTEX
  8
0
 10
700.527263914
 20
-5.39572291397e-11
 30
523.710683292
  0
VERTEX
  8
0
 10
698.329729934
 20
-5.39746650375e-11
 30
523.879916704
  0
VERTEX
  8
0
 10
696.122170917
 20
-5.39919579538e-11
 30
524.047762332
  0
VERTEX
  8
0
 10
693.904566192
 20
-5.40091104521e-11
 30
524.214245057
  0
VERTEX
  8
0
 10
691.676895086
 20
-5.40261250956e-11
 30
524.37938976
  0
VERTEX
  8
0
 10
689.439136927
 20
-5.40430044479e-11
 30
524.543221322
  0
VERTEX
  8
0
 10
687.191271041
 20
-5.40597510723e-11
 30
524.705764623
  0
VERTEX
  8
0
 10
684.933276758
 20
-5.40763675323e-11
 30
524.867044544
  0
VERTEX
  8
0
 10
682.665133404
 20
-5.40928563914e-11
 30
525.027085965
  0
VERTEX
  8
0
 10
680.386820306
 20
-5.41092202128e-11
 30
525.185913767
  0
VERTEX
  8
0
 10
678.098316793
 20
-5.41254615601e-11
 30
525.34355283
  0
VERTEX
  8
0
 10
675.799602192
 20
-5.41415829966e-11
 30
525.500028036
  0
VERTEX
  8
0
 10
673.49065583
 20
-5.41575870859e-11
 30
525.655364266
  0
VERTEX
  8
0
 10
671.171457035
 20
-5.41734763912e-11
 30
525.809586398
  0
VERTEX
  8
0
 10
668.841985135
 20
-5.41892534761e-11
 30
525.962719315
  0
VERTEX
  8
0
 10
666.502219457
 20
-5.42049209039e-11
 30
526.114787897
  0
VERTEX
  8
0
 10
664.152139328
 20
-5.4220481238e-11
 30
526.265817025
  0
VERTEX
  8
0
 10
661.791724077
 20
-5.4235937042e-11
 30
526.415831578
  0
VERTEX
  8
0
 10
659.42095303
 20
-5.42512908791e-11
 30
526.564856439
  0
VERTEX
  8
0
 10
657.039805516
 20
-5.42665453129e-11
 30
526.712916487
  0
VERTEX
  8
0
 10
654.648260862
 20
-5.42817029068e-11
 30
526.860036603
  0
VERTEX
  8
0
 10
652.246298395
 20
-5.42967662241e-11
 30
527.006241668
  0
VERTEX
  8
0
 10
649.833897442
 20
-5.43117378282e-11
 30
527.151556563
  0
VERTEX
  8
0
 10
647.411037333
 20
-5.43266202827e-11
 30
527.296006167
  0
VERTEX
  8
0
 10
644.977697393
 20
-5.4341416151e-11
 30
527.439615363
  0
VERTEX
  8
0
 10
642.533856951
 20
-5.43561279963e-11
 30
527.582409029
  0
VERTEX
  8
0
 10
640.079495334
 20
-5.43707583823e-11
 30
527.724412048
  0
VERTEX
  8
0
 10
637.61459187
 20
-5.43853098722e-11
 30
527.865649299
  0
VERTEX
  8
0
 10
635.139125886
 20
-5.43997850296e-11
 30
528.006145664
  0
VERTEX
  8
0
 10
632.653076709
 20
-5.44141864177e-11
 30
528.145926023
  0
VERTEX
  8
0
 10
630.156423668
 20
-5.44285166002e-11
 30
528.285015256
  0
VERTEX
  8
0
 10
627.64914609
 20
-5.44427781403e-11
 30
528.423438245
  0
VERTEX
  8
0
 10
625.131223303
 20
-5.44569736014e-11
 30
528.561219869
  0
VERTEX
  8
0
 10
622.602634633
 20
-5.44711055471e-11
 30
528.69838501
  0
VERTEX
  8
0
 10
620.063359409
 20
-5.44851765408e-11
 30
528.834958548
  0
VERTEX
  8
0
 10
617.513376957
 20
-5.44991891458e-11
 30
528.970965364
  0
VERTEX
  8
0
 10
614.952666607
 20
-5.45131459255e-11
 30
529.106430338
  0
VERTEX
  8
0
 10
612.381207684
 20
-5.45270494435e-11
 30
529.241378352
  0
VERTEX
  8
0
 10
609.798979518
 20
-5.45409022631e-11
 30
529.375834285
  0
VERTEX
  8
0
 10
607.205961434
 20
-5.45547069477e-11
 30
529.509823019
  0
VERTEX
  8
0
 10
604.602132762
 20
-5.45684660607e-11
 30
529.643369434
  0
VERTEX
  8
0
 10
601.987472827
 20
-5.45821821657e-11
 30
529.77649841
  0
VERTEX
  8
0
 10
599.361960959
 20
-5.45958578259e-11
 30
529.909234829
  0
VERTEX
  8
0
 10
596.725576484
 20
-5.46094956049e-11
 30
530.041603571
  0
VERTEX
  8
0
 10
594.07829873
 20
-5.46230980659e-11
 30
530.173629516
  0
VERTEX
  8
0
 10
591.420107025
 20
-5.46366677726e-11
 30
530.305337546
  0
VERTEX
  8
0
 10
588.750980695
 20
-5.46502072882e-11
 30
530.436752541
  0
VERTEX
  8
0
 10
586.07089907
 20
-5.46637191762e-11
 30
530.567899381
  0
VERTEX
  8
0
 10
583.379841475
 20
-5.46772060001e-11
 30
530.698802948
  0
VERTEX
  8
0
 10
580.67778724
 20
-5.46906703232e-11
 30
530.829488121
  0
VERTEX
  8
0
 10
577.96471569
 20
-5.47041147089e-11
 30
530.959979782
  0
VERTEX
  8
0
 10
575.240606154
 20
-5.47175417207e-11
 30
531.090302811
  0
VERTEX
  8
0
 10
572.50543796
 20
-5.47309539221e-11
 30
531.220482089
  0
VERTEX
  8
0
 10
569.759190435
 20
-5.47443538763e-11
 30
531.350542496
  0
VERTEX
  8
0
 10
567.001842906
 20
-5.47577441469e-11
 30
531.480508913
  0
VERTEX
  8
0
 10
564.233374701
 20
-5.47711272973e-11
 30
531.610406221
  0
VERTEX
  8
0
 10
561.453765148
 20
-5.47845058908e-11
 30
531.740259301
  0
VERTEX
  8
0
 10
558.662993574
 20
-5.47978824909e-11
 30
531.870093032
  0
VERTEX
  8
0
 10
555.861039307
 20
-5.48112596611e-11
 30
531.999932296
  0
VERTEX
  8
0
 10
553.047881674
 20
-5.48246399647e-11
 30
532.129801974
  0
VERTEX
  8
0
 10
550.223500002
 20
-5.48380259652e-11
 30
532.259726945
  0
VERTEX
  8
0
 10
547.38787362
 20
-5.4851420226e-11
 30
532.389732091
  0
VERTEX
  8
0
 10
544.540981855
 20
-5.48648253104e-11
 30
532.519842293
  0
VERTEX
  8
0
 10
541.682804034
 20
-5.4878243782e-11
 30
532.65008243
  0
VERTEX
  8
0
 10
538.813319485
 20
-5.48916782041e-11
 30
532.780477383
  0
VERTEX
  8
0
 10
535.932507536
 20
-5.49051311402e-11
 30
532.911052034
  0
VERTEX
  8
0
 10
533.040347514
 20
-5.49186051537e-11
 30
533.041831263
  0
VERTEX
  8
0
 10
530.136818746
 20
-5.4932102808e-11
 30
533.17283995
  0
VERTEX
  8
0
 10
527.221900561
 20
-5.49456266666e-11
 30
533.304102977
  0
VERTEX
  8
0
 10
524.295572285
 20
-5.49591792928e-11
 30
533.435645223
  0
VERTEX
  8
0
 10
521.357813247
 20
-5.497276325e-11
 30
533.567491569
  0
VERTEX
  8
0
 10
518.408602773
 20
-5.49863811017e-11
 30
533.699666897
  0
VERTEX
  8
0
 10
515.447920192
 20
-5.50000354114e-11
 30
533.832196086
  0
VERTEX
  8
0
 10
512.47574483
 20
-5.50137287424e-11
 30
533.965104018
  0
VERTEX
  8
0
 10
509.492056016
 20
-5.50274636581e-11
 30
534.098415573
  0
VERTEX
  8
0
 10
506.496833077
 20
-5.5041242722e-11
 30
534.232155631
  0
VERTEX
  8
0
 10
503.490055341
 20
-5.50550684975e-11
 30
534.366349074
  0
VERTEX
  8
0
 10
500.471702135
 20
-5.5068943548e-11
 30
534.501020781
  0
VERTEX
  8
0
 10
497.441752786
 20
-5.50828704369e-11
 30
534.636195634
  0
VERTEX
  8
0
 10
494.400186623
 20
-5.50968517277e-11
 30
534.771898513
  0
VERTEX
  8
0
 10
491.346982972
 20
-5.51108899838e-11
 30
534.9081543
  0
VERTEX
  8
0
 10
488.282121161
 20
-5.51249877686e-11
 30
535.044987873
  0
VERTEX
  8
0
 10
485.205580519
 20
-5.51391476454e-11
 30
535.182424115
  0
VERTEX
  8
0
 10
482.117340372
 20
-5.51533721778e-11
 30
535.320487906
  0
VERTEX
  8
0
 10
479.017380047
 20
-5.51676639292e-11
 30
535.459204126
  0
VERTEX
  8
0
 10
475.905678874
 20
-5.51820254629e-11
 30
535.598597656
  0
VERTEX
  8
0
 10
472.782216178
 20
-5.51964593425e-11
 30
535.738693377
  0
VERTEX
  8
0
 10
469.646971288
 20
-5.52109681312e-11
 30
535.879516169
  0
VERTEX
  8
0
 10
466.499923531
 20
-5.52255543926e-11
 30
536.021090914
  0
VERTEX
  8
0
 10
463.341052234
 20
-5.52402206901e-11
 30
536.163442491
  0
VERTEX
  8
0
 10
460.170336726
 20
-5.5254969587e-11
 30
536.306595781
  0
VERTEX
  8
0
 10
456.987756334
 20
-5.52698036468e-11
 30
536.450575665
  0
VERTEX
  8
0
 10
453.793290385
 20
-5.5284725433e-11
 30
536.595407024
  0
VERTEX
  8
0
 10
450.586918207
 20
-5.52997375089e-11
 30
536.741114739
  0
VERTEX
  8
0
 10
447.368619127
 20
-5.53148424379e-11
 30
536.887723689
  0
VERTEX
  8
0
 10
444.138372473
 20
-5.53300427836e-11
 30
537.035258755
  0
VERTEX
  8
0
 10
440.896157573
 20
-5.53453411092e-11
 30
537.183744819
  0
VERTEX
  8
0
 10
437.641953754
 20
-5.53607399782e-11
 30
537.333206761
  0
VERTEX
  8
0
 10
434.375740344
 20
-5.53762419541e-11
 30
537.483669461
  0
VERTEX
  8
0
 10
431.097496669
 20
-5.53918496003e-11
 30
537.6351578
  0
VERTEX
  8
0
 10
427.807202059
 20
-5.54075654801e-11
 30
537.787696659
  0
VERTEX
  8
0
 10
424.504835839
 20
-5.54233921571e-11
 30
537.941310919
  0
VERTEX
  8
0
 10
421.190377339
 20
-5.54393321946e-11
 30
538.096025459
  0
VERTEX
  8
0
 10
417.863805885
 20
-5.5455388156e-11
 30
538.251865161
  0
VERTEX
  8
0
 10
414.525100804
 20
-5.54715626047e-11
 30
538.408854906
  0
VERTEX
  8
0
 10
411.174241425
 20
-5.54878581043e-11
 30
538.567019574
  0
VERTEX
  8
0
 10
407.811207076
 20
-5.55042772181e-11
 30
538.726384045
  0
VERTEX
  8
0
 10
404.435977082
 20
-5.55208225095e-11
 30
538.8869732
  0
VERTEX
  8
0
 10
401.048530773
 20
-5.55374965419e-11
 30
539.048811921
  0
VERTEX
  8
0
 10
397.648847476
 20
-5.55543018788e-11
 30
539.211925087
  0
VERTEX
  8
0
 10
394.236906517
 20
-5.55712410836e-11
 30
539.376337579
  0
VERTEX
  8
0
 10
390.812687226
 20
-5.55883167197e-11
 30
539.542074278
  0
VERTEX
  8
0
 10
387.376168929
 20
-5.56055313505e-11
 30
539.709160065
  0
VERTEX
  8
0
 10
383.927330953
 20
-5.56228875395e-11
 30
539.87761982
  0
VERTEX
  8
0
 10
380.466152627
 20
-5.56403878501e-11
 30
540.047478423
  0
VERTEX
  8
0
 10
376.992613278
 20
-5.56580348456e-11
 30
540.218760756
  0
VERTEX
  8
0
 10
373.506692233
 20
-5.56758310896e-11
 30
540.391491699
  0
VERTEX
  8
0
 10
370.008368821
 20
-5.56937791453e-11
 30
540.565696133
  0
VERTEX
  8
0
 10
366.497622368
 20
-5.57118815764e-11
 30
540.741398939
  0
VERTEX
  8
0
 10
362.974432202
 20
-5.57301409461e-11
 30
540.918624996
  0
VERTEX
  8
0
 10
359.438777651
 20
-5.57485598179e-11
 30
541.097399186
  0
VERTEX
  8
0
 10
355.890638042
 20
-5.57671407552e-11
 30
541.277746389
  0
VERTEX
  8
0
 10
352.329992703
 20
-5.57858863214e-11
 30
541.459691486
  0
VERTEX
  8
0
 10
348.756820961
 20
-5.580479908e-11
 30
541.643259358
  0
VERTEX
  8
0
 10
345.171102144
 20
-5.58238815944e-11
 30
541.828474885
  0
VERTEX
  8
0
 10
341.57281558
 20
-5.58431364279e-11
 30
542.015362949
  0
VERTEX
  8
0
 10
337.961940595
 20
-5.58625661441e-11
 30
542.203948428
  0
VERTEX
  8
0
 10
334.338456518
 20
-5.58821733063e-11
 30
542.394256205
  0
VERTEX
  8
0
 10
330.702342677
 20
-5.5901960478e-11
 30
542.58631116
  0
VERTEX
  8
0
 10
327.053578397
 20
-5.59219302226e-11
 30
542.780138173
  0
VERTEX
  8
0
 10
323.392143008
 20
-5.59420851034e-11
 30
542.975762125
  0
VERTEX
  8
0
 10
319.718015837
 20
-5.5962427684e-11
 30
543.173207897
  0
VERTEX
  8
0
 10
316.031176211
 20
-5.59829605276e-11
 30
543.372500369
  0
VERTEX
  8
0
 10
312.331603457
 20
-5.60036861979e-11
 30
543.573664423
  0
VERTEX
  8
0
 10
308.619276905
 20
-5.60246072581e-11
 30
543.776724938
  0
VERTEX
  8
0
 10
304.89417588
 20
-5.60457262718e-11
 30
543.981706796
  0
VERTEX
  8
0
 10
301.15627971
 20
-5.60670458022e-11
 30
544.188634876
  0
VERTEX
  8
0
 10
297.405567723
 20
-5.60885684129e-11
 30
544.397534061
  0
VERTEX
  8
0
 10
293.642019248
 20
-5.61102966673e-11
 30
544.608429229
  0
SEQEND
  8
0
  0
CIRCLE
  8
0
 62
7
 10
290.677658
 20
-5.22077314713e-11
 30
506.73
 40
17.78
  0
POLYLINE
  8
0
 62
7
 70
1
 66
1
 10
0.0
 20
0.0
 30
0.0
  0
VERTEX
  8
0
 10
849.477658
 20
-4.17756258881e-11
 30
405.13
  0
VERTEX
  8
0
 10
874.042288051
 20
-4.65389516563e-11
 30
451.329349849
  0
VERTEX
  8
0
 10
920.2416379
 20
-4.40052467328e-11
 30
426.764719798
  0
VERTEX
  8
0
 10
895.677007849
 20
-3.92419209646e-11
 30
380.565369949
  0
SEQEND
  8
0
  0
CIRCLE
  8
0
 62
7
 10
965.2
 20
-1.3084644479e-11
 30
127.0
 40
16.7005
  0
ENDBLK
  0
ENDSEC
  0
SECTION
  2
ENTITIES
  0
INSERT
  2
SKETCH001
  8
0
 62
7
 10
0.0
 20
0.0
 30
0.0
  0
ENDSEC
  0
EOF
